<ttFont>
    <TTGlyph name=".notdef" xMin="68" yMin="0" xMax="612" yMax="1365">
      <contour>
        <pt x="68" y="0" on="1"/>
        <pt x="68" y="1365" on="1"/>
        <pt x="612" y="1365" on="1"/>
        <pt x="612" y="0" on="1"/>
      </contour>
      <contour>
        <pt x="136" y="68" on="1"/>
        <pt x="544" y="68" on="1"/>
        <pt x="544" y="1297" on="1"/>
        <pt x="136" y="1297" on="1"/>
      </contour>
    </TTGlyph>
    <TTGlyph name="A" xMin="-123" yMin="-8" xMax="1169" yMax="1324">
      <contour>
        <pt x="123" y="268" on="1"/>
        <pt x="711" y="1248" on="1"/>
        <pt x="725" y="1270" on="0"/>
        <pt x="779" y="1324" on="0"/>
        <pt x="792" y="1324" on="1"/>
        <pt x="823" y="1324" on="0"/>
        <pt x="829" y="1310" on="1"/>
        <pt x="1015" y="296" on="1"/>
        <pt x="1022" y="262" on="0"/>
        <pt x="1036" y="170" on="0"/>
        <pt x="1045" y="124" on="0"/>
        <pt x="1082" y="85" on="0"/>
        <pt x="1106" y="78" on="1"/>
        <pt x="1147" y="66" on="0"/>
        <pt x="1169" y="66" on="1"/>
        <pt x="1173" y="53" on="0"/>
        <pt x="1163" y="-2" on="0"/>
        <pt x="1157" y="-8" on="1"/>
        <pt x="1140" y="-7" on="0"/>
        <pt x="959" y="8" on="0"/>
        <pt x="873" y="8" on="0"/>
        <pt x="767" y="2" on="0"/>
        <pt x="645" y="-7" on="0"/>
        <pt x="627" y="-8" on="1"/>
        <pt x="621" y="-1" on="0"/>
        <pt x="635" y="66" on="0"/>
        <pt x="643" y="66" on="1"/>
        <pt x="715" y="66" on="0"/>
        <pt x="759" y="102" on="1"/>
        <pt x="780" y="117" on="0"/>
        <pt x="782" y="130" on="1"/>
        <pt x="787" y="153" on="0"/>
        <pt x="744" y="368" on="1"/>
        <pt x="729" y="440" on="1"/>
        <pt x="725" y="448" on="0"/>
        <pt x="684" y="450" on="0"/>
        <pt x="413" y="450" on="0"/>
        <pt x="347" y="448" on="1"/>
        <pt x="336" y="448" on="0"/>
        <pt x="331" y="438" on="1"/>
        <pt x="170" y="173" on="0"/>
        <pt x="165" y="134" on="1"/>
        <pt x="162" y="116" on="0"/>
        <pt x="196" y="87" on="0"/>
        <pt x="222" y="80" on="1"/>
        <pt x="272" y="66" on="0"/>
        <pt x="295" y="66" on="1"/>
        <pt x="301" y="56" on="0"/>
        <pt x="288" y="-1" on="0"/>
        <pt x="281" y="-8" on="1"/>
        <pt x="153" y="8" on="0"/>
        <pt x="11" y="8" on="0"/>
        <pt x="-121" y="-8" on="1"/>
        <pt x="-126" y="-3" on="0"/>
        <pt x="-120" y="48" on="0"/>
        <pt x="-111" y="64" on="1"/>
        <pt x="-90" y="64" on="0"/>
        <pt x="15" y="106" on="0"/>
        <pt x="31" y="128" on="1"/>
        <pt x="68" y="177" on="0"/>
      </contour>
      <contour>
        <pt x="631" y="952" on="1"/>
        <pt x="395" y="560" on="1"/>
        <pt x="395" y="552" on="0"/>
        <pt x="399" y="552" on="1"/>
        <pt x="453" y="546" on="0"/>
        <pt x="643" y="546" on="0"/>
        <pt x="673" y="548" on="1"/>
        <pt x="705" y="550" on="0"/>
        <pt x="709" y="560" on="1"/>
      </contour>
    </TTGlyph>
    <TTGlyph name="AE" xMin="-130" yMin="-8" xMax="1659" yMax="1328">
      <contour>
        <pt x="803" y="530" on="1"/>
        <pt x="795" y="538" on="1"/>
        <pt x="760" y="540" on="0"/>
        <pt x="529" y="540" on="0"/>
        <pt x="463" y="538" on="1"/>
        <pt x="450" y="538" on="0"/>
        <pt x="445" y="528" on="1"/>
        <pt x="303" y="326" on="0"/>
        <pt x="194" y="160" on="0"/>
        <pt x="182" y="116" on="0"/>
        <pt x="214" y="87" on="0"/>
        <pt x="239" y="80" on="1"/>
        <pt x="289" y="66" on="0"/>
        <pt x="311" y="66" on="1"/>
        <pt x="316" y="56" on="0"/>
        <pt x="311" y="-2" on="0"/>
        <pt x="305" y="-8" on="1"/>
        <pt x="177" y="8" on="0"/>
        <pt x="9" y="8" on="0"/>
        <pt x="-123" y="-8" on="1"/>
        <pt x="-129" y="0" on="0"/>
        <pt x="-130" y="46" on="0"/>
        <pt x="-121" y="64" on="1"/>
        <pt x="-100" y="64" on="0"/>
        <pt x="9" y="106" on="0"/>
        <pt x="49" y="154" on="0"/>
        <pt x="78" y="191" on="0"/>
        <pt x="122" y="256" on="0"/>
        <pt x="131" y="268" on="1"/>
        <pt x="763" y="1180" on="1"/>
        <pt x="779" y="1206" on="0"/>
        <pt x="779" y="1229" on="0"/>
        <pt x="742" y="1246" on="0"/>
        <pt x="729" y="1246" on="1"/>
        <pt x="724" y="1258" on="0"/>
        <pt x="732" y="1310" on="0"/>
        <pt x="739" y="1320" on="1"/>
        <pt x="821" y="1314" on="0"/>
        <pt x="1147" y="1314" on="0"/>
        <pt x="1623" y="1328" on="1"/>
        <pt x="1627" y="1240" on="0"/>
        <pt x="1645" y="1032" on="1"/>
        <pt x="1635" y="1022" on="0"/>
        <pt x="1576" y="1022" on="0"/>
        <pt x="1573" y="1038" on="1"/>
        <pt x="1534" y="1191" on="0"/>
        <pt x="1464" y="1225" on="1"/>
        <pt x="1434" y="1240" on="0"/>
        <pt x="1393" y="1240" on="1"/>
        <pt x="1239" y="1240" on="1"/>
        <pt x="1156" y="1240" on="0"/>
        <pt x="1131" y="1192" on="0"/>
        <pt x="1121" y="1094" on="1"/>
        <pt x="1085" y="720" on="1"/>
        <pt x="1085" y="711" on="0"/>
        <pt x="1133" y="698" on="0"/>
        <pt x="1163" y="698" on="1"/>
        <pt x="1261" y="698" on="1"/>
        <pt x="1343" y="698" on="0"/>
        <pt x="1409" y="750" on="0"/>
        <pt x="1441" y="838" on="1"/>
        <pt x="1447" y="854" on="0"/>
        <pt x="1490" y="854" on="0"/>
        <pt x="1497" y="844" on="1"/>
        <pt x="1459" y="460" on="1"/>
        <pt x="1451" y="452" on="0"/>
        <pt x="1401" y="452" on="0"/>
        <pt x="1401" y="468" on="1"/>
        <pt x="1388" y="569" on="0"/>
        <pt x="1347" y="590" on="1"/>
        <pt x="1319" y="604" on="0"/>
        <pt x="1073" y="604" on="0"/>
        <pt x="1071" y="576" on="1"/>
        <pt x="1039" y="282" on="1"/>
        <pt x="1027" y="197" on="0"/>
        <pt x="1039" y="124" on="1"/>
        <pt x="1045" y="105" on="0"/>
        <pt x="1114" y="84" on="0"/>
        <pt x="1155" y="84" on="1"/>
        <pt x="1279" y="84" on="1"/>
        <pt x="1390" y="84" on="0"/>
        <pt x="1512" y="200" on="0"/>
        <pt x="1577" y="340" on="1"/>
        <pt x="1583" y="352" on="0"/>
        <pt x="1601" y="352" on="1"/>
        <pt x="1650" y="352" on="0"/>
        <pt x="1659" y="340" on="1"/>
        <pt x="1627" y="264" on="0"/>
        <pt x="1599" y="201" on="0"/>
        <pt x="1568" y="123" on="0"/>
        <pt x="1559" y="99" on="1"/>
        <pt x="1533" y="30" on="0"/>
        <pt x="1525" y="-4" on="1"/>
        <pt x="665" y="-4" on="0"/>
        <pt x="617" y="-6" on="1"/>
        <pt x="611" y="3" on="0"/>
        <pt x="615" y="57" on="0"/>
        <pt x="623" y="68" on="1"/>
        <pt x="736" y="77" on="0"/>
        <pt x="747" y="102" on="1"/>
        <pt x="765" y="143" on="0"/>
        <pt x="779" y="290" on="1"/>
      </contour>
      <contour>
        <pt x="863" y="1134" on="1"/>
        <pt x="521" y="650" on="1"/>
        <pt x="521" y="642" on="0"/>
        <pt x="525" y="642" on="1"/>
        <pt x="579" y="636" on="0"/>
        <pt x="747" y="636" on="0"/>
        <pt x="777" y="638" on="1"/>
        <pt x="809" y="640" on="0"/>
        <pt x="815" y="650" on="1"/>
        <pt x="855" y="1026" on="1"/>
        <pt x="858" y="1054" on="0"/>
      </contour>
    </TTGlyph>
    <TTGlyph name="Aacute" xMin="-123" yMin="-8" xMax="1178" yMax="1692">
      <component glyphName="acutecomb.cap" x="449" y="-6" flags="0x1004"/>
      <component glyphName="A" x="0" y="0" flags="0x1004"/>
    </TTGlyph>
    <TTGlyph name="Abreve" xMin="-123" yMin="-8" xMax="1169" yMax="1698">
      <component glyphName="uni0306.cap" x="321" y="46" flags="0x1004"/>
      <component glyphName="A" x="0" y="0" flags="0x1004"/>
    </TTGlyph>
    <TTGlyph name="Acircumflex" xMin="-123" yMin="-8" xMax="1169" yMax="1740">
      <component glyphName="uni0302.cap" x="197" y="52" flags="0x1004"/>
      <component glyphName="A" x="0" y="0" flags="0x1004"/>
    </TTGlyph>
    <TTGlyph name="Adieresis" xMin="-123" yMin="-8" xMax="1181" yMax="1734">
      <component glyphName="uni0308.cap" x="243" y="24" flags="0x1004"/>
      <component glyphName="A" x="0" y="0" flags="0x1004"/>
    </TTGlyph>
    <TTGlyph name="Agrave" xMin="-123" yMin="-8" xMax="1169" yMax="1692">
      <component glyphName="gravecomb.cap" x="21" y="-6" flags="0x1004"/>
      <component glyphName="A" x="0" y="0" flags="0x1004"/>
    </TTGlyph>
    <TTGlyph name="Amacron" xMin="-123" yMin="-8" xMax="1169" yMax="1548">
      <component glyphName="uni0304.cap" x="239" y="348" flags="0x1004"/>
      <component glyphName="A" x="0" y="0" flags="0x1004"/>
    </TTGlyph>
    <TTGlyph name="Aogonek" xMin="-123" yMin="-436" xMax="1169" yMax="1324">
      <contour>
        <pt x="1140" y="-7" on="0"/>
        <pt x="959" y="8" on="0"/>
        <pt x="849" y="8" on="0"/>
        <pt x="712" y="-64" on="0"/>
        <pt x="619" y="-184" on="0"/>
        <pt x="619" y="-280" on="0"/>
        <pt x="653" y="-312" on="0"/>
        <pt x="720" y="-312" on="0"/>
        <pt x="776" y="-291" on="0"/>
        <pt x="806" y="-269" on="0"/>
        <pt x="838" y="-240" on="0"/>
        <pt x="848" y="-243" on="0"/>
        <pt x="849" y="-287" on="0"/>
        <pt x="845" y="-292" on="1"/>
        <pt x="810" y="-352" on="0"/>
        <pt x="679" y="-436" on="0"/>
        <pt x="562" y="-436" on="0"/>
        <pt x="497" y="-364" on="0"/>
        <pt x="497" y="-296" on="0"/>
        <pt x="507" y="-248" on="0"/>
        <pt x="515" y="-214" on="0"/>
        <pt x="544" y="-164" on="0"/>
        <pt x="555" y="-143" on="0"/>
        <pt x="600" y="-90" on="0"/>
        <pt x="605" y="-84" on="1"/>
        <pt x="643" y="-39" on="0"/>
        <pt x="739" y="56" on="0"/>
        <pt x="748" y="68" on="1"/>
        <pt x="781" y="111" on="0"/>
        <pt x="781" y="162" on="1"/>
        <pt x="729" y="440" on="1"/>
        <pt x="725" y="448" on="0"/>
        <pt x="684" y="450" on="0"/>
        <pt x="413" y="450" on="0"/>
        <pt x="347" y="448" on="1"/>
        <pt x="336" y="448" on="0"/>
        <pt x="331" y="438" on="1"/>
        <pt x="170" y="173" on="0"/>
        <pt x="165" y="134" on="1"/>
        <pt x="162" y="116" on="0"/>
        <pt x="196" y="87" on="0"/>
        <pt x="222" y="80" on="1"/>
        <pt x="272" y="66" on="0"/>
        <pt x="295" y="66" on="1"/>
        <pt x="301" y="56" on="0"/>
        <pt x="288" y="-1" on="0"/>
        <pt x="281" y="-8" on="1"/>
        <pt x="153" y="8" on="0"/>
        <pt x="11" y="8" on="0"/>
        <pt x="-121" y="-8" on="1"/>
        <pt x="-126" y="-3" on="0"/>
        <pt x="-120" y="48" on="0"/>
        <pt x="-111" y="64" on="1"/>
        <pt x="-90" y="64" on="0"/>
        <pt x="15" y="106" on="0"/>
        <pt x="31" y="128" on="1"/>
        <pt x="68" y="177" on="0"/>
        <pt x="123" y="268" on="1"/>
        <pt x="711" y="1248" on="1"/>
        <pt x="725" y="1270" on="0"/>
        <pt x="779" y="1324" on="0"/>
        <pt x="792" y="1324" on="1"/>
        <pt x="823" y="1324" on="0"/>
        <pt x="829" y="1310" on="1"/>
        <pt x="1015" y="296" on="1"/>
        <pt x="1022" y="262" on="0"/>
        <pt x="1036" y="170" on="0"/>
        <pt x="1045" y="124" on="0"/>
        <pt x="1082" y="85" on="0"/>
        <pt x="1106" y="78" on="1"/>
        <pt x="1147" y="66" on="0"/>
        <pt x="1169" y="66" on="1"/>
        <pt x="1173" y="53" on="0"/>
        <pt x="1163" y="-2" on="0"/>
        <pt x="1157" y="-8" on="1"/>
      </contour>
      <contour>
        <pt x="631" y="952" on="1"/>
        <pt x="395" y="560" on="1"/>
        <pt x="395" y="552" on="0"/>
        <pt x="399" y="552" on="1"/>
        <pt x="453" y="546" on="0"/>
        <pt x="643" y="546" on="0"/>
        <pt x="673" y="548" on="1"/>
        <pt x="705" y="550" on="0"/>
        <pt x="709" y="560" on="1"/>
      </contour>
    </TTGlyph>
    <TTGlyph name="Aring" xMin="-123" yMin="-8" xMax="1169" yMax="1714">
      <component glyphName="uni030A.cap" x="229" y="0" flags="0x1004"/>
      <component glyphName="A" x="0" y="0" flags="0x1004"/>
    </TTGlyph>
    <TTGlyph name="Atilde" xMin="-123" yMin="-8" xMax="1169" yMax="1640">
      <component glyphName="tildecomb.cap" x="143" y="0" flags="0x1004"/>
      <component glyphName="A" x="0" y="0" flags="0x1004"/>
    </TTGlyph>
    <TTGlyph name="B" xMin="-16" yMin="-6" xMax="1106" yMax="1320">
      <contour>
        <pt x="524" y="742" on="1"/>
        <pt x="620" y="742" on="1"/>
        <pt x="691" y="742" on="0"/>
        <pt x="802" y="864" on="0"/>
        <pt x="824" y="974" on="1"/>
        <pt x="874" y="1240" on="0"/>
        <pt x="722" y="1240" on="1"/>
        <pt x="639" y="1240" on="0"/>
        <pt x="624" y="1216" on="1"/>
        <pt x="615" y="1200" on="0"/>
        <pt x="607" y="1165" on="0"/>
        <pt x="605" y="1156" on="1"/>
        <pt x="602" y="1142" on="0"/>
        <pt x="592" y="1094" on="1"/>
      </contour>
      <contour>
        <pt x="508" y="664" on="1"/>
        <pt x="422" y="218" on="1"/>
        <pt x="406" y="121" on="0"/>
        <pt x="425" y="78" on="0"/>
        <pt x="561" y="78" on="0"/>
        <pt x="632" y="107" on="0"/>
        <pt x="668" y="137" on="1"/>
        <pt x="748" y="204" on="0"/>
        <pt x="776" y="352" on="1"/>
        <pt x="804" y="463" on="0"/>
        <pt x="767" y="564" on="1"/>
        <pt x="751" y="609" on="0"/>
        <pt x="667" y="664" on="0"/>
        <pt x="604" y="664" on="1"/>
      </contour>
      <contour>
        <pt x="506" y="1314" on="1"/>
        <pt x="792" y="1320" on="1"/>
        <pt x="903" y="1320" on="0"/>
        <pt x="1036" y="1252" on="0"/>
        <pt x="1065" y="1216" on="1"/>
        <pt x="1133" y="1130" on="0"/>
        <pt x="1106" y="1004" on="1"/>
        <pt x="1078" y="859" on="0"/>
        <pt x="911" y="761" on="1"/>
        <pt x="877" y="741" on="0"/>
        <pt x="852" y="732" on="1"/>
        <pt x="840" y="725" on="0"/>
        <pt x="840" y="720" on="1"/>
        <pt x="905" y="711" on="0"/>
        <pt x="1008" y="627" on="0"/>
        <pt x="1035" y="589" on="1"/>
        <pt x="1096" y="503" on="0"/>
        <pt x="1055" y="287" on="0"/>
        <pt x="916" y="117" on="0"/>
        <pt x="758" y="27" on="0"/>
        <pt x="608" y="-4" on="0"/>
        <pt x="508" y="-7" on="0"/>
        <pt x="416" y="-6" on="1"/>
        <pt x="-16" y="-6" on="1"/>
        <pt x="-21" y="3" on="0"/>
        <pt x="-11" y="58" on="0"/>
        <pt x="-2" y="68" on="1"/>
        <pt x="111" y="77" on="0"/>
        <pt x="124" y="102" on="1"/>
        <pt x="147" y="143" on="0"/>
        <pt x="174" y="290" on="1"/>
        <pt x="318" y="1026" on="1"/>
        <pt x="320" y="1036" on="0"/>
        <pt x="329" y="1085" on="0"/>
        <pt x="333" y="1104" on="0"/>
        <pt x="339" y="1142" on="0"/>
        <pt x="341" y="1160" on="0"/>
        <pt x="342" y="1174" on="1"/>
        <pt x="344" y="1199" on="0"/>
        <pt x="340" y="1214" on="1"/>
        <pt x="336" y="1237" on="0"/>
        <pt x="226" y="1246" on="1"/>
        <pt x="222" y="1256" on="0"/>
        <pt x="234" y="1311" on="0"/>
        <pt x="242" y="1320" on="1"/>
        <pt x="324" y="1314" on="0"/>
      </contour>
    </TTGlyph>
    <TTGlyph name="C" xMin="104" yMin="-14" xMax="1276" yMax="1334">
      <contour>
        <pt x="1060" y="1204" on="0"/>
        <pt x="953" y="1248" on="0"/>
        <pt x="788" y="1248" on="0"/>
        <pt x="608" y="1142" on="0"/>
        <pt x="473" y="958" on="0"/>
        <pt x="392" y="690" on="0"/>
        <pt x="392" y="536" on="1"/>
        <pt x="392" y="322" on="0"/>
        <pt x="498" y="183" on="1"/>
        <pt x="534" y="135" on="0"/>
        <pt x="655" y="74" on="0"/>
        <pt x="730" y="74" on="1"/>
        <pt x="924" y="74" on="0"/>
        <pt x="1054" y="254" on="1"/>
        <pt x="1130" y="359" on="0"/>
        <pt x="1148" y="408" on="1"/>
        <pt x="1189" y="408" on="0"/>
        <pt x="1210" y="384" on="1"/>
        <pt x="1205" y="359" on="0"/>
        <pt x="1092" y="90" on="0"/>
        <pt x="1074" y="80" on="1"/>
        <pt x="904" y="-14" on="0"/>
        <pt x="674" y="-14" on="1"/>
        <pt x="351" y="-14" on="0"/>
        <pt x="193" y="237" on="1"/>
        <pt x="104" y="378" on="0"/>
        <pt x="104" y="697" on="0"/>
        <pt x="198" y="952" on="0"/>
        <pt x="356" y="1135" on="0"/>
        <pt x="458" y="1202" on="1"/>
        <pt x="657" y="1334" on="0"/>
        <pt x="886" y="1334" on="1"/>
        <pt x="1020" y="1334" on="0"/>
        <pt x="1276" y="1276" on="1"/>
        <pt x="1276" y="1260" on="0"/>
        <pt x="1253" y="1006" on="0"/>
        <pt x="1248" y="978" on="0"/>
        <pt x="1222" y="960" on="0"/>
        <pt x="1188" y="960" on="0"/>
        <pt x="1182" y="968" on="1"/>
        <pt x="1180" y="1031" on="0"/>
        <pt x="1122" y="1140" on="0"/>
      </contour>
    </TTGlyph>
    <TTGlyph name="Cacute" xMin="104" yMin="-14" xMax="1276" yMax="1692">
      <component glyphName="acutecomb.cap" x="532" y="-6" flags="0x1004"/>
      <component glyphName="C" x="0" y="0" flags="0x1004"/>
    </TTGlyph>
    <TTGlyph name="Ccaron" xMin="104" yMin="-14" xMax="1276" yMax="1734">
      <component glyphName="uni030C.cap" x="128" y="-6" flags="0x1004"/>
      <component glyphName="C" x="0" y="0" flags="0x1004"/>
    </TTGlyph>
    <TTGlyph name="Ccedilla" xMin="104" yMin="-342" xMax="1276" yMax="1334">
      <component glyphName="uni0327.cap" x="286" y="2" flags="0x1004"/>
      <component glyphName="C" x="0" y="0" flags="0x1004"/>
    </TTGlyph>
    <TTGlyph name="Ccircumflex" xMin="104" yMin="-14" xMax="1276" yMax="1740">
      <component glyphName="uni0302.cap" x="276" y="52" flags="0x1004"/>
      <component glyphName="C" x="0" y="0" flags="0x1004"/>
    </TTGlyph>
    <TTGlyph name="Cdotaccent" xMin="104" yMin="-14" xMax="1276" yMax="1736">
      <component glyphName="uni0307.cap" x="320" y="4" flags="0x1004"/>
      <component glyphName="C" x="0" y="0" flags="0x1004"/>
    </TTGlyph>
    <TTGlyph name="D" xMin="-16" yMin="-6" xMax="1372" yMax="1320">
      <contour>
        <pt x="592" y="1094" on="1"/>
        <pt x="434" y="282" on="1"/>
        <pt x="412" y="152" on="0"/>
        <pt x="422" y="104" on="0"/>
        <pt x="488" y="78" on="0"/>
        <pt x="526" y="78" on="1"/>
        <pt x="756" y="78" on="0"/>
        <pt x="1019" y="338" on="0"/>
        <pt x="1132" y="916" on="0"/>
        <pt x="934" y="1240" on="0"/>
        <pt x="722" y="1240" on="1"/>
        <pt x="639" y="1240" on="0"/>
        <pt x="624" y="1216" on="1"/>
        <pt x="615" y="1200" on="0"/>
        <pt x="607" y="1165" on="0"/>
        <pt x="605" y="1156" on="1"/>
        <pt x="602" y="1142" on="0"/>
      </contour>
      <contour>
        <pt x="242" y="1320" on="1"/>
        <pt x="324" y="1314" on="0"/>
        <pt x="576" y="1314" on="0"/>
        <pt x="792" y="1320" on="1"/>
        <pt x="1005" y="1320" on="0"/>
        <pt x="1296" y="1149" on="0"/>
        <pt x="1412" y="837" on="0"/>
        <pt x="1372" y="634" on="1"/>
        <pt x="1297" y="239" on="0"/>
        <pt x="968" y="85" on="1"/>
        <pt x="773" y="-6" on="0"/>
        <pt x="520" y="-6" on="1"/>
        <pt x="-16" y="-6" on="1"/>
        <pt x="-21" y="3" on="0"/>
        <pt x="-11" y="58" on="0"/>
        <pt x="-2" y="68" on="1"/>
        <pt x="111" y="77" on="0"/>
        <pt x="124" y="102" on="1"/>
        <pt x="147" y="143" on="0"/>
        <pt x="174" y="290" on="1"/>
        <pt x="318" y="1026" on="1"/>
        <pt x="320" y="1036" on="0"/>
        <pt x="329" y="1085" on="0"/>
        <pt x="333" y="1104" on="0"/>
        <pt x="339" y="1142" on="0"/>
        <pt x="341" y="1160" on="0"/>
        <pt x="342" y="1174" on="1"/>
        <pt x="344" y="1199" on="0"/>
        <pt x="340" y="1214" on="1"/>
        <pt x="336" y="1237" on="0"/>
        <pt x="226" y="1246" on="1"/>
        <pt x="222" y="1256" on="0"/>
        <pt x="234" y="1311" on="0"/>
      </contour>
    </TTGlyph>
    <TTGlyph name="Dcaron" xMin="-16" yMin="-6" xMax="1372" yMax="1734">
      <component glyphName="uni030C.cap" x="-8" y="-6" flags="0x1004"/>
      <component glyphName="D" x="0" y="0" flags="0x1004"/>
    </TTGlyph>
    <TTGlyph name="Dcroat" xMin="-14" yMin="-6" xMax="1374" yMax="1320">
      <component glyphName="Eth.ref1" x="0" y="0" flags="0x1004"/>
      <component glyphName="D" x="2" y="0" flags="0x1004"/>
    </TTGlyph>
    <TTGlyph name="Dot.a" xMin="-160" yMin="-7" xMax="127" yMax="278">
      <contour>
        <pt x="-79" y="268" on="1"/>
        <pt x="-69" y="285" on="0"/>
        <pt x="-45" y="278" on="1"/>
        <pt x="43" y="248" on="0"/>
        <pt x="116" y="190" on="1"/>
        <pt x="135" y="173" on="0"/>
        <pt x="126" y="153" on="1"/>
        <pt x="47" y="-2" on="1"/>
        <pt x="34" y="-23" on="0"/>
        <pt x="-12" y="10" on="0"/>
        <pt x="-149" y="86" on="1"/>
        <pt x="-171" y="99" on="0"/>
        <pt x="-160" y="120" on="1"/>
      </contour>
    </TTGlyph>
    <TTGlyph name="Dot.b" xMin="-160" yMin="-7" xMax="127" yMax="278">
      <component glyphName="Dot.a" x="0" y="0" flags="0x1004"/>
    </TTGlyph>
    <TTGlyph name="Dot.b.l" xMin="-160" yMin="-7" xMax="127" yMax="278">
      <component glyphName="Dot.a" x="0" y="0" flags="0x1004"/>
    </TTGlyph>
    <TTGlyph name="E" xMin="-16" yMin="-6" xMax="1114" yMax="1328">
      <contour>
        <pt x="242" y="1320" on="1"/>
        <pt x="324" y="1314" on="0"/>
        <pt x="638" y="1314" on="0"/>
        <pt x="1114" y="1328" on="1"/>
        <pt x="1110" y="1261" on="0"/>
        <pt x="1110" y="1032" on="1"/>
        <pt x="1100" y="1022" on="0"/>
        <pt x="1041" y="1022" on="0"/>
        <pt x="1038" y="1038" on="1"/>
        <pt x="1012" y="1192" on="0"/>
        <pt x="946" y="1225" on="1"/>
        <pt x="917" y="1240" on="0"/>
        <pt x="876" y="1240" on="1"/>
        <pt x="722" y="1240" on="1"/>
        <pt x="639" y="1240" on="0"/>
        <pt x="624" y="1216" on="1"/>
        <pt x="615" y="1200" on="0"/>
        <pt x="607" y="1165" on="0"/>
        <pt x="605" y="1156" on="1"/>
        <pt x="602" y="1142" on="0"/>
        <pt x="592" y="1094" on="1"/>
        <pt x="522" y="736" on="1"/>
        <pt x="518" y="714" on="0"/>
        <pt x="598" y="714" on="1"/>
        <pt x="696" y="714" on="1"/>
        <pt x="778" y="714" on="0"/>
        <pt x="849" y="766" on="0"/>
        <pt x="888" y="854" on="1"/>
        <pt x="894" y="870" on="0"/>
        <pt x="939" y="870" on="0"/>
        <pt x="946" y="860" on="1"/>
        <pt x="872" y="476" on="1"/>
        <pt x="864" y="468" on="0"/>
        <pt x="814" y="468" on="0"/>
        <pt x="814" y="484" on="1"/>
        <pt x="810" y="587" on="0"/>
        <pt x="744" y="620" on="0"/>
        <pt x="499" y="620" on="0"/>
        <pt x="494" y="592" on="1"/>
        <pt x="434" y="282" on="1"/>
        <pt x="412" y="152" on="0"/>
        <pt x="417" y="128" on="1"/>
        <pt x="426" y="84" on="0"/>
        <pt x="530" y="84" on="1"/>
        <pt x="654" y="84" on="1"/>
        <pt x="765" y="84" on="0"/>
        <pt x="899" y="202" on="0"/>
        <pt x="976" y="340" on="1"/>
        <pt x="982" y="352" on="0"/>
        <pt x="1001" y="352" on="1"/>
        <pt x="1049" y="352" on="0"/>
        <pt x="1058" y="340" on="1"/>
        <pt x="1029" y="289" on="0"/>
        <pt x="978" y="186" on="1"/>
        <pt x="913" y="56" on="0"/>
        <pt x="892" y="-4" on="1"/>
        <pt x="32" y="-4" on="0"/>
        <pt x="-16" y="-6" on="1"/>
        <pt x="-21" y="3" on="0"/>
        <pt x="-11" y="58" on="0"/>
        <pt x="-2" y="68" on="1"/>
        <pt x="111" y="77" on="0"/>
        <pt x="124" y="102" on="1"/>
        <pt x="147" y="143" on="0"/>
        <pt x="174" y="290" on="1"/>
        <pt x="318" y="1026" on="1"/>
        <pt x="320" y="1036" on="0"/>
        <pt x="329" y="1085" on="0"/>
        <pt x="333" y="1104" on="0"/>
        <pt x="339" y="1142" on="0"/>
        <pt x="341" y="1160" on="0"/>
        <pt x="342" y="1174" on="1"/>
        <pt x="344" y="1199" on="0"/>
        <pt x="340" y="1214" on="1"/>
        <pt x="336" y="1237" on="0"/>
        <pt x="226" y="1246" on="1"/>
        <pt x="222" y="1256" on="0"/>
        <pt x="234" y="1311" on="0"/>
      </contour>
    </TTGlyph>
    <TTGlyph name="Eacute" xMin="-16" yMin="-6" xMax="1114" yMax="1666">
      <component glyphName="acutecomb.cap" x="322" y="-32" flags="0x1004"/>
      <component glyphName="E" x="0" y="0" flags="0x1004"/>
    </TTGlyph>
    <TTGlyph name="Ebreve" xMin="-16" yMin="-6" xMax="1114" yMax="1698">
      <component glyphName="uni0306.cap" x="178" y="46" flags="0x1004"/>
      <component glyphName="E" x="0" y="0" flags="0x1004"/>
    </TTGlyph>
    <TTGlyph name="Ecaron" xMin="-16" yMin="-6" xMax="1114" yMax="1734">
      <component glyphName="uni030C.cap" x="-40" y="-6" flags="0x1004"/>
      <component glyphName="E" x="0" y="0" flags="0x1004"/>
    </TTGlyph>
    <TTGlyph name="Ecircumflex" xMin="-16" yMin="-6" xMax="1114" yMax="1740">
      <component glyphName="uni0302.cap" x="100" y="52" flags="0x1004"/>
      <component glyphName="E" x="0" y="0" flags="0x1004"/>
    </TTGlyph>
    <TTGlyph name="Edieresis" xMin="-16" yMin="-6" xMax="1114" yMax="1734">
      <component glyphName="uni0308.cap" x="166" y="24" flags="0x1004"/>
      <component glyphName="E" x="0" y="0" flags="0x1004"/>
    </TTGlyph>
    <TTGlyph name="Edotaccent" xMin="-16" yMin="-6" xMax="1114" yMax="1736">
      <component glyphName="uni0307.cap" x="164" y="4" flags="0x1004"/>
      <component glyphName="E" x="0" y="0" flags="0x1004"/>
    </TTGlyph>
    <TTGlyph name="Egrave" xMin="-16" yMin="-6" xMax="1114" yMax="1666">
      <component glyphName="gravecomb.cap" x="42" y="-32" flags="0x1004"/>
      <component glyphName="E" x="0" y="0" flags="0x1004"/>
    </TTGlyph>
    <TTGlyph name="Emacron" xMin="-16" yMin="-6" xMax="1114" yMax="1548">
      <component glyphName="uni0304.cap" x="140" y="348" flags="0x1004"/>
      <component glyphName="E" x="0" y="0" flags="0x1004"/>
    </TTGlyph>
    <TTGlyph name="Eng" xMin="-37" yMin="-436" xMax="1539" yMax="1326">
      <contour>
        <pt x="1301" y="1310" on="1"/>
        <pt x="1539" y="1326" on="1"/>
        <pt x="1541" y="1315" on="0"/>
        <pt x="1530" y="1263" on="0"/>
        <pt x="1519" y="1250" on="1"/>
        <pt x="1462" y="1250" on="0"/>
        <pt x="1368" y="1223" on="0"/>
        <pt x="1357" y="1204" on="1"/>
        <pt x="1347" y="1183" on="0"/>
        <pt x="1300" y="1013" on="0"/>
        <pt x="1289" y="958" on="1"/>
        <pt x="1157" y="278" on="1"/>
        <pt x="1132" y="149" on="0"/>
        <pt x="1007" y="-83" on="0"/>
        <pt x="863" y="-238" on="0"/>
        <pt x="782" y="-300" on="1"/>
        <pt x="646" y="-403" on="0"/>
        <pt x="539" y="-436" on="1"/>
        <pt x="532" y="-432" on="0"/>
        <pt x="517" y="-408" on="0"/>
        <pt x="517" y="-392" on="0"/>
        <pt x="521" y="-388" on="1"/>
        <pt x="848" y="-212" on="0"/>
        <pt x="957" y="138" on="1"/>
        <pt x="451" y="1038" on="1"/>
        <pt x="311" y="314" on="1"/>
        <pt x="285" y="177" on="0"/>
        <pt x="293" y="120" on="1"/>
        <pt x="297" y="96" on="0"/>
        <pt x="410" y="68" on="0"/>
        <pt x="437" y="68" on="1"/>
        <pt x="447" y="41" on="0"/>
        <pt x="425" y="-8" on="1"/>
        <pt x="404" y="-7" on="0"/>
        <pt x="240" y="8" on="0"/>
        <pt x="145" y="8" on="0"/>
        <pt x="-4" y="-6" on="0"/>
        <pt x="-37" y="-8" on="1"/>
        <pt x="-43" y="8" on="0"/>
        <pt x="-23" y="66" on="0"/>
        <pt x="-21" y="66" on="1"/>
        <pt x="8" y="66" on="0"/>
        <pt x="123" y="95" on="0"/>
        <pt x="151" y="141" on="0"/>
        <pt x="189" y="264" on="0"/>
        <pt x="224" y="451" on="0"/>
        <pt x="312" y="897" on="0"/>
        <pt x="329" y="987" on="1"/>
        <pt x="358" y="1141" on="0"/>
        <pt x="337" y="1208" on="1"/>
        <pt x="329" y="1225" on="0"/>
        <pt x="246" y="1250" on="0"/>
        <pt x="223" y="1250" on="1"/>
        <pt x="212" y="1256" on="0"/>
        <pt x="227" y="1319" on="0"/>
        <pt x="233" y="1324" on="1"/>
        <pt x="249" y="1323" on="0"/>
        <pt x="288" y="1319" on="1"/>
        <pt x="377" y="1310" on="0"/>
        <pt x="538" y="1310" on="0"/>
        <pt x="647" y="1324" on="1"/>
        <pt x="673" y="1220" on="0"/>
        <pt x="813" y="972" on="1"/>
        <pt x="864" y="882" on="0"/>
        <pt x="1041" y="572" on="0"/>
        <pt x="1083" y="496" on="1"/>
        <pt x="1088" y="507" on="0"/>
        <pt x="1103" y="578" on="1"/>
        <pt x="1175" y="952" on="1"/>
        <pt x="1215" y="1170" on="0"/>
        <pt x="1205" y="1208" on="1"/>
        <pt x="1200" y="1231" on="0"/>
        <pt x="1098" y="1252" on="0"/>
        <pt x="1063" y="1252" on="1"/>
        <pt x="1059" y="1260" on="0"/>
        <pt x="1071" y="1318" on="0"/>
        <pt x="1077" y="1326" on="1"/>
        <pt x="1109" y="1324" on="0"/>
        <pt x="1253" y="1310" on="0"/>
      </contour>
    </TTGlyph>
    <TTGlyph name="Eogonek" xMin="-16" yMin="-436" xMax="1114" yMax="1328">
      <contour>
        <pt x="242" y="1320" on="1"/>
        <pt x="324" y="1314" on="0"/>
        <pt x="638" y="1314" on="0"/>
        <pt x="1114" y="1328" on="1"/>
        <pt x="1110" y="1261" on="0"/>
        <pt x="1110" y="1032" on="1"/>
        <pt x="1100" y="1022" on="0"/>
        <pt x="1041" y="1022" on="0"/>
        <pt x="1038" y="1038" on="1"/>
        <pt x="1012" y="1192" on="0"/>
        <pt x="946" y="1225" on="1"/>
        <pt x="917" y="1240" on="0"/>
        <pt x="876" y="1240" on="1"/>
        <pt x="722" y="1240" on="1"/>
        <pt x="639" y="1240" on="0"/>
        <pt x="624" y="1216" on="1"/>
        <pt x="615" y="1200" on="0"/>
        <pt x="607" y="1165" on="0"/>
        <pt x="605" y="1156" on="1"/>
        <pt x="602" y="1142" on="0"/>
        <pt x="592" y="1094" on="1"/>
        <pt x="522" y="736" on="1"/>
        <pt x="518" y="714" on="0"/>
        <pt x="598" y="714" on="1"/>
        <pt x="696" y="714" on="1"/>
        <pt x="778" y="714" on="0"/>
        <pt x="849" y="766" on="0"/>
        <pt x="888" y="854" on="1"/>
        <pt x="894" y="870" on="0"/>
        <pt x="939" y="870" on="0"/>
        <pt x="946" y="860" on="1"/>
        <pt x="872" y="476" on="1"/>
        <pt x="864" y="468" on="0"/>
        <pt x="814" y="468" on="0"/>
        <pt x="814" y="484" on="1"/>
        <pt x="810" y="587" on="0"/>
        <pt x="744" y="620" on="0"/>
        <pt x="499" y="620" on="0"/>
        <pt x="494" y="592" on="1"/>
        <pt x="434" y="282" on="1"/>
        <pt x="412" y="152" on="0"/>
        <pt x="417" y="128" on="1"/>
        <pt x="426" y="84" on="0"/>
        <pt x="530" y="84" on="1"/>
        <pt x="654" y="84" on="1"/>
        <pt x="765" y="84" on="0"/>
        <pt x="899" y="202" on="0"/>
        <pt x="976" y="340" on="1"/>
        <pt x="982" y="352" on="0"/>
        <pt x="1001" y="352" on="1"/>
        <pt x="1049" y="352" on="0"/>
        <pt x="1058" y="340" on="1"/>
        <pt x="1029" y="289" on="0"/>
        <pt x="978" y="186" on="1"/>
        <pt x="913" y="56" on="0"/>
        <pt x="892" y="-4" on="1"/>
        <pt x="787" y="-4" on="0"/>
        <pt x="586" y="-164" on="0"/>
        <pt x="586" y="-244" on="1"/>
        <pt x="586" y="-280" on="0"/>
        <pt x="620" y="-312" on="0"/>
        <pt x="687" y="-312" on="0"/>
        <pt x="743" y="-291" on="0"/>
        <pt x="773" y="-269" on="0"/>
        <pt x="805" y="-240" on="0"/>
        <pt x="815" y="-243" on="0"/>
        <pt x="816" y="-287" on="0"/>
        <pt x="812" y="-292" on="1"/>
        <pt x="777" y="-352" on="0"/>
        <pt x="646" y="-436" on="0"/>
        <pt x="529" y="-436" on="0"/>
        <pt x="464" y="-364" on="0"/>
        <pt x="464" y="-320" on="1"/>
        <pt x="464" y="-230" on="0"/>
        <pt x="602" y="-47" on="0"/>
        <pt x="706" y="-2" on="1"/>
        <pt x="104" y="-2" on="0"/>
        <pt x="-16" y="-6" on="1"/>
        <pt x="-21" y="3" on="0"/>
        <pt x="-11" y="58" on="0"/>
        <pt x="-2" y="68" on="1"/>
        <pt x="111" y="77" on="0"/>
        <pt x="124" y="102" on="1"/>
        <pt x="147" y="143" on="0"/>
        <pt x="174" y="290" on="1"/>
        <pt x="318" y="1026" on="1"/>
        <pt x="320" y="1036" on="0"/>
        <pt x="329" y="1085" on="0"/>
        <pt x="333" y="1104" on="0"/>
        <pt x="339" y="1142" on="0"/>
        <pt x="341" y="1160" on="0"/>
        <pt x="342" y="1174" on="1"/>
        <pt x="344" y="1199" on="0"/>
        <pt x="340" y="1214" on="1"/>
        <pt x="336" y="1237" on="0"/>
        <pt x="226" y="1246" on="1"/>
        <pt x="222" y="1256" on="0"/>
        <pt x="234" y="1311" on="0"/>
      </contour>
    </TTGlyph>
    <TTGlyph name="Eth" xMin="-14" yMin="-6" xMax="1374" yMax="1320">
      <component glyphName="D" x="2" y="0" flags="0x1004"/>
      <component glyphName="Eth.ref1" x="0" y="0" flags="0x1004"/>
    </TTGlyph>
    <TTGlyph name="Eth.ref1" xMin="101" yMin="608" xMax="789" yMax="686">
      <contour>
        <pt x="120" y="686" on="1"/>
        <pt x="780" y="686" on="1"/>
        <pt x="795" y="686" on="0"/>
        <pt x="781" y="627" on="0"/>
        <pt x="768" y="608" on="1"/>
        <pt x="106" y="608" on="1"/>
        <pt x="94" y="608" on="0"/>
        <pt x="109" y="675" on="0"/>
      </contour>
    </TTGlyph>
    <TTGlyph name="Euro" xMin="44" yMin="-14" xMax="1292" yMax="1334">
      <contour>
        <pt x="746" y="586" on="1"/>
        <pt x="752" y="586" on="0"/>
        <pt x="752" y="524" on="0"/>
        <pt x="728" y="500" on="1"/>
        <pt x="432" y="500" on="1"/>
        <pt x="436" y="434" on="0"/>
        <pt x="446" y="385" on="1"/>
        <pt x="463" y="309" on="0"/>
        <pt x="530" y="165" on="0"/>
        <pt x="656" y="74" on="0"/>
        <pt x="738" y="74" on="1"/>
        <pt x="942" y="74" on="0"/>
        <pt x="1069" y="256" on="1"/>
        <pt x="1134" y="348" on="0"/>
        <pt x="1156" y="408" on="1"/>
        <pt x="1197" y="408" on="0"/>
        <pt x="1218" y="384" on="1"/>
        <pt x="1213" y="359" on="0"/>
        <pt x="1100" y="90" on="0"/>
        <pt x="1082" y="80" on="1"/>
        <pt x="912" y="-14" on="0"/>
        <pt x="682" y="-14" on="1"/>
        <pt x="552" y="-14" on="0"/>
        <pt x="340" y="87" on="0"/>
        <pt x="276" y="169" on="1"/>
        <pt x="158" y="318" on="0"/>
        <pt x="144" y="500" on="1"/>
        <pt x="52" y="500" on="1"/>
        <pt x="44" y="500" on="0"/>
        <pt x="44" y="528" on="0"/>
        <pt x="60" y="578" on="0"/>
        <pt x="70" y="586" on="1"/>
        <pt x="143" y="586" on="1"/>
        <pt x="145" y="646" on="0"/>
        <pt x="155" y="702" on="1"/>
        <pt x="83" y="702" on="1"/>
        <pt x="75" y="702" on="0"/>
        <pt x="75" y="730" on="0"/>
        <pt x="91" y="780" on="0"/>
        <pt x="101" y="788" on="1"/>
        <pt x="176" y="788" on="1"/>
        <pt x="235" y="982" on="0"/>
        <pt x="398" y="1130" on="1"/>
        <pt x="539" y="1259" on="0"/>
        <pt x="731" y="1310" on="1"/>
        <pt x="819" y="1334" on="0"/>
        <pt x="1036" y="1334" on="0"/>
        <pt x="1292" y="1276" on="1"/>
        <pt x="1292" y="1260" on="0"/>
        <pt x="1269" y="1006" on="0"/>
        <pt x="1264" y="978" on="0"/>
        <pt x="1238" y="960" on="0"/>
        <pt x="1204" y="960" on="0"/>
        <pt x="1198" y="968" on="1"/>
        <pt x="1196" y="1031" on="0"/>
        <pt x="1138" y="1140" on="0"/>
        <pt x="1076" y="1204" on="0"/>
        <pt x="969" y="1248" on="0"/>
        <pt x="807" y="1248" on="0"/>
        <pt x="635" y="1142" on="0"/>
        <pt x="506" y="958" on="0"/>
        <pt x="468" y="824" on="1"/>
        <pt x="463" y="806" on="0"/>
        <pt x="458" y="788" on="1"/>
        <pt x="776" y="788" on="1"/>
        <pt x="782" y="788" on="0"/>
        <pt x="782" y="726" on="0"/>
        <pt x="758" y="702" on="1"/>
        <pt x="441" y="702" on="1"/>
        <pt x="431" y="642" on="0"/>
        <pt x="430" y="586" on="1"/>
      </contour>
    </TTGlyph>
    <TTGlyph name="F" xMin="-18" yMin="-8" xMax="1114" yMax="1328">
      <contour>
        <pt x="242" y="1320" on="1"/>
        <pt x="324" y="1314" on="0"/>
        <pt x="638" y="1314" on="0"/>
        <pt x="1114" y="1328" on="1"/>
        <pt x="1110" y="1261" on="0"/>
        <pt x="1110" y="1032" on="1"/>
        <pt x="1100" y="1022" on="0"/>
        <pt x="1041" y="1022" on="0"/>
        <pt x="1038" y="1038" on="1"/>
        <pt x="1012" y="1192" on="0"/>
        <pt x="946" y="1225" on="1"/>
        <pt x="917" y="1240" on="0"/>
        <pt x="876" y="1240" on="1"/>
        <pt x="722" y="1240" on="1"/>
        <pt x="639" y="1240" on="0"/>
        <pt x="624" y="1216" on="1"/>
        <pt x="615" y="1200" on="0"/>
        <pt x="607" y="1165" on="0"/>
        <pt x="605" y="1156" on="1"/>
        <pt x="602" y="1142" on="0"/>
        <pt x="592" y="1094" on="1"/>
        <pt x="520" y="728" on="1"/>
        <pt x="516" y="706" on="0"/>
        <pt x="596" y="706" on="1"/>
        <pt x="694" y="706" on="1"/>
        <pt x="776" y="706" on="0"/>
        <pt x="847" y="758" on="0"/>
        <pt x="886" y="846" on="1"/>
        <pt x="892" y="862" on="0"/>
        <pt x="937" y="862" on="0"/>
        <pt x="944" y="852" on="1"/>
        <pt x="870" y="468" on="1"/>
        <pt x="862" y="460" on="0"/>
        <pt x="812" y="460" on="0"/>
        <pt x="812" y="476" on="1"/>
        <pt x="808" y="579" on="0"/>
        <pt x="742" y="612" on="0"/>
        <pt x="497" y="612" on="0"/>
        <pt x="492" y="584" on="1"/>
        <pt x="436" y="290" on="1"/>
        <pt x="434" y="280" on="0"/>
        <pt x="425" y="231" on="0"/>
        <pt x="421" y="212" on="0"/>
        <pt x="415" y="174" on="0"/>
        <pt x="413" y="156" on="0"/>
        <pt x="412" y="142" on="1"/>
        <pt x="410" y="117" on="0"/>
        <pt x="414" y="102" on="1"/>
        <pt x="418" y="76" on="0"/>
        <pt x="542" y="66" on="1"/>
        <pt x="546" y="56" on="0"/>
        <pt x="536" y="1" on="0"/>
        <pt x="528" y="-8" on="1"/>
        <pt x="406" y="6" on="0"/>
        <pt x="112" y="6" on="0"/>
        <pt x="-18" y="-8" on="1"/>
        <pt x="-23" y="1" on="0"/>
        <pt x="-11" y="56" on="0"/>
        <pt x="-2" y="66" on="1"/>
        <pt x="110" y="75" on="0"/>
        <pt x="124" y="102" on="1"/>
        <pt x="147" y="143" on="0"/>
        <pt x="174" y="290" on="1"/>
        <pt x="318" y="1026" on="1"/>
        <pt x="320" y="1036" on="0"/>
        <pt x="329" y="1085" on="0"/>
        <pt x="333" y="1104" on="0"/>
        <pt x="339" y="1142" on="0"/>
        <pt x="341" y="1160" on="0"/>
        <pt x="342" y="1174" on="1"/>
        <pt x="344" y="1199" on="0"/>
        <pt x="340" y="1214" on="1"/>
        <pt x="336" y="1237" on="0"/>
        <pt x="226" y="1246" on="1"/>
        <pt x="222" y="1256" on="0"/>
        <pt x="234" y="1311" on="0"/>
      </contour>
    </TTGlyph>
    <TTGlyph name="FourDots.a" xMin="-331" yMin="-7" xMax="223" yMax="564">
      <contour>
        <pt x="-42" y="554" on="1"/>
        <pt x="-32" y="571" on="0"/>
        <pt x="-8" y="564" on="1"/>
        <pt x="79" y="534" on="0"/>
        <pt x="153" y="476" on="1"/>
        <pt x="172" y="459" on="0"/>
        <pt x="163" y="439" on="1"/>
        <pt x="95" y="307" on="1"/>
        <pt x="158" y="279" on="0"/>
        <pt x="212" y="236" on="1"/>
        <pt x="231" y="219" on="0"/>
        <pt x="223" y="199" on="1"/>
        <pt x="144" y="44" on="1"/>
        <pt x="130" y="23" on="0"/>
        <pt x="87" y="54" on="0"/>
        <pt x="-8" y="108" on="1"/>
        <pt x="-64" y="-2" on="1"/>
        <pt x="-77" y="-23" on="0"/>
        <pt x="-123" y="10" on="0"/>
        <pt x="-260" y="86" on="1"/>
        <pt x="-282" y="99" on="0"/>
        <pt x="-271" y="120" on="1"/>
        <pt x="-196" y="256" on="1"/>
        <pt x="-237" y="280" on="0"/>
        <pt x="-319" y="326" on="1"/>
        <pt x="-342" y="339" on="0"/>
        <pt x="-330" y="360" on="1"/>
        <pt x="-249" y="508" on="1"/>
        <pt x="-239" y="525" on="0"/>
        <pt x="-216" y="518" on="1"/>
        <pt x="-151" y="496" on="0"/>
        <pt x="-94" y="459" on="1"/>
      </contour>
      <contour>
        <pt x="-112" y="261" on="1"/>
        <pt x="-72" y="243" on="0"/>
        <pt x="-35" y="219" on="1"/>
        <pt x="11" y="303" on="1"/>
        <pt x="-18" y="321" on="0"/>
        <pt x="-68" y="348" on="1"/>
      </contour>
    </TTGlyph>
    <TTGlyph name="FourDots.b" xMin="-331" yMin="-7" xMax="223" yMax="564">
      <component glyphName="FourDots.a" x="0" y="0" flags="0x1004"/>
    </TTGlyph>
    <TTGlyph name="FourDots.b.l" xMin="-331" yMin="-7" xMax="223" yMax="564">
      <component glyphName="FourDots.a" x="0" y="0" flags="0x1004"/>
    </TTGlyph>
    <TTGlyph name="G" xMin="104" yMin="-14" xMax="1326" yMax="1334">
      <contour>
        <pt x="1106" y="610" on="1"/>
        <pt x="1326" y="622" on="1"/>
        <pt x="1327" y="603" on="0"/>
        <pt x="1315" y="548" on="0"/>
        <pt x="1310" y="548" on="1"/>
        <pt x="1297" y="548" on="0"/>
        <pt x="1232" y="532" on="0"/>
        <pt x="1220" y="524" on="1"/>
        <pt x="1193" y="507" on="0"/>
        <pt x="1178" y="436" on="1"/>
        <pt x="1139" y="232" on="0"/>
        <pt x="1130" y="186" on="0"/>
        <pt x="1133" y="142" on="0"/>
        <pt x="1129" y="123" on="0"/>
        <pt x="1081" y="82" on="0"/>
        <pt x="1026" y="56" on="1"/>
        <pt x="880" y="-14" on="0"/>
        <pt x="674" y="-14" on="1"/>
        <pt x="351" y="-14" on="0"/>
        <pt x="193" y="237" on="1"/>
        <pt x="104" y="378" on="0"/>
        <pt x="104" y="697" on="0"/>
        <pt x="198" y="952" on="0"/>
        <pt x="356" y="1135" on="0"/>
        <pt x="458" y="1202" on="1"/>
        <pt x="657" y="1334" on="0"/>
        <pt x="886" y="1334" on="1"/>
        <pt x="1020" y="1334" on="0"/>
        <pt x="1276" y="1276" on="1"/>
        <pt x="1276" y="1260" on="0"/>
        <pt x="1253" y="1006" on="0"/>
        <pt x="1248" y="978" on="0"/>
        <pt x="1222" y="960" on="0"/>
        <pt x="1188" y="960" on="0"/>
        <pt x="1182" y="968" on="1"/>
        <pt x="1180" y="1030" on="0"/>
        <pt x="1122" y="1140" on="0"/>
        <pt x="1090" y="1172" on="1"/>
        <pt x="1016" y="1248" on="0"/>
        <pt x="788" y="1248" on="0"/>
        <pt x="608" y="1142" on="0"/>
        <pt x="473" y="958" on="0"/>
        <pt x="392" y="690" on="0"/>
        <pt x="392" y="536" on="1"/>
        <pt x="392" y="322" on="0"/>
        <pt x="498" y="183" on="1"/>
        <pt x="534" y="135" on="0"/>
        <pt x="655" y="74" on="0"/>
        <pt x="732" y="74" on="1"/>
        <pt x="851" y="74" on="0"/>
        <pt x="864" y="134" on="1"/>
        <pt x="867" y="147" on="0"/>
        <pt x="882" y="232" on="0"/>
        <pt x="905" y="354" on="0"/>
        <pt x="924" y="452" on="0"/>
        <pt x="921" y="511" on="0"/>
        <pt x="890" y="535" on="0"/>
        <pt x="867" y="540" on="1"/>
        <pt x="830" y="548" on="0"/>
        <pt x="800" y="548" on="1"/>
        <pt x="790" y="553" on="0"/>
        <pt x="808" y="617" on="0"/>
        <pt x="814" y="622" on="1"/>
      </contour>
    </TTGlyph>
    <TTGlyph name="Gbreve" xMin="104" yMin="-14" xMax="1326" yMax="1698">
      <component glyphName="uni0306.cap" x="364" y="46" flags="0x1004"/>
      <component glyphName="G" x="0" y="0" flags="0x1004"/>
    </TTGlyph>
    <TTGlyph name="Gcaron" xMin="104" yMin="-14" xMax="1326" yMax="1734">
      <component glyphName="uni030C.cap" x="94" y="-6" flags="0x1004"/>
      <component glyphName="G" x="0" y="0" flags="0x1004"/>
    </TTGlyph>
    <TTGlyph name="Gcircumflex" xMin="104" yMin="-14" xMax="1326" yMax="1734">
      <component glyphName="uni0302.cap" x="290" y="46" flags="0x1004"/>
      <component glyphName="G" x="0" y="0" flags="0x1004"/>
    </TTGlyph>
    <TTGlyph name="Gcommaaccent" xMin="104" yMin="-436" xMax="1326" yMax="1334">
      <component glyphName="uni0326" x="1166" y="0" flags="0x1004"/>
      <component glyphName="G" x="0" y="0" flags="0x1004"/>
    </TTGlyph>
    <TTGlyph name="Gdotaccent" xMin="104" yMin="-14" xMax="1326" yMax="1736">
      <component glyphName="uni0307.cap" x="294" y="4" flags="0x1004"/>
      <component glyphName="G" x="0" y="0" flags="0x1004"/>
    </TTGlyph>
    <TTGlyph name="H" xMin="-18" yMin="-8" xMax="1478" yMax="1324">
      <contour>
        <pt x="242" y="1324" on="1"/>
        <pt x="364" y="1310" on="0"/>
        <pt x="640" y="1310" on="0"/>
        <pt x="770" y="1324" on="1"/>
        <pt x="775" y="1315" on="0"/>
        <pt x="765" y="1260" on="0"/>
        <pt x="756" y="1250" on="1"/>
        <pt x="644" y="1241" on="0"/>
        <pt x="630" y="1214" on="1"/>
        <pt x="604" y="1167" on="0"/>
        <pt x="578" y="1026" on="1"/>
        <pt x="524" y="742" on="1"/>
        <pt x="526" y="736" on="1"/>
        <pt x="742" y="730" on="0"/>
        <pt x="764" y="730" on="0"/>
        <pt x="968" y="736" on="1"/>
        <pt x="974" y="740" on="0"/>
        <pt x="974" y="744" on="1"/>
        <pt x="1026" y="1026" on="1"/>
        <pt x="1028" y="1036" on="0"/>
        <pt x="1037" y="1085" on="0"/>
        <pt x="1041" y="1104" on="0"/>
        <pt x="1047" y="1142" on="0"/>
        <pt x="1049" y="1160" on="0"/>
        <pt x="1050" y="1174" on="1"/>
        <pt x="1052" y="1199" on="0"/>
        <pt x="1048" y="1214" on="1"/>
        <pt x="1044" y="1241" on="0"/>
        <pt x="936" y="1250" on="1"/>
        <pt x="932" y="1260" on="0"/>
        <pt x="942" y="1315" on="0"/>
        <pt x="950" y="1324" on="1"/>
        <pt x="1072" y="1310" on="0"/>
        <pt x="1348" y="1310" on="0"/>
        <pt x="1478" y="1324" on="1"/>
        <pt x="1483" y="1315" on="0"/>
        <pt x="1473" y="1260" on="0"/>
        <pt x="1464" y="1250" on="1"/>
        <pt x="1352" y="1241" on="0"/>
        <pt x="1338" y="1214" on="1"/>
        <pt x="1312" y="1167" on="0"/>
        <pt x="1286" y="1026" on="1"/>
        <pt x="1144" y="290" on="1"/>
        <pt x="1142" y="280" on="0"/>
        <pt x="1133" y="231" on="0"/>
        <pt x="1129" y="212" on="0"/>
        <pt x="1123" y="174" on="0"/>
        <pt x="1121" y="156" on="0"/>
        <pt x="1120" y="142" on="1"/>
        <pt x="1118" y="117" on="0"/>
        <pt x="1122" y="102" on="1"/>
        <pt x="1126" y="75" on="0"/>
        <pt x="1234" y="66" on="1"/>
        <pt x="1238" y="56" on="0"/>
        <pt x="1228" y="1" on="0"/>
        <pt x="1220" y="-8" on="1"/>
        <pt x="1098" y="6" on="0"/>
        <pt x="822" y="6" on="0"/>
        <pt x="692" y="-8" on="1"/>
        <pt x="687" y="1" on="0"/>
        <pt x="697" y="56" on="0"/>
        <pt x="706" y="66" on="1"/>
        <pt x="818" y="75" on="0"/>
        <pt x="832" y="102" on="1"/>
        <pt x="858" y="149" on="0"/>
        <pt x="884" y="290" on="1"/>
        <pt x="948" y="620" on="1"/>
        <pt x="946" y="630" on="1"/>
        <pt x="810" y="634" on="0"/>
        <pt x="514" y="634" on="0"/>
        <pt x="502" y="626" on="1"/>
        <pt x="498" y="618" on="1"/>
        <pt x="436" y="290" on="1"/>
        <pt x="434" y="280" on="0"/>
        <pt x="425" y="231" on="0"/>
        <pt x="421" y="212" on="0"/>
        <pt x="415" y="174" on="0"/>
        <pt x="413" y="156" on="0"/>
        <pt x="412" y="142" on="1"/>
        <pt x="410" y="117" on="0"/>
        <pt x="414" y="102" on="1"/>
        <pt x="418" y="75" on="0"/>
        <pt x="526" y="66" on="1"/>
        <pt x="530" y="56" on="0"/>
        <pt x="520" y="1" on="0"/>
        <pt x="512" y="-8" on="1"/>
        <pt x="390" y="6" on="0"/>
        <pt x="112" y="6" on="0"/>
        <pt x="-18" y="-8" on="1"/>
        <pt x="-23" y="1" on="0"/>
        <pt x="-11" y="56" on="0"/>
        <pt x="-2" y="66" on="1"/>
        <pt x="110" y="75" on="0"/>
        <pt x="124" y="102" on="1"/>
        <pt x="147" y="143" on="0"/>
        <pt x="174" y="290" on="1"/>
        <pt x="318" y="1026" on="1"/>
        <pt x="320" y="1036" on="0"/>
        <pt x="329" y="1085" on="0"/>
        <pt x="333" y="1104" on="0"/>
        <pt x="339" y="1142" on="0"/>
        <pt x="341" y="1160" on="0"/>
        <pt x="342" y="1174" on="1"/>
        <pt x="344" y="1199" on="0"/>
        <pt x="340" y="1214" on="1"/>
        <pt x="336" y="1241" on="0"/>
        <pt x="228" y="1250" on="1"/>
        <pt x="224" y="1260" on="0"/>
        <pt x="234" y="1315" on="0"/>
      </contour>
    </TTGlyph>
    <TTGlyph name="Hbar" xMin="-18" yMin="-8" xMax="1478" yMax="1324">
      <component glyphName="H" x="0" y="0" flags="0x1004"/>
      <component glyphName="Hbar.ref1" x="0" y="0" flags="0x1004"/>
    </TTGlyph>
    <TTGlyph name="Hbar.ref1" xMin="191" yMin="954" xMax="1400" yMax="1032">
      <contour>
        <pt x="214" y="1032" on="1"/>
        <pt x="1396" y="1032" on="1"/>
        <pt x="1406" y="1032" on="0"/>
        <pt x="1394" y="977" on="0"/>
        <pt x="1380" y="954" on="1"/>
        <pt x="196" y="954" on="1"/>
        <pt x="192" y="954" on="0"/>
        <pt x="190" y="970" on="0"/>
        <pt x="200" y="1016" on="0"/>
      </contour>
    </TTGlyph>
    <TTGlyph name="Hcircumflex" xMin="-18" yMin="-8" xMax="1478" yMax="1740">
      <component glyphName="uni0302.cap" x="254" y="52" flags="0x1004"/>
      <component glyphName="H" x="0" y="0" flags="0x1004"/>
    </TTGlyph>
    <TTGlyph name="I" xMin="-18" yMin="-8" xMax="770" yMax="1324">
      <contour>
        <pt x="242" y="1324" on="1"/>
        <pt x="364" y="1310" on="0"/>
        <pt x="640" y="1310" on="0"/>
        <pt x="770" y="1324" on="1"/>
        <pt x="775" y="1315" on="0"/>
        <pt x="765" y="1260" on="0"/>
        <pt x="756" y="1250" on="1"/>
        <pt x="644" y="1241" on="0"/>
        <pt x="630" y="1214" on="1"/>
        <pt x="604" y="1167" on="0"/>
        <pt x="578" y="1026" on="1"/>
        <pt x="436" y="290" on="1"/>
        <pt x="434" y="280" on="0"/>
        <pt x="425" y="231" on="0"/>
        <pt x="421" y="212" on="0"/>
        <pt x="415" y="174" on="0"/>
        <pt x="413" y="156" on="0"/>
        <pt x="412" y="142" on="1"/>
        <pt x="410" y="117" on="0"/>
        <pt x="414" y="102" on="1"/>
        <pt x="418" y="75" on="0"/>
        <pt x="526" y="66" on="1"/>
        <pt x="530" y="56" on="0"/>
        <pt x="520" y="1" on="0"/>
        <pt x="512" y="-8" on="1"/>
        <pt x="390" y="6" on="0"/>
        <pt x="112" y="6" on="0"/>
        <pt x="-18" y="-8" on="1"/>
        <pt x="-23" y="1" on="0"/>
        <pt x="-11" y="56" on="0"/>
        <pt x="-2" y="66" on="1"/>
        <pt x="110" y="75" on="0"/>
        <pt x="124" y="102" on="1"/>
        <pt x="147" y="143" on="0"/>
        <pt x="174" y="290" on="1"/>
        <pt x="318" y="1026" on="1"/>
        <pt x="320" y="1036" on="0"/>
        <pt x="329" y="1085" on="0"/>
        <pt x="333" y="1104" on="0"/>
        <pt x="339" y="1142" on="0"/>
        <pt x="341" y="1160" on="0"/>
        <pt x="342" y="1174" on="1"/>
        <pt x="344" y="1199" on="0"/>
        <pt x="340" y="1214" on="1"/>
        <pt x="336" y="1241" on="0"/>
        <pt x="228" y="1250" on="1"/>
        <pt x="224" y="1260" on="0"/>
        <pt x="234" y="1315" on="0"/>
      </contour>
    </TTGlyph>
    <TTGlyph name="IJ" xMin="-18" yMin="-436" xMax="1262" yMax="1324">
      <component glyphName="J" x="504" y="0" flags="0x1004"/>
      <component glyphName="I" x="0" y="0" flags="0x1004"/>
    </TTGlyph>
    <TTGlyph name="Iacute" xMin="-18" yMin="-8" xMax="785" yMax="1666">
      <component glyphName="acutecomb.cap" x="56" y="-32" flags="0x1004"/>
      <component glyphName="I" x="0" y="0" flags="0x1004"/>
    </TTGlyph>
    <TTGlyph name="Ibreve" xMin="-18" yMin="-8" xMax="776" yMax="1698">
      <component glyphName="uni0306.cap" x="2" y="46" flags="0x1004"/>
      <component glyphName="I" x="0" y="0" flags="0x1004"/>
    </TTGlyph>
    <TTGlyph name="Icircumflex" xMin="-18" yMin="-8" xMax="788" yMax="1740">
      <component glyphName="uni0302.cap" x="-94" y="52" flags="0x1004"/>
      <component glyphName="I" x="0" y="0" flags="0x1004"/>
    </TTGlyph>
    <TTGlyph name="Idieresis" xMin="-18" yMin="-8" xMax="890" yMax="1734">
      <component glyphName="uni0308.cap" x="-48" y="24" flags="0x1004"/>
      <component glyphName="I" x="0" y="0" flags="0x1004"/>
    </TTGlyph>
    <TTGlyph name="Idotaccent" xMin="-18" yMin="-8" xMax="770" yMax="1736">
      <component glyphName="uni0307.cap" x="-42" y="4" flags="0x1004"/>
      <component glyphName="I" x="0" y="0" flags="0x1004"/>
    </TTGlyph>
    <TTGlyph name="Igrave" xMin="-18" yMin="-8" xMax="770" yMax="1666">
      <component glyphName="gravecomb.cap" x="-142" y="-32" flags="0x1004"/>
      <component glyphName="I" x="0" y="0" flags="0x1004"/>
    </TTGlyph>
    <TTGlyph name="Imacron" xMin="-18" yMin="-8" xMax="798" yMax="1542">
      <component glyphName="uni0304.cap" x="-46" y="342" flags="0x1004"/>
      <component glyphName="I" x="0" y="0" flags="0x1004"/>
    </TTGlyph>
    <TTGlyph name="Iogonek" xMin="-18" yMin="-436" xMax="770" yMax="1324">
      <contour>
        <pt x="526" y="66" on="1"/>
        <pt x="530" y="56" on="0"/>
        <pt x="520" y="1" on="0"/>
        <pt x="512" y="-8" on="1"/>
        <pt x="416" y="-8" on="0"/>
        <pt x="384" y="-12" on="1"/>
        <pt x="304" y="-21" on="0"/>
        <pt x="146" y="-167" on="0"/>
        <pt x="146" y="-244" on="1"/>
        <pt x="146" y="-280" on="0"/>
        <pt x="180" y="-312" on="0"/>
        <pt x="247" y="-312" on="0"/>
        <pt x="303" y="-291" on="0"/>
        <pt x="333" y="-269" on="0"/>
        <pt x="365" y="-240" on="0"/>
        <pt x="375" y="-243" on="0"/>
        <pt x="376" y="-287" on="0"/>
        <pt x="372" y="-292" on="1"/>
        <pt x="337" y="-352" on="0"/>
        <pt x="206" y="-436" on="0"/>
        <pt x="89" y="-436" on="0"/>
        <pt x="24" y="-364" on="0"/>
        <pt x="24" y="-248" on="0"/>
        <pt x="69" y="-175" on="1"/>
        <pt x="146" y="-51" on="0"/>
        <pt x="258" y="8" on="1"/>
        <pt x="118" y="8" on="0"/>
        <pt x="-18" y="-8" on="1"/>
        <pt x="-23" y="1" on="0"/>
        <pt x="-11" y="56" on="0"/>
        <pt x="-2" y="66" on="1"/>
        <pt x="110" y="75" on="0"/>
        <pt x="124" y="102" on="1"/>
        <pt x="147" y="143" on="0"/>
        <pt x="174" y="290" on="1"/>
        <pt x="318" y="1026" on="1"/>
        <pt x="320" y="1036" on="0"/>
        <pt x="329" y="1085" on="0"/>
        <pt x="333" y="1104" on="0"/>
        <pt x="339" y="1142" on="0"/>
        <pt x="341" y="1160" on="0"/>
        <pt x="342" y="1174" on="1"/>
        <pt x="344" y="1199" on="0"/>
        <pt x="340" y="1214" on="1"/>
        <pt x="336" y="1241" on="0"/>
        <pt x="228" y="1250" on="1"/>
        <pt x="224" y="1260" on="0"/>
        <pt x="234" y="1315" on="0"/>
        <pt x="242" y="1324" on="1"/>
        <pt x="364" y="1310" on="0"/>
        <pt x="640" y="1310" on="0"/>
        <pt x="770" y="1324" on="1"/>
        <pt x="775" y="1315" on="0"/>
        <pt x="765" y="1260" on="0"/>
        <pt x="756" y="1250" on="1"/>
        <pt x="644" y="1241" on="0"/>
        <pt x="630" y="1214" on="1"/>
        <pt x="604" y="1167" on="0"/>
        <pt x="578" y="1026" on="1"/>
        <pt x="436" y="290" on="1"/>
        <pt x="434" y="280" on="0"/>
        <pt x="425" y="231" on="0"/>
        <pt x="421" y="212" on="0"/>
        <pt x="415" y="174" on="0"/>
        <pt x="413" y="156" on="0"/>
        <pt x="412" y="142" on="1"/>
        <pt x="410" y="117" on="0"/>
        <pt x="414" y="102" on="1"/>
        <pt x="418" y="75" on="0"/>
      </contour>
    </TTGlyph>
    <TTGlyph name="Itilde" xMin="-18" yMin="-8" xMax="844" yMax="1640">
      <component glyphName="tildecomb.cap" x="-156" y="0" flags="0x1004"/>
      <component glyphName="I" x="0" y="0" flags="0x1004"/>
    </TTGlyph>
    <TTGlyph name="J" xMin="-218" yMin="-436" xMax="758" yMax="1324">
      <contour>
        <pt x="230" y="1324" on="1"/>
        <pt x="352" y="1310" on="0"/>
        <pt x="628" y="1310" on="0"/>
        <pt x="758" y="1324" on="1"/>
        <pt x="763" y="1315" on="0"/>
        <pt x="753" y="1260" on="0"/>
        <pt x="744" y="1250" on="1"/>
        <pt x="632" y="1241" on="0"/>
        <pt x="618" y="1214" on="1"/>
        <pt x="592" y="1167" on="0"/>
        <pt x="566" y="1026" on="1"/>
        <pt x="422" y="286" on="1"/>
        <pt x="373" y="30" on="0"/>
        <pt x="179" y="-178" on="1"/>
        <pt x="38" y="-329" on="0"/>
        <pt x="-129" y="-408" on="1"/>
        <pt x="-168" y="-427" on="0"/>
        <pt x="-196" y="-436" on="1"/>
        <pt x="-203" y="-432" on="0"/>
        <pt x="-218" y="-408" on="0"/>
        <pt x="-218" y="-392" on="0"/>
        <pt x="-214" y="-388" on="1"/>
        <pt x="-64" y="-307" on="0"/>
        <pt x="110" y="12" on="0"/>
        <pt x="160" y="270" on="1"/>
        <pt x="306" y="1026" on="1"/>
        <pt x="308" y="1036" on="0"/>
        <pt x="317" y="1085" on="0"/>
        <pt x="321" y="1104" on="0"/>
        <pt x="327" y="1142" on="0"/>
        <pt x="329" y="1160" on="0"/>
        <pt x="330" y="1174" on="1"/>
        <pt x="332" y="1199" on="0"/>
        <pt x="328" y="1214" on="1"/>
        <pt x="324" y="1241" on="0"/>
        <pt x="216" y="1250" on="1"/>
        <pt x="212" y="1260" on="0"/>
        <pt x="222" y="1315" on="0"/>
      </contour>
    </TTGlyph>
    <TTGlyph name="Jcircumflex" xMin="-218" yMin="-436" xMax="782" yMax="1734">
      <component glyphName="uni0302.cap" x="-100" y="46" flags="0x1004"/>
      <component glyphName="J" x="0" y="0" flags="0x1004"/>
    </TTGlyph>
    <TTGlyph name="K" xMin="-18" yMin="-12" xMax="1454" yMax="1324">
      <contour>
        <pt x="982" y="1324" on="1"/>
        <pt x="1222" y="1310" on="1"/>
        <pt x="1332" y="1310" on="0"/>
        <pt x="1454" y="1324" on="1"/>
        <pt x="1456" y="1312" on="0"/>
        <pt x="1446" y="1262" on="0"/>
        <pt x="1438" y="1254" on="1"/>
        <pt x="1287" y="1237" on="0"/>
        <pt x="1210" y="1166" on="1"/>
        <pt x="930" y="910" on="0"/>
        <pt x="760" y="752" on="1"/>
        <pt x="742" y="734" on="0"/>
        <pt x="750" y="720" on="1"/>
        <pt x="829" y="593" on="0"/>
        <pt x="1010" y="330" on="0"/>
        <pt x="1085" y="217" on="0"/>
        <pt x="1173" y="124" on="0"/>
        <pt x="1231" y="82" on="0"/>
        <pt x="1261" y="71" on="1"/>
        <pt x="1296" y="58" on="0"/>
        <pt x="1320" y="58" on="1"/>
        <pt x="1328" y="39" on="0"/>
        <pt x="1310" y="-4" on="1"/>
        <pt x="1293" y="-5" on="0"/>
        <pt x="1272" y="-8" on="1"/>
        <pt x="1234" y="-12" on="0"/>
        <pt x="1180" y="-12" on="1"/>
        <pt x="1035" y="-12" on="0"/>
        <pt x="876" y="73" on="0"/>
        <pt x="802" y="184" on="1"/>
        <pt x="801" y="186" on="0"/>
        <pt x="534" y="604" on="1"/>
        <pt x="529" y="612" on="0"/>
        <pt x="505" y="612" on="0"/>
        <pt x="496" y="600" on="1"/>
        <pt x="436" y="290" on="1"/>
        <pt x="434" y="280" on="0"/>
        <pt x="425" y="231" on="0"/>
        <pt x="421" y="212" on="0"/>
        <pt x="415" y="174" on="0"/>
        <pt x="413" y="156" on="0"/>
        <pt x="412" y="142" on="1"/>
        <pt x="410" y="117" on="0"/>
        <pt x="414" y="102" on="1"/>
        <pt x="418" y="75" on="0"/>
        <pt x="526" y="66" on="1"/>
        <pt x="530" y="56" on="0"/>
        <pt x="520" y="1" on="0"/>
        <pt x="512" y="-8" on="1"/>
        <pt x="390" y="6" on="0"/>
        <pt x="112" y="6" on="0"/>
        <pt x="-18" y="-8" on="1"/>
        <pt x="-23" y="1" on="0"/>
        <pt x="-11" y="56" on="0"/>
        <pt x="-2" y="66" on="1"/>
        <pt x="110" y="75" on="0"/>
        <pt x="124" y="102" on="1"/>
        <pt x="147" y="143" on="0"/>
        <pt x="174" y="290" on="1"/>
        <pt x="318" y="1026" on="1"/>
        <pt x="320" y="1036" on="0"/>
        <pt x="329" y="1085" on="0"/>
        <pt x="333" y="1104" on="0"/>
        <pt x="339" y="1142" on="0"/>
        <pt x="341" y="1160" on="0"/>
        <pt x="342" y="1174" on="1"/>
        <pt x="344" y="1199" on="0"/>
        <pt x="340" y="1214" on="1"/>
        <pt x="336" y="1241" on="0"/>
        <pt x="228" y="1250" on="1"/>
        <pt x="224" y="1260" on="0"/>
        <pt x="234" y="1315" on="0"/>
        <pt x="242" y="1324" on="1"/>
        <pt x="364" y="1310" on="0"/>
        <pt x="640" y="1310" on="0"/>
        <pt x="770" y="1324" on="1"/>
        <pt x="775" y="1315" on="0"/>
        <pt x="765" y="1260" on="0"/>
        <pt x="756" y="1250" on="1"/>
        <pt x="644" y="1241" on="0"/>
        <pt x="630" y="1214" on="1"/>
        <pt x="604" y="1167" on="0"/>
        <pt x="578" y="1026" on="1"/>
        <pt x="510" y="674" on="1"/>
        <pt x="658" y="782" on="0"/>
        <pt x="762" y="877" on="0"/>
        <pt x="857" y="962" on="0"/>
        <pt x="893" y="995" on="0"/>
        <pt x="925" y="1025" on="1"/>
        <pt x="981" y="1078" on="0"/>
        <pt x="1063" y="1169" on="0"/>
        <pt x="1071" y="1221" on="0"/>
        <pt x="1050" y="1241" on="0"/>
        <pt x="1032" y="1245" on="1"/>
        <pt x="1000" y="1252" on="0"/>
        <pt x="972" y="1252" on="1"/>
        <pt x="968" y="1264" on="0"/>
        <pt x="974" y="1310" on="0"/>
      </contour>
    </TTGlyph>
    <TTGlyph name="Kcommaaccent" xMin="-18" yMin="-436" xMax="1454" yMax="1324">
      <component glyphName="uni0326" x="1156" y="0" flags="0x1004"/>
      <component glyphName="K" x="0" y="0" flags="0x1004"/>
    </TTGlyph>
    <TTGlyph name="L" xMin="-16" yMin="-6" xMax="1058" yMax="1324">
      <contour>
        <pt x="248" y="-4" on="1"/>
        <pt x="-16" y="-6" on="1"/>
        <pt x="-21" y="3" on="0"/>
        <pt x="-11" y="58" on="0"/>
        <pt x="-2" y="68" on="1"/>
        <pt x="111" y="77" on="0"/>
        <pt x="124" y="102" on="1"/>
        <pt x="147" y="143" on="0"/>
        <pt x="174" y="290" on="1"/>
        <pt x="318" y="1026" on="1"/>
        <pt x="320" y="1036" on="0"/>
        <pt x="329" y="1085" on="0"/>
        <pt x="333" y="1104" on="0"/>
        <pt x="339" y="1142" on="0"/>
        <pt x="341" y="1160" on="0"/>
        <pt x="342" y="1174" on="1"/>
        <pt x="344" y="1199" on="0"/>
        <pt x="340" y="1214" on="1"/>
        <pt x="336" y="1241" on="0"/>
        <pt x="228" y="1250" on="1"/>
        <pt x="224" y="1260" on="0"/>
        <pt x="234" y="1315" on="0"/>
        <pt x="242" y="1324" on="1"/>
        <pt x="364" y="1310" on="0"/>
        <pt x="640" y="1310" on="0"/>
        <pt x="770" y="1324" on="1"/>
        <pt x="775" y="1315" on="0"/>
        <pt x="765" y="1260" on="0"/>
        <pt x="756" y="1250" on="1"/>
        <pt x="644" y="1241" on="0"/>
        <pt x="630" y="1214" on="1"/>
        <pt x="604" y="1167" on="0"/>
        <pt x="578" y="1026" on="1"/>
        <pt x="434" y="282" on="1"/>
        <pt x="412" y="152" on="0"/>
        <pt x="417" y="128" on="1"/>
        <pt x="426" y="84" on="0"/>
        <pt x="530" y="84" on="1"/>
        <pt x="654" y="84" on="1"/>
        <pt x="765" y="84" on="0"/>
        <pt x="899" y="202" on="0"/>
        <pt x="976" y="340" on="1"/>
        <pt x="982" y="352" on="0"/>
        <pt x="1001" y="352" on="1"/>
        <pt x="1049" y="352" on="0"/>
        <pt x="1058" y="340" on="1"/>
        <pt x="1029" y="289" on="0"/>
        <pt x="978" y="186" on="1"/>
        <pt x="913" y="56" on="0"/>
        <pt x="892" y="-4" on="1"/>
      </contour>
    </TTGlyph>
    <TTGlyph name="Lacute" xMin="-16" yMin="-6" xMax="1058" yMax="1666">
      <component glyphName="acutecomb.cap" x="60" y="-32" flags="0x1004"/>
      <component glyphName="L" x="0" y="0" flags="0x1004"/>
    </TTGlyph>
    <TTGlyph name="Lcaron" xMin="-16" yMin="-6" xMax="1236" yMax="1390">
      <component glyphName="uni0315" x="754" y="28" flags="0x1004"/>
      <component glyphName="L" x="0" y="0" flags="0x1004"/>
    </TTGlyph>
    <TTGlyph name="Lcommaaccent" xMin="-16" yMin="-436" xMax="1058" yMax="1324">
      <component glyphName="uni0326" x="964" y="0" flags="0x1004"/>
      <component glyphName="L" x="0" y="0" flags="0x1004"/>
    </TTGlyph>
    <TTGlyph name="Ldot" xMin="-16" yMin="-6" xMax="1076" yMax="1324">
      <component glyphName="uni0307" x="1450" y="-460" flags="0x1004"/>
      <component glyphName="L" x="0" y="0" flags="0x1004"/>
    </TTGlyph>
    <TTGlyph name="Lslash" xMin="-14" yMin="-6" xMax="1060" yMax="1324">
      <component glyphName="L" x="2" y="0" flags="0x1004"/>
      <component glyphName="Lslash.ref1" x="0" y="0" flags="0x1004"/>
    </TTGlyph>
    <TTGlyph name="Lslash.ref1" xMin="102" yMin="356" xMax="872" yMax="900">
      <contour>
        <pt x="102" y="420" on="1"/>
        <pt x="848" y="900" on="1"/>
        <pt x="856" y="890" on="0"/>
        <pt x="877" y="836" on="0"/>
        <pt x="872" y="832" on="1"/>
        <pt x="126" y="356" on="1"/>
        <pt x="117" y="369" on="0"/>
        <pt x="97" y="416" on="0"/>
      </contour>
    </TTGlyph>
    <TTGlyph name="M" xMin="-55" yMin="-8" xMax="1749" yMax="1324">
      <contour>
        <pt x="283" y="1324" on="1"/>
        <pt x="483" y="1312" on="1"/>
        <pt x="679" y="1324" on="1"/>
        <pt x="727" y="1119" on="0"/>
        <pt x="867" y="476" on="1"/>
        <pt x="871" y="472" on="0"/>
        <pt x="874" y="472" on="0"/>
        <pt x="883" y="482" on="0"/>
        <pt x="1095" y="852" on="0"/>
        <pt x="1168" y="991" on="1"/>
        <pt x="1261" y="1168" on="0"/>
        <pt x="1309" y="1279" on="1"/>
        <pt x="1325" y="1316" on="1"/>
        <pt x="1373" y="1310" on="0"/>
        <pt x="1525" y="1310" on="1"/>
        <pt x="1745" y="1324" on="1"/>
        <pt x="1750" y="1319" on="0"/>
        <pt x="1747" y="1259" on="0"/>
        <pt x="1739" y="1248" on="1"/>
        <pt x="1723" y="1248" on="0"/>
        <pt x="1651" y="1235" on="0"/>
        <pt x="1635" y="1224" on="1"/>
        <pt x="1605" y="1205" on="0"/>
        <pt x="1592" y="1123" on="0"/>
        <pt x="1482" y="456" on="0"/>
        <pt x="1436" y="158" on="0"/>
        <pt x="1445" y="102" on="1"/>
        <pt x="1449" y="84" on="0"/>
        <pt x="1531" y="66" on="0"/>
        <pt x="1555" y="66" on="1"/>
        <pt x="1563" y="29" on="0"/>
        <pt x="1545" y="-8" on="1"/>
        <pt x="1295" y="8" on="1"/>
        <pt x="1287" y="8" on="0"/>
        <pt x="999" y="-8" on="1"/>
        <pt x="995" y="-2" on="0"/>
        <pt x="1005" y="53" on="0"/>
        <pt x="1011" y="66" on="1"/>
        <pt x="1039" y="66" on="0"/>
        <pt x="1133" y="86" on="0"/>
        <pt x="1169" y="133" on="0"/>
        <pt x="1179" y="183" on="0"/>
        <pt x="1182" y="204" on="1"/>
        <pt x="1190" y="252" on="0"/>
        <pt x="1197" y="296" on="1"/>
        <pt x="1315" y="994" on="1"/>
        <pt x="1324" y="1020" on="0"/>
        <pt x="1318" y="1046" on="0"/>
        <pt x="1309" y="1046" on="0"/>
        <pt x="1301" y="1032" on="1"/>
        <pt x="787" y="80" on="1"/>
        <pt x="775" y="59" on="0"/>
        <pt x="713" y="-4" on="0"/>
        <pt x="687" y="-4" on="0"/>
        <pt x="675" y="0" on="1"/>
        <pt x="463" y="1046" on="1"/>
        <pt x="418" y="849" on="0"/>
        <pt x="327" y="432" on="0"/>
        <pt x="304" y="335" on="1"/>
        <pt x="269" y="182" on="0"/>
        <pt x="269" y="130" on="1"/>
        <pt x="270" y="103" on="0"/>
        <pt x="393" y="66" on="0"/>
        <pt x="419" y="66" on="1"/>
        <pt x="425" y="28" on="0"/>
        <pt x="407" y="-8" on="1"/>
        <pt x="385" y="-7" on="0"/>
        <pt x="228" y="8" on="0"/>
        <pt x="133" y="8" on="0"/>
        <pt x="-23" y="-6" on="0"/>
        <pt x="-55" y="-8" on="1"/>
        <pt x="-63" y="21" on="0"/>
        <pt x="-43" y="64" on="1"/>
        <pt x="-12" y="64" on="0"/>
        <pt x="110" y="102" on="0"/>
        <pt x="129" y="136" on="1"/>
        <pt x="151" y="172" on="0"/>
        <pt x="210" y="416" on="0"/>
        <pt x="254" y="603" on="1"/>
        <pt x="375" y="1127" on="0"/>
        <pt x="387" y="1192" on="0"/>
        <pt x="374" y="1221" on="0"/>
        <pt x="295" y="1250" on="0"/>
        <pt x="269" y="1250" on="1"/>
        <pt x="264" y="1260" on="0"/>
        <pt x="278" y="1320" on="0"/>
      </contour>
    </TTGlyph>
    <TTGlyph name="N" xMin="-37" yMin="-10" xMax="1539" yMax="1326">
      <contour>
        <pt x="1301" y="1310" on="1"/>
        <pt x="1539" y="1326" on="1"/>
        <pt x="1541" y="1315" on="0"/>
        <pt x="1530" y="1263" on="0"/>
        <pt x="1519" y="1250" on="1"/>
        <pt x="1462" y="1250" on="0"/>
        <pt x="1368" y="1223" on="0"/>
        <pt x="1357" y="1204" on="1"/>
        <pt x="1347" y="1183" on="0"/>
        <pt x="1300" y="1013" on="0"/>
        <pt x="1289" y="958" on="1"/>
        <pt x="1157" y="278" on="1"/>
        <pt x="1142" y="196" on="0"/>
        <pt x="1111" y="-2" on="1"/>
        <pt x="1103" y="-10" on="0"/>
        <pt x="1063" y="-10" on="1"/>
        <pt x="1040" y="-10" on="0"/>
        <pt x="1015" y="36" on="1"/>
        <pt x="451" y="1038" on="1"/>
        <pt x="311" y="314" on="1"/>
        <pt x="285" y="177" on="0"/>
        <pt x="293" y="120" on="1"/>
        <pt x="297" y="96" on="0"/>
        <pt x="410" y="68" on="0"/>
        <pt x="437" y="68" on="1"/>
        <pt x="447" y="41" on="0"/>
        <pt x="425" y="-8" on="1"/>
        <pt x="404" y="-7" on="0"/>
        <pt x="240" y="8" on="0"/>
        <pt x="145" y="8" on="0"/>
        <pt x="-4" y="-6" on="0"/>
        <pt x="-37" y="-8" on="1"/>
        <pt x="-43" y="8" on="0"/>
        <pt x="-23" y="66" on="0"/>
        <pt x="-21" y="66" on="1"/>
        <pt x="8" y="66" on="0"/>
        <pt x="123" y="95" on="0"/>
        <pt x="151" y="141" on="0"/>
        <pt x="189" y="264" on="0"/>
        <pt x="208" y="369" on="1"/>
        <pt x="269" y="695" on="0"/>
        <pt x="337" y="1028" on="1"/>
        <pt x="352" y="1112" on="0"/>
        <pt x="350" y="1177" on="0"/>
        <pt x="337" y="1208" on="1"/>
        <pt x="329" y="1225" on="0"/>
        <pt x="246" y="1250" on="0"/>
        <pt x="223" y="1250" on="1"/>
        <pt x="212" y="1256" on="0"/>
        <pt x="227" y="1319" on="0"/>
        <pt x="233" y="1324" on="1"/>
        <pt x="249" y="1323" on="0"/>
        <pt x="288" y="1319" on="1"/>
        <pt x="377" y="1310" on="0"/>
        <pt x="538" y="1310" on="0"/>
        <pt x="647" y="1324" on="1"/>
        <pt x="673" y="1220" on="0"/>
        <pt x="813" y="972" on="1"/>
        <pt x="864" y="882" on="0"/>
        <pt x="1041" y="572" on="0"/>
        <pt x="1083" y="496" on="1"/>
        <pt x="1088" y="507" on="0"/>
        <pt x="1103" y="578" on="1"/>
        <pt x="1175" y="952" on="1"/>
        <pt x="1215" y="1170" on="0"/>
        <pt x="1205" y="1208" on="1"/>
        <pt x="1200" y="1231" on="0"/>
        <pt x="1098" y="1252" on="0"/>
        <pt x="1063" y="1252" on="1"/>
        <pt x="1059" y="1260" on="0"/>
        <pt x="1071" y="1318" on="0"/>
        <pt x="1077" y="1326" on="1"/>
        <pt x="1109" y="1324" on="0"/>
        <pt x="1253" y="1310" on="0"/>
      </contour>
    </TTGlyph>
    <TTGlyph name="Nacute" xMin="-37" yMin="-10" xMax="1539" yMax="1692">
      <component glyphName="acutecomb.cap" x="527" y="-6" flags="0x1004"/>
      <component glyphName="N" x="0" y="0" flags="0x1004"/>
    </TTGlyph>
    <TTGlyph name="Ncaron" xMin="-37" yMin="-10" xMax="1539" yMax="1734">
      <component glyphName="uni030C.cap" x="111" y="-6" flags="0x1004"/>
      <component glyphName="N" x="0" y="0" flags="0x1004"/>
    </TTGlyph>
    <TTGlyph name="Ncommaaccent" xMin="-37" yMin="-436" xMax="1539" yMax="1326">
      <component glyphName="uni0326" x="1103" y="0" flags="0x1004"/>
      <component glyphName="N" x="0" y="0" flags="0x1004"/>
    </TTGlyph>
    <TTGlyph name="Ntilde" xMin="-37" yMin="-10" xMax="1539" yMax="1640">
      <component glyphName="tildecomb.cap" x="183" y="0" flags="0x1004"/>
      <component glyphName="N" x="0" y="0" flags="0x1004"/>
    </TTGlyph>
    <TTGlyph name="O" xMin="98" yMin="-20" xMax="1358" yMax="1334">
      <contour>
        <pt x="952" y="1188" on="1"/>
        <pt x="891" y="1248" on="0"/>
        <pt x="724" y="1248" on="0"/>
        <pt x="586" y="1153" on="0"/>
        <pt x="489" y="998" on="0"/>
        <pt x="454" y="898" on="1"/>
        <pt x="386" y="705" on="0"/>
        <pt x="386" y="488" on="1"/>
        <pt x="386" y="307" on="0"/>
        <pt x="447" y="191" on="1"/>
        <pt x="513" y="66" on="0"/>
        <pt x="652" y="66" on="1"/>
        <pt x="749" y="66" on="0"/>
        <pt x="912" y="208" on="0"/>
        <pt x="963" y="320" on="1"/>
        <pt x="1070" y="555" on="0"/>
        <pt x="1070" y="820" on="1"/>
        <pt x="1070" y="1073" on="0"/>
      </contour>
      <contour>
        <pt x="538" y="1262" on="0"/>
        <pt x="748" y="1334" on="0"/>
        <pt x="966" y="1334" on="0"/>
        <pt x="1164" y="1236" on="0"/>
        <pt x="1226" y="1156" on="1"/>
        <pt x="1358" y="989" on="0"/>
        <pt x="1358" y="786" on="1"/>
        <pt x="1358" y="638" on="0"/>
        <pt x="1262" y="375" on="0"/>
        <pt x="1104" y="186" on="0"/>
        <pt x="1004" y="117" on="1"/>
        <pt x="805" y="-20" on="0"/>
        <pt x="590" y="-20" on="1"/>
        <pt x="453" y="-20" on="0"/>
        <pt x="226" y="129" on="0"/>
        <pt x="98" y="377" on="0"/>
        <pt x="98" y="666" on="0"/>
        <pt x="190" y="928" on="0"/>
        <pt x="344" y="1120" on="0"/>
      </contour>
    </TTGlyph>
    <TTGlyph name="OE" xMin="102" yMin="-20" xMax="1926" yMax="1334">
      <contour>
        <pt x="842" y="1248" on="1"/>
        <pt x="762" y="1248" on="0"/>
        <pt x="617" y="1154" on="0"/>
        <pt x="510" y="997" on="0"/>
        <pt x="470" y="898" on="1"/>
        <pt x="390" y="702" on="0"/>
        <pt x="390" y="488" on="1"/>
        <pt x="390" y="309" on="0"/>
        <pt x="450" y="191" on="1"/>
        <pt x="514" y="66" on="0"/>
        <pt x="648" y="66" on="1"/>
        <pt x="942" y="66" on="0"/>
        <pt x="984" y="278" on="1"/>
        <pt x="1070" y="720" on="0"/>
        <pt x="1114" y="944" on="1"/>
        <pt x="1143" y="1091" on="0"/>
        <pt x="1052" y="1178" on="1"/>
        <pt x="980" y="1248" on="0"/>
      </contour>
      <contour>
        <pt x="1274" y="1314" on="1"/>
        <pt x="1926" y="1328" on="1"/>
        <pt x="1924" y="1292" on="0"/>
        <pt x="1922" y="1220" on="1"/>
        <pt x="1922" y="1032" on="1"/>
        <pt x="1912" y="1022" on="0"/>
        <pt x="1853" y="1022" on="0"/>
        <pt x="1850" y="1038" on="1"/>
        <pt x="1824" y="1192" on="0"/>
        <pt x="1758" y="1225" on="1"/>
        <pt x="1729" y="1240" on="0"/>
        <pt x="1688" y="1240" on="1"/>
        <pt x="1534" y="1240" on="1"/>
        <pt x="1451" y="1240" on="0"/>
        <pt x="1436" y="1216" on="1"/>
        <pt x="1427" y="1200" on="0"/>
        <pt x="1419" y="1165" on="0"/>
        <pt x="1417" y="1156" on="1"/>
        <pt x="1414" y="1142" on="0"/>
        <pt x="1404" y="1094" on="1"/>
        <pt x="1334" y="736" on="1"/>
        <pt x="1330" y="714" on="0"/>
        <pt x="1410" y="714" on="1"/>
        <pt x="1508" y="714" on="1"/>
        <pt x="1590" y="714" on="0"/>
        <pt x="1661" y="766" on="0"/>
        <pt x="1700" y="854" on="1"/>
        <pt x="1706" y="870" on="0"/>
        <pt x="1751" y="870" on="0"/>
        <pt x="1758" y="860" on="1"/>
        <pt x="1684" y="476" on="1"/>
        <pt x="1676" y="468" on="0"/>
        <pt x="1626" y="468" on="0"/>
        <pt x="1626" y="484" on="1"/>
        <pt x="1622" y="587" on="0"/>
        <pt x="1556" y="620" on="0"/>
        <pt x="1311" y="620" on="0"/>
        <pt x="1306" y="592" on="1"/>
        <pt x="1246" y="282" on="1"/>
        <pt x="1224" y="152" on="0"/>
        <pt x="1229" y="128" on="1"/>
        <pt x="1238" y="84" on="0"/>
        <pt x="1342" y="84" on="1"/>
        <pt x="1466" y="84" on="1"/>
        <pt x="1577" y="84" on="0"/>
        <pt x="1711" y="202" on="0"/>
        <pt x="1788" y="340" on="1"/>
        <pt x="1794" y="352" on="0"/>
        <pt x="1813" y="352" on="1"/>
        <pt x="1861" y="352" on="0"/>
        <pt x="1870" y="340" on="1"/>
        <pt x="1841" y="289" on="0"/>
        <pt x="1790" y="186" on="1"/>
        <pt x="1725" y="56" on="0"/>
        <pt x="1704" y="-4" on="1"/>
        <pt x="1098" y="-4" on="1"/>
        <pt x="594" y="-20" on="1"/>
        <pt x="457" y="-20" on="0"/>
        <pt x="230" y="129" on="0"/>
        <pt x="102" y="377" on="0"/>
        <pt x="102" y="704" on="0"/>
        <pt x="226" y="1012" on="0"/>
        <pt x="439" y="1219" on="0"/>
        <pt x="725" y="1334" on="0"/>
        <pt x="992" y="1334" on="0"/>
        <pt x="1211" y="1314" on="0"/>
      </contour>
    </TTGlyph>
    <TTGlyph name="Oacute" xMin="98" yMin="-20" xMax="1358" yMax="1666">
      <component glyphName="acutecomb.cap" x="430" y="-32" flags="0x1004"/>
      <component glyphName="O" x="0" y="0" flags="0x1004"/>
    </TTGlyph>
    <TTGlyph name="Obreve" xMin="98" yMin="-20" xMax="1358" yMax="1698">
      <component glyphName="uni0306.cap" x="342" y="46" flags="0x1004"/>
      <component glyphName="O" x="0" y="0" flags="0x1004"/>
    </TTGlyph>
    <TTGlyph name="Ocircumflex" xMin="98" yMin="-20" xMax="1358" yMax="1740">
      <component glyphName="uni0302.cap" x="212" y="52" flags="0x1004"/>
      <component glyphName="O" x="0" y="0" flags="0x1004"/>
    </TTGlyph>
    <TTGlyph name="Odieresis" xMin="98" yMin="-20" xMax="1358" yMax="1734">
      <component glyphName="uni0308.cap" x="284" y="24" flags="0x1004"/>
      <component glyphName="O" x="0" y="0" flags="0x1004"/>
    </TTGlyph>
    <TTGlyph name="Ograve" xMin="98" yMin="-20" xMax="1358" yMax="1666">
      <component glyphName="gravecomb.cap" x="96" y="-32" flags="0x1004"/>
      <component glyphName="O" x="0" y="0" flags="0x1004"/>
    </TTGlyph>
    <TTGlyph name="Ohungarumlaut" xMin="98" yMin="-20" xMax="1411" yMax="1666">
      <component glyphName="uni030B.cap" x="302" y="-32" flags="0x1004"/>
      <component glyphName="O" x="0" y="0" flags="0x1004"/>
    </TTGlyph>
    <TTGlyph name="Omacron" xMin="98" yMin="-20" xMax="1358" yMax="1542">
      <component glyphName="uni0304.cap" x="294" y="342" flags="0x1004"/>
      <component glyphName="O" x="0" y="0" flags="0x1004"/>
    </TTGlyph>
    <TTGlyph name="Oslash" xMin="98" yMin="-26" xMax="1358" yMax="1338">
      <component glyphName="O" x="0" y="0" flags="0x1004"/>
      <component glyphName="Oslash.ref1" x="0" y="0" flags="0x1004"/>
    </TTGlyph>
    <TTGlyph name="Oslash.ref1" xMin="160" yMin="-26" xMax="1242" yMax="1338">
      <contour>
        <pt x="208" y="-26" on="1"/>
        <pt x="193" y="-20" on="0"/>
        <pt x="153" y="16" on="0"/>
        <pt x="160" y="24" on="1"/>
        <pt x="1192" y="1338" on="1"/>
        <pt x="1206" y="1334" on="0"/>
        <pt x="1249" y="1298" on="0"/>
        <pt x="1242" y="1290" on="1"/>
      </contour>
    </TTGlyph>
    <TTGlyph name="Otilde" xMin="98" yMin="-20" xMax="1358" yMax="1640">
      <component glyphName="tildecomb.cap" x="170" y="0" flags="0x1004"/>
      <component glyphName="O" x="0" y="0" flags="0x1004"/>
    </TTGlyph>
    <TTGlyph name="P" xMin="-18" yMin="-8" xMax="1146" yMax="1320">
      <contour>
        <pt x="506" y="1314" on="1"/>
        <pt x="794" y="1320" on="1"/>
        <pt x="969" y="1320" on="0"/>
        <pt x="1177" y="1090" on="0"/>
        <pt x="1146" y="930" on="1"/>
        <pt x="1129" y="844" on="0"/>
        <pt x="1028" y="703" on="0"/>
        <pt x="960" y="660" on="1"/>
        <pt x="817" y="572" on="0"/>
        <pt x="668" y="572" on="1"/>
        <pt x="616" y="572" on="0"/>
        <pt x="574" y="602" on="1"/>
        <pt x="568" y="606" on="0"/>
        <pt x="554" y="640" on="0"/>
        <pt x="554" y="647" on="1"/>
        <pt x="554" y="662" on="0"/>
        <pt x="564" y="662" on="1"/>
        <pt x="588" y="654" on="0"/>
        <pt x="624" y="654" on="1"/>
        <pt x="695" y="654" on="0"/>
        <pt x="845" y="805" on="0"/>
        <pt x="864" y="902" on="1"/>
        <pt x="890" y="1040" on="0"/>
        <pt x="812" y="1240" on="0"/>
        <pt x="639" y="1240" on="0"/>
        <pt x="624" y="1216" on="1"/>
        <pt x="615" y="1200" on="0"/>
        <pt x="607" y="1165" on="0"/>
        <pt x="605" y="1156" on="1"/>
        <pt x="602" y="1142" on="0"/>
        <pt x="592" y="1094" on="1"/>
        <pt x="436" y="290" on="1"/>
        <pt x="434" y="280" on="0"/>
        <pt x="425" y="231" on="0"/>
        <pt x="421" y="212" on="0"/>
        <pt x="415" y="174" on="0"/>
        <pt x="413" y="156" on="0"/>
        <pt x="412" y="142" on="1"/>
        <pt x="410" y="117" on="0"/>
        <pt x="414" y="102" on="1"/>
        <pt x="418" y="75" on="0"/>
        <pt x="526" y="66" on="1"/>
        <pt x="530" y="56" on="0"/>
        <pt x="520" y="1" on="0"/>
        <pt x="512" y="-8" on="1"/>
        <pt x="390" y="6" on="0"/>
        <pt x="112" y="6" on="0"/>
        <pt x="-18" y="-8" on="1"/>
        <pt x="-23" y="1" on="0"/>
        <pt x="-11" y="56" on="0"/>
        <pt x="-2" y="66" on="1"/>
        <pt x="110" y="75" on="0"/>
        <pt x="124" y="102" on="1"/>
        <pt x="147" y="143" on="0"/>
        <pt x="174" y="290" on="1"/>
        <pt x="318" y="1026" on="1"/>
        <pt x="320" y="1036" on="0"/>
        <pt x="329" y="1085" on="0"/>
        <pt x="333" y="1104" on="0"/>
        <pt x="339" y="1142" on="0"/>
        <pt x="341" y="1160" on="0"/>
        <pt x="342" y="1174" on="1"/>
        <pt x="344" y="1199" on="0"/>
        <pt x="340" y="1214" on="1"/>
        <pt x="336" y="1237" on="0"/>
        <pt x="226" y="1246" on="1"/>
        <pt x="222" y="1256" on="0"/>
        <pt x="234" y="1311" on="0"/>
        <pt x="242" y="1320" on="1"/>
        <pt x="324" y="1314" on="0"/>
      </contour>
    </TTGlyph>
    <TTGlyph name="Q" xMin="100" yMin="-280" xMax="1386" yMax="1334">
      <contour>
        <pt x="540" y="1262" on="0"/>
        <pt x="750" y="1334" on="0"/>
        <pt x="968" y="1334" on="0"/>
        <pt x="1166" y="1236" on="0"/>
        <pt x="1228" y="1156" on="1"/>
        <pt x="1360" y="989" on="0"/>
        <pt x="1360" y="786" on="1"/>
        <pt x="1360" y="439" on="0"/>
        <pt x="1116" y="206" on="1"/>
        <pt x="985" y="82" on="0"/>
        <pt x="812" y="20" on="1"/>
        <pt x="838" y="5" on="0"/>
        <pt x="957" y="-67" on="0"/>
        <pt x="1006" y="-93" on="0"/>
        <pt x="1053" y="-112" on="1"/>
        <pt x="1134" y="-146" on="0"/>
        <pt x="1299" y="-146" on="0"/>
        <pt x="1348" y="-132" on="1"/>
        <pt x="1373" y="-132" on="0"/>
        <pt x="1386" y="-152" on="1"/>
        <pt x="1352" y="-180" on="0"/>
        <pt x="1143" y="-280" on="0"/>
        <pt x="1010" y="-280" on="0"/>
        <pt x="891" y="-245" on="0"/>
        <pt x="778" y="-185" on="0"/>
        <pt x="725" y="-152" on="1"/>
        <pt x="570" y="-57" on="0"/>
        <pt x="468" y="-16" on="1"/>
        <pt x="295" y="56" on="0"/>
        <pt x="100" y="341" on="0"/>
        <pt x="100" y="666" on="0"/>
        <pt x="192" y="928" on="0"/>
        <pt x="346" y="1120" on="0"/>
      </contour>
      <contour>
        <pt x="954" y="1188" on="1"/>
        <pt x="893" y="1248" on="0"/>
        <pt x="726" y="1248" on="0"/>
        <pt x="588" y="1153" on="0"/>
        <pt x="491" y="998" on="0"/>
        <pt x="456" y="898" on="1"/>
        <pt x="388" y="705" on="0"/>
        <pt x="388" y="488" on="1"/>
        <pt x="388" y="307" on="0"/>
        <pt x="449" y="191" on="1"/>
        <pt x="515" y="66" on="0"/>
        <pt x="654" y="66" on="1"/>
        <pt x="751" y="66" on="0"/>
        <pt x="914" y="208" on="0"/>
        <pt x="965" y="320" on="1"/>
        <pt x="1072" y="555" on="0"/>
        <pt x="1072" y="820" on="1"/>
        <pt x="1072" y="1073" on="0"/>
      </contour>
    </TTGlyph>
    <TTGlyph name="R" xMin="-18" yMin="-12" xMax="1273" yMax="1320">
      <contour>
        <pt x="506" y="1314" on="1"/>
        <pt x="506" y="1314" on="0"/>
        <pt x="794" y="1320" on="1"/>
        <pt x="971" y="1320" on="0"/>
        <pt x="1157" y="1099" on="0"/>
        <pt x="1122" y="916" on="1"/>
        <pt x="1110" y="855" on="0"/>
        <pt x="1026" y="748" on="0"/>
        <pt x="972" y="714" on="1"/>
        <pt x="869" y="650" on="0"/>
        <pt x="792" y="632" on="1"/>
        <pt x="817" y="582" on="0"/>
        <pt x="883" y="447" on="0"/>
        <pt x="896" y="422" on="1"/>
        <pt x="1030" y="159" on="0"/>
        <pt x="1162" y="93" on="1"/>
        <pt x="1236" y="56" on="0"/>
        <pt x="1272" y="56" on="1"/>
        <pt x="1276" y="44" on="0"/>
        <pt x="1270" y="-3" on="0"/>
        <pt x="1268" y="-8" on="1"/>
        <pt x="1249" y="-9" on="0"/>
        <pt x="1232" y="-12" on="1"/>
        <pt x="1117" y="-29" on="0"/>
        <pt x="923" y="18" on="0"/>
        <pt x="844" y="59" on="0"/>
        <pt x="777" y="130" on="0"/>
        <pt x="756" y="167" on="0"/>
        <pt x="740" y="198" on="1"/>
        <pt x="550" y="568" on="1"/>
        <pt x="536" y="598" on="0"/>
        <pt x="522" y="598" on="1"/>
        <pt x="496" y="598" on="1"/>
        <pt x="436" y="290" on="1"/>
        <pt x="434" y="280" on="0"/>
        <pt x="425" y="231" on="0"/>
        <pt x="421" y="212" on="0"/>
        <pt x="415" y="174" on="0"/>
        <pt x="413" y="156" on="0"/>
        <pt x="412" y="142" on="1"/>
        <pt x="410" y="117" on="0"/>
        <pt x="414" y="102" on="1"/>
        <pt x="418" y="75" on="0"/>
        <pt x="526" y="66" on="1"/>
        <pt x="530" y="56" on="0"/>
        <pt x="520" y="1" on="0"/>
        <pt x="512" y="-8" on="1"/>
        <pt x="390" y="6" on="0"/>
        <pt x="112" y="6" on="0"/>
        <pt x="-18" y="-8" on="1"/>
        <pt x="-23" y="1" on="0"/>
        <pt x="-11" y="56" on="0"/>
        <pt x="-2" y="66" on="1"/>
        <pt x="110" y="75" on="0"/>
        <pt x="124" y="102" on="1"/>
        <pt x="147" y="143" on="0"/>
        <pt x="174" y="290" on="1"/>
        <pt x="318" y="1026" on="1"/>
        <pt x="320" y="1036" on="0"/>
        <pt x="329" y="1085" on="0"/>
        <pt x="333" y="1104" on="0"/>
        <pt x="339" y="1142" on="0"/>
        <pt x="341" y="1160" on="0"/>
        <pt x="342" y="1174" on="1"/>
        <pt x="344" y="1199" on="0"/>
        <pt x="340" y="1214" on="1"/>
        <pt x="336" y="1237" on="0"/>
        <pt x="226" y="1246" on="1"/>
        <pt x="222" y="1256" on="0"/>
        <pt x="234" y="1311" on="0"/>
        <pt x="242" y="1320" on="1"/>
        <pt x="324" y="1314" on="0"/>
      </contour>
      <contour>
        <pt x="510" y="676" on="1"/>
        <pt x="596" y="676" on="1"/>
        <pt x="680" y="676" on="0"/>
        <pt x="746" y="732" on="1"/>
        <pt x="850" y="819" on="0"/>
        <pt x="862" y="1011" on="1"/>
        <pt x="870" y="1149" on="0"/>
        <pt x="810" y="1207" on="1"/>
        <pt x="776" y="1240" on="0"/>
        <pt x="639" y="1240" on="0"/>
        <pt x="624" y="1216" on="1"/>
        <pt x="615" y="1200" on="0"/>
        <pt x="607" y="1165" on="0"/>
        <pt x="605" y="1156" on="1"/>
        <pt x="602" y="1142" on="0"/>
        <pt x="592" y="1094" on="1"/>
      </contour>
    </TTGlyph>
    <TTGlyph name="Racute" xMin="-18" yMin="-12" xMax="1273" yMax="1666">
      <component glyphName="acutecomb.cap" x="264" y="-32" flags="0x1004"/>
      <component glyphName="R" x="0" y="0" flags="0x1004"/>
    </TTGlyph>
    <TTGlyph name="Rcaron" xMin="-18" yMin="-12" xMax="1273" yMax="1734">
      <component glyphName="uni030C.cap" x="-62" y="-6" flags="0x1004"/>
      <component glyphName="R" x="0" y="0" flags="0x1004"/>
    </TTGlyph>
    <TTGlyph name="Rcommaaccent" xMin="-18" yMin="-436" xMax="1273" yMax="1320">
      <component glyphName="uni0326" x="1022" y="0" flags="0x1004"/>
      <component glyphName="R" x="0" y="0" flags="0x1004"/>
    </TTGlyph>
    <TTGlyph name="S" xMin="44" yMin="-20" xMax="966" yMax="1340">
      <contour>
        <pt x="753" y="1340" on="0"/>
        <pt x="944" y="1289" on="0"/>
        <pt x="966" y="1284" on="1"/>
        <pt x="950" y="1139" on="0"/>
        <pt x="922" y="952" on="1"/>
        <pt x="910" y="940" on="0"/>
        <pt x="846" y="940" on="0"/>
        <pt x="846" y="954" on="1"/>
        <pt x="853" y="1106" on="0"/>
        <pt x="770" y="1202" on="1"/>
        <pt x="723" y="1256" on="0"/>
        <pt x="592" y="1256" on="0"/>
        <pt x="482" y="1174" on="0"/>
        <pt x="464" y="1082" on="1"/>
        <pt x="441" y="963" on="0"/>
        <pt x="610" y="816" on="1"/>
        <pt x="633" y="795" on="0"/>
        <pt x="756" y="692" on="0"/>
        <pt x="773" y="676" on="1"/>
        <pt x="904" y="547" on="0"/>
        <pt x="866" y="350" on="1"/>
        <pt x="846" y="244" on="0"/>
        <pt x="694" y="71" on="0"/>
        <pt x="491" y="-20" on="0"/>
        <pt x="241" y="-20" on="0"/>
        <pt x="44" y="32" on="1"/>
        <pt x="43" y="92" on="0"/>
        <pt x="59" y="323" on="0"/>
        <pt x="66" y="372" on="1"/>
        <pt x="73" y="380" on="0"/>
        <pt x="118" y="400" on="0"/>
        <pt x="126" y="400" on="1"/>
        <pt x="146" y="400" on="0"/>
        <pt x="146" y="384" on="1"/>
        <pt x="142" y="292" on="0"/>
        <pt x="201" y="184" on="1"/>
        <pt x="229" y="133" on="0"/>
        <pt x="327" y="64" on="0"/>
        <pt x="464" y="64" on="0"/>
        <pt x="584" y="158" on="0"/>
        <pt x="604" y="258" on="1"/>
        <pt x="628" y="383" on="0"/>
        <pt x="471" y="517" on="1"/>
        <pt x="450" y="535" on="0"/>
        <pt x="424" y="556" on="1"/>
        <pt x="301" y="661" on="0"/>
        <pt x="270" y="696" on="1"/>
        <pt x="166" y="814" on="0"/>
        <pt x="198" y="978" on="1"/>
        <pt x="217" y="1077" on="0"/>
        <pt x="368" y="1247" on="0"/>
        <pt x="568" y="1340" on="0"/>
      </contour>
    </TTGlyph>
    <TTGlyph name="Sacute" xMin="44" yMin="-20" xMax="1055" yMax="1698">
      <component glyphName="acutecomb.cap" x="326" y="0" flags="0x1004"/>
      <component glyphName="S" x="0" y="0" flags="0x1004"/>
    </TTGlyph>
    <TTGlyph name="Scaron" xMin="44" yMin="-20" xMax="988" yMax="1740">
      <component glyphName="uni030C.cap" x="-90" y="0" flags="0x1004"/>
      <component glyphName="S" x="0" y="0" flags="0x1004"/>
    </TTGlyph>
    <TTGlyph name="Scedilla" xMin="44" yMin="-348" xMax="966" yMax="1340">
      <component glyphName="uni0327.cap" x="16" y="-4" flags="0x1004"/>
      <component glyphName="S" x="0" y="0" flags="0x1004"/>
    </TTGlyph>
    <TTGlyph name="Scircumflex" xMin="44" yMin="-20" xMax="966" yMax="1740">
      <component glyphName="uni0302.cap" x="68" y="52" flags="0x1004"/>
      <component glyphName="S" x="0" y="0" flags="0x1004"/>
    </TTGlyph>
    <TTGlyph name="T" xMin="108" yMin="-8" xMax="1278" yMax="1352">
      <contour>
        <pt x="438" y="1314" on="1"/>
        <pt x="1056" y="1314" on="1"/>
        <pt x="1153" y="1314" on="0"/>
        <pt x="1245" y="1352" on="0"/>
        <pt x="1269" y="1352" on="0"/>
        <pt x="1278" y="1346" on="1"/>
        <pt x="1256" y="978" on="1"/>
        <pt x="1252" y="974" on="0"/>
        <pt x="1212" y="964" on="0"/>
        <pt x="1184" y="964" on="0"/>
        <pt x="1184" y="974" on="1"/>
        <pt x="1189" y="1074" on="0"/>
        <pt x="1103" y="1226" on="0"/>
        <pt x="1034" y="1226" on="1"/>
        <pt x="860" y="1226" on="1"/>
        <pt x="678" y="290" on="1"/>
        <pt x="676" y="280" on="0"/>
        <pt x="667" y="231" on="0"/>
        <pt x="663" y="212" on="0"/>
        <pt x="657" y="174" on="0"/>
        <pt x="655" y="156" on="0"/>
        <pt x="654" y="142" on="1"/>
        <pt x="652" y="117" on="0"/>
        <pt x="656" y="102" on="1"/>
        <pt x="660" y="75" on="0"/>
        <pt x="768" y="66" on="1"/>
        <pt x="772" y="56" on="0"/>
        <pt x="762" y="1" on="0"/>
        <pt x="754" y="-8" on="1"/>
        <pt x="632" y="6" on="0"/>
        <pt x="356" y="6" on="0"/>
        <pt x="226" y="-8" on="1"/>
        <pt x="221" y="1" on="0"/>
        <pt x="231" y="56" on="0"/>
        <pt x="240" y="66" on="1"/>
        <pt x="352" y="75" on="0"/>
        <pt x="366" y="102" on="1"/>
        <pt x="392" y="149" on="0"/>
        <pt x="418" y="290" on="1"/>
        <pt x="600" y="1226" on="1"/>
        <pt x="426" y="1226" on="1"/>
        <pt x="357" y="1226" on="0"/>
        <pt x="212" y="1074" on="0"/>
        <pt x="178" y="974" on="1"/>
        <pt x="173" y="964" on="0"/>
        <pt x="146" y="964" on="0"/>
        <pt x="111" y="974" on="0"/>
        <pt x="108" y="978" on="1"/>
        <pt x="228" y="1346" on="1"/>
        <pt x="240" y="1352" on="0"/>
        <pt x="263" y="1352" on="0"/>
        <pt x="282" y="1342" on="1"/>
        <pt x="341" y="1314" on="0"/>
      </contour>
    </TTGlyph>
    <TTGlyph name="T_h" xMin="108" yMin="-16" xMax="2000" yMax="1402">
      <contour>
        <pt x="1644" y="636" on="1"/>
        <pt x="1644" y="678" on="0"/>
        <pt x="1583" y="678" on="0"/>
        <pt x="1477" y="539" on="0"/>
        <pt x="1368" y="302" on="0"/>
        <pt x="1342" y="182" on="1"/>
        <pt x="1302" y="0" on="1"/>
        <pt x="1262" y="-12" on="0"/>
        <pt x="1120" y="-12" on="0"/>
        <pt x="1072" y="0" on="1"/>
        <pt x="1278" y="1066" on="1"/>
        <pt x="1294" y="1145" on="0"/>
        <pt x="1230" y="1226" on="0"/>
        <pt x="1170" y="1226" on="1"/>
        <pt x="860" y="1226" on="1"/>
        <pt x="678" y="290" on="1"/>
        <pt x="676" y="280" on="0"/>
        <pt x="667" y="231" on="0"/>
        <pt x="663" y="212" on="0"/>
        <pt x="657" y="174" on="0"/>
        <pt x="655" y="156" on="0"/>
        <pt x="654" y="142" on="1"/>
        <pt x="652" y="117" on="0"/>
        <pt x="656" y="102" on="1"/>
        <pt x="660" y="75" on="0"/>
        <pt x="768" y="66" on="1"/>
        <pt x="772" y="56" on="0"/>
        <pt x="762" y="1" on="0"/>
        <pt x="754" y="-8" on="1"/>
        <pt x="632" y="6" on="0"/>
        <pt x="356" y="6" on="0"/>
        <pt x="226" y="-8" on="1"/>
        <pt x="221" y="1" on="0"/>
        <pt x="231" y="56" on="0"/>
        <pt x="240" y="66" on="1"/>
        <pt x="352" y="75" on="0"/>
        <pt x="366" y="102" on="1"/>
        <pt x="392" y="149" on="0"/>
        <pt x="418" y="290" on="1"/>
        <pt x="600" y="1226" on="1"/>
        <pt x="426" y="1226" on="1"/>
        <pt x="357" y="1226" on="0"/>
        <pt x="212" y="1074" on="0"/>
        <pt x="178" y="974" on="1"/>
        <pt x="173" y="964" on="0"/>
        <pt x="146" y="964" on="0"/>
        <pt x="111" y="974" on="0"/>
        <pt x="108" y="978" on="1"/>
        <pt x="228" y="1346" on="1"/>
        <pt x="240" y="1352" on="0"/>
        <pt x="263" y="1352" on="0"/>
        <pt x="282" y="1342" on="1"/>
        <pt x="341" y="1314" on="0"/>
        <pt x="438" y="1314" on="1"/>
        <pt x="728" y="1314" on="1"/>
        <pt x="1214" y="1314" on="0"/>
        <pt x="1412" y="1352" on="1"/>
        <pt x="1511" y="1371" on="0"/>
        <pt x="1590" y="1402" on="1"/>
        <pt x="1602" y="1395" on="0"/>
        <pt x="1602" y="1356" on="0"/>
        <pt x="1539" y="1218" on="0"/>
        <pt x="1536" y="1204" on="1"/>
        <pt x="1426" y="646" on="0"/>
        <pt x="1422" y="628" on="1"/>
        <pt x="1406" y="548" on="1"/>
        <pt x="1437" y="617" on="0"/>
        <pt x="1557" y="779" on="0"/>
        <pt x="1697" y="898" on="0"/>
        <pt x="1744" y="898" on="1"/>
        <pt x="1825" y="898" on="0"/>
        <pt x="1888" y="814" on="0"/>
        <pt x="1888" y="674" on="0"/>
        <pt x="1848" y="466" on="1"/>
        <pt x="1810" y="264" on="1"/>
        <pt x="1802" y="232" on="0"/>
        <pt x="1802" y="156" on="0"/>
        <pt x="1858" y="156" on="0"/>
        <pt x="1963" y="260" on="0"/>
        <pt x="1972" y="278" on="1"/>
        <pt x="1981" y="278" on="0"/>
        <pt x="2000" y="236" on="0"/>
        <pt x="2000" y="224" on="1"/>
        <pt x="1981" y="189" on="0"/>
        <pt x="1875" y="79" on="0"/>
        <pt x="1732" y="-16" on="0"/>
        <pt x="1628" y="-16" on="0"/>
        <pt x="1556" y="54" on="0"/>
        <pt x="1556" y="174" on="0"/>
        <pt x="1574" y="246" on="1"/>
        <pt x="1620" y="484" on="1"/>
        <pt x="1625" y="504" on="0"/>
        <pt x="1644" y="622" on="0"/>
      </contour>
    </TTGlyph>
    <TTGlyph name="Tbar" xMin="108" yMin="-8" xMax="1278" yMax="1352">
      <component glyphName="T" x="0" y="0" flags="0x1004"/>
      <component glyphName="Tbar.ref1" x="0" y="0" flags="0x1004"/>
    </TTGlyph>
    <TTGlyph name="Tbar.ref1" xMin="283" yMin="608" xMax="971" yMax="686">
      <contour>
        <pt x="302" y="686" on="1"/>
        <pt x="962" y="686" on="1"/>
        <pt x="977" y="686" on="0"/>
        <pt x="963" y="627" on="0"/>
        <pt x="950" y="608" on="1"/>
        <pt x="288" y="608" on="1"/>
        <pt x="276" y="608" on="0"/>
        <pt x="291" y="675" on="0"/>
      </contour>
    </TTGlyph>
    <TTGlyph name="Tcaron" xMin="108" yMin="-8" xMax="1278" yMax="1752">
      <component glyphName="uni030C.cap" x="0" y="12" flags="0x1004"/>
      <component glyphName="T" x="0" y="0" flags="0x1004"/>
    </TTGlyph>
    <TTGlyph name="Tcommaaccent" xMin="106" yMin="-328" xMax="1276" yMax="1352">
      <component glyphName="uni0327.cap" x="124" y="16" flags="0x1004"/>
      <component glyphName="T" x="-2" y="0" flags="0x1004"/>
    </TTGlyph>
    <TTGlyph name="Thorn" xMin="-18" yMin="-8" xMax="1088" yMax="1328">
      <contour>
        <pt x="586" y="1018" on="1"/>
        <pt x="626" y="1026" on="0"/>
        <pt x="728" y="1026" on="1"/>
        <pt x="907" y="1026" on="0"/>
        <pt x="1119" y="794" on="0"/>
        <pt x="1088" y="634" on="1"/>
        <pt x="1071" y="548" on="0"/>
        <pt x="970" y="405" on="0"/>
        <pt x="902" y="361" on="1"/>
        <pt x="761" y="270" on="0"/>
        <pt x="610" y="270" on="1"/>
        <pt x="535" y="270" on="0"/>
        <pt x="508" y="308" on="1"/>
        <pt x="498" y="321" on="0"/>
        <pt x="498" y="366" on="0"/>
        <pt x="506" y="366" on="1"/>
        <pt x="530" y="358" on="0"/>
        <pt x="566" y="358" on="1"/>
        <pt x="637" y="358" on="0"/>
        <pt x="787" y="509" on="0"/>
        <pt x="806" y="606" on="1"/>
        <pt x="832" y="744" on="0"/>
        <pt x="754" y="944" on="0"/>
        <pt x="673" y="944" on="1"/>
        <pt x="576" y="944" on="0"/>
        <pt x="556" y="888" on="1"/>
        <pt x="554" y="883" on="0"/>
        <pt x="551" y="876" on="0"/>
        <pt x="548" y="861" on="0"/>
        <pt x="546" y="853" on="0"/>
        <pt x="544" y="844" on="1"/>
        <pt x="536" y="808" on="0"/>
        <pt x="534" y="798" on="1"/>
        <pt x="436" y="290" on="1"/>
        <pt x="434" y="280" on="0"/>
        <pt x="425" y="231" on="0"/>
        <pt x="421" y="212" on="0"/>
        <pt x="415" y="174" on="0"/>
        <pt x="413" y="156" on="0"/>
        <pt x="412" y="142" on="1"/>
        <pt x="410" y="117" on="0"/>
        <pt x="414" y="102" on="1"/>
        <pt x="418" y="75" on="0"/>
        <pt x="526" y="66" on="1"/>
        <pt x="530" y="56" on="0"/>
        <pt x="520" y="1" on="0"/>
        <pt x="512" y="-8" on="1"/>
        <pt x="390" y="6" on="0"/>
        <pt x="112" y="6" on="0"/>
        <pt x="-18" y="-8" on="1"/>
        <pt x="-23" y="1" on="0"/>
        <pt x="-11" y="56" on="0"/>
        <pt x="-2" y="66" on="1"/>
        <pt x="110" y="75" on="0"/>
        <pt x="124" y="102" on="1"/>
        <pt x="147" y="143" on="0"/>
        <pt x="174" y="290" on="1"/>
        <pt x="318" y="1026" on="1"/>
        <pt x="320" y="1036" on="0"/>
        <pt x="329" y="1085" on="0"/>
        <pt x="333" y="1104" on="0"/>
        <pt x="339" y="1142" on="0"/>
        <pt x="341" y="1160" on="0"/>
        <pt x="342" y="1174" on="1"/>
        <pt x="344" y="1199" on="0"/>
        <pt x="340" y="1214" on="1"/>
        <pt x="336" y="1237" on="0"/>
        <pt x="226" y="1246" on="1"/>
        <pt x="222" y="1256" on="0"/>
        <pt x="234" y="1311" on="0"/>
        <pt x="242" y="1320" on="1"/>
        <pt x="324" y="1314" on="0"/>
        <pt x="640" y="1314" on="0"/>
        <pt x="770" y="1328" on="1"/>
        <pt x="775" y="1319" on="0"/>
        <pt x="765" y="1264" on="0"/>
        <pt x="756" y="1254" on="1"/>
        <pt x="644" y="1245" on="0"/>
        <pt x="630" y="1218" on="1"/>
        <pt x="606" y="1175" on="0"/>
        <pt x="582" y="1040" on="1"/>
        <pt x="582" y="1018" on="0"/>
      </contour>
    </TTGlyph>
    <TTGlyph name="ThreeDots.a" xMin="-259" yMin="-8" xMax="215" yMax="553">
      <contour>
        <pt x="-164" y="543" on="1"/>
        <pt x="-154" y="560" on="0"/>
        <pt x="-130" y="553" on="1"/>
        <pt x="-42" y="523" on="0"/>
        <pt x="31" y="465" on="1"/>
        <pt x="50" y="448" on="0"/>
        <pt x="41" y="428" on="1"/>
        <pt x="-38" y="273" on="1"/>
        <pt x="-51" y="252" on="0"/>
        <pt x="-97" y="285" on="0"/>
        <pt x="-233" y="361" on="1"/>
        <pt x="-256" y="374" on="0"/>
        <pt x="-244" y="394" on="1"/>
      </contour>
      <contour>
        <pt x="9" y="314" on="1"/>
        <pt x="19" y="331" on="0"/>
        <pt x="43" y="324" on="1"/>
        <pt x="131" y="294" on="0"/>
        <pt x="204" y="236" on="1"/>
        <pt x="223" y="219" on="0"/>
        <pt x="215" y="199" on="1"/>
        <pt x="136" y="44" on="1"/>
        <pt x="123" y="22" on="0"/>
        <pt x="80" y="53" on="0"/>
        <pt x="0" y="99" on="1"/>
        <pt x="-52" y="-3" on="1"/>
        <pt x="-65" y="-24" on="0"/>
        <pt x="-111" y="9" on="0"/>
        <pt x="-247" y="85" on="1"/>
        <pt x="-270" y="98" on="0"/>
        <pt x="-259" y="119" on="1"/>
        <pt x="-178" y="267" on="1"/>
        <pt x="-158" y="301" on="0"/>
        <pt x="-38" y="228" on="1"/>
      </contour>
    </TTGlyph>
    <TTGlyph name="ThreeDots.b" xMin="-225" yMin="-268" xMax="249" yMax="293">
      <component glyphName="ThreeDots.a" x="34" y="-260" flags="0x1004"/>
    </TTGlyph>
    <TTGlyph name="ThreeDots.b.l" xMin="-225" yMin="-268" xMax="249" yMax="293">
      <component glyphName="ThreeDots.a" x="34" y="-260" flags="0x1004"/>
    </TTGlyph>
    <TTGlyph name="TwoDots.a" xMin="-271" yMin="-7" xMax="223" yMax="324">
      <contour>
        <pt x="17" y="314" on="1"/>
        <pt x="27" y="331" on="0"/>
        <pt x="51" y="324" on="1"/>
        <pt x="139" y="294" on="0"/>
        <pt x="212" y="236" on="1"/>
        <pt x="231" y="219" on="0"/>
        <pt x="223" y="199" on="1"/>
        <pt x="144" y="44" on="1"/>
        <pt x="130" y="23" on="0"/>
        <pt x="87" y="54" on="0"/>
        <pt x="-8" y="108" on="1"/>
        <pt x="-64" y="-2" on="1"/>
        <pt x="-77" y="-23" on="0"/>
        <pt x="-123" y="10" on="0"/>
        <pt x="-260" y="86" on="1"/>
        <pt x="-282" y="99" on="0"/>
        <pt x="-271" y="120" on="1"/>
        <pt x="-190" y="268" on="1"/>
        <pt x="-180" y="285" on="0"/>
        <pt x="-156" y="278" on="1"/>
        <pt x="-91" y="256" on="0"/>
        <pt x="-35" y="219" on="1"/>
      </contour>
    </TTGlyph>
    <TTGlyph name="TwoDots.b" xMin="-261" yMin="-54" xMax="233" yMax="277">
      <component glyphName="TwoDots.a" x="10" y="-47" flags="0x1004"/>
    </TTGlyph>
    <TTGlyph name="TwoDots.b.l" xMin="-261" yMin="-54" xMax="233" yMax="277">
      <component glyphName="TwoDots.a" x="10" y="-47" flags="0x1004"/>
    </TTGlyph>
    <TTGlyph name="U" xMin="191" yMin="-18" xMax="1515" yMax="1324">
      <contour>
        <pt x="1295" y="1310" on="1"/>
        <pt x="1515" y="1324" on="1"/>
        <pt x="1520" y="1315" on="0"/>
        <pt x="1510" y="1260" on="0"/>
        <pt x="1501" y="1250" on="1"/>
        <pt x="1370" y="1239" on="0"/>
        <pt x="1351" y="1206" on="1"/>
        <pt x="1306" y="1127" on="0"/>
        <pt x="1275" y="960" on="1"/>
        <pt x="1199" y="572" on="1"/>
        <pt x="1170" y="424" on="0"/>
        <pt x="1042" y="193" on="0"/>
        <pt x="957" y="123" on="1"/>
        <pt x="786" y="-18" on="0"/>
        <pt x="575" y="-18" on="1"/>
        <pt x="454" y="-18" on="0"/>
        <pt x="265" y="71" on="0"/>
        <pt x="217" y="158" on="1"/>
        <pt x="140" y="297" on="0"/>
        <pt x="199" y="602" on="1"/>
        <pt x="281" y="1026" on="1"/>
        <pt x="283" y="1036" on="0"/>
        <pt x="292" y="1085" on="0"/>
        <pt x="296" y="1104" on="0"/>
        <pt x="302" y="1142" on="0"/>
        <pt x="304" y="1160" on="0"/>
        <pt x="305" y="1174" on="1"/>
        <pt x="307" y="1199" on="0"/>
        <pt x="303" y="1214" on="1"/>
        <pt x="299" y="1241" on="0"/>
        <pt x="191" y="1250" on="1"/>
        <pt x="187" y="1260" on="0"/>
        <pt x="197" y="1315" on="0"/>
        <pt x="205" y="1324" on="1"/>
        <pt x="328" y="1310" on="0"/>
        <pt x="604" y="1310" on="0"/>
        <pt x="733" y="1324" on="1"/>
        <pt x="738" y="1315" on="0"/>
        <pt x="728" y="1260" on="0"/>
        <pt x="719" y="1250" on="1"/>
        <pt x="607" y="1241" on="0"/>
        <pt x="593" y="1214" on="1"/>
        <pt x="567" y="1167" on="0"/>
        <pt x="541" y="1026" on="1"/>
        <pt x="471" y="660" on="1"/>
        <pt x="437" y="474" on="0"/>
        <pt x="443" y="356" on="0"/>
        <pt x="451" y="318" on="1"/>
        <pt x="490" y="126" on="0"/>
        <pt x="697" y="126" on="1"/>
        <pt x="816" y="126" on="0"/>
        <pt x="924" y="240" on="1"/>
        <pt x="1042" y="363" on="0"/>
        <pt x="1093" y="618" on="1"/>
        <pt x="1159" y="958" on="1"/>
        <pt x="1193" y="1141" on="0"/>
        <pt x="1181" y="1202" on="1"/>
        <pt x="1173" y="1240" on="0"/>
        <pt x="1051" y="1250" on="1"/>
        <pt x="1047" y="1260" on="0"/>
        <pt x="1057" y="1315" on="0"/>
        <pt x="1065" y="1324" on="1"/>
        <pt x="1216" y="1310" on="0"/>
      </contour>
    </TTGlyph>
    <TTGlyph name="Uacute" xMin="191" yMin="-18" xMax="1515" yMax="1666">
      <component glyphName="acutecomb.cap" x="541" y="-32" flags="0x1004"/>
      <component glyphName="U" x="0" y="0" flags="0x1004"/>
    </TTGlyph>
    <TTGlyph name="Ubreve" xMin="191" yMin="-18" xMax="1515" yMax="1698">
      <component glyphName="uni0306.cap" x="389" y="46" flags="0x1004"/>
      <component glyphName="U" x="0" y="0" flags="0x1004"/>
    </TTGlyph>
    <TTGlyph name="Ucircumflex" xMin="191" yMin="-18" xMax="1515" yMax="1740">
      <component glyphName="uni0302.cap" x="285" y="52" flags="0x1004"/>
      <component glyphName="U" x="0" y="0" flags="0x1004"/>
    </TTGlyph>
    <TTGlyph name="Udieresis" xMin="191" yMin="-18" xMax="1515" yMax="1734">
      <component glyphName="uni0308.cap" x="337" y="24" flags="0x1004"/>
      <component glyphName="U" x="0" y="0" flags="0x1004"/>
    </TTGlyph>
    <TTGlyph name="Ugrave" xMin="191" yMin="-18" xMax="1515" yMax="1666">
      <component glyphName="gravecomb.cap" x="203" y="-32" flags="0x1004"/>
      <component glyphName="U" x="0" y="0" flags="0x1004"/>
    </TTGlyph>
    <TTGlyph name="Uhungarumlaut" xMin="191" yMin="-18" xMax="1515" yMax="1666">
      <component glyphName="uni030B.cap" x="357" y="-32" flags="0x1004"/>
      <component glyphName="U" x="0" y="0" flags="0x1004"/>
    </TTGlyph>
    <TTGlyph name="Umacron" xMin="191" yMin="-18" xMax="1515" yMax="1542">
      <component glyphName="uni0304.cap" x="309" y="342" flags="0x1004"/>
      <component glyphName="U" x="0" y="0" flags="0x1004"/>
    </TTGlyph>
    <TTGlyph name="Uogonek" xMin="191" yMin="-436" xMax="1515" yMax="1324">
      <contour>
        <pt x="1295" y="1310" on="1"/>
        <pt x="1515" y="1324" on="1"/>
        <pt x="1520" y="1315" on="0"/>
        <pt x="1510" y="1260" on="0"/>
        <pt x="1501" y="1250" on="1"/>
        <pt x="1370" y="1239" on="0"/>
        <pt x="1351" y="1206" on="1"/>
        <pt x="1306" y="1127" on="0"/>
        <pt x="1275" y="960" on="1"/>
        <pt x="1199" y="572" on="1"/>
        <pt x="1128" y="217" on="0"/>
        <pt x="877" y="66" on="1"/>
        <pt x="791" y="14" on="0"/>
        <pt x="629" y="-172" on="0"/>
        <pt x="629" y="-244" on="1"/>
        <pt x="629" y="-280" on="0"/>
        <pt x="663" y="-312" on="0"/>
        <pt x="730" y="-312" on="0"/>
        <pt x="786" y="-291" on="0"/>
        <pt x="816" y="-269" on="0"/>
        <pt x="848" y="-240" on="0"/>
        <pt x="858" y="-243" on="0"/>
        <pt x="859" y="-287" on="0"/>
        <pt x="855" y="-292" on="1"/>
        <pt x="820" y="-352" on="0"/>
        <pt x="689" y="-436" on="0"/>
        <pt x="572" y="-436" on="0"/>
        <pt x="507" y="-364" on="0"/>
        <pt x="507" y="-290" on="0"/>
        <pt x="527" y="-227" on="0"/>
        <pt x="547" y="-183" on="0"/>
        <pt x="600" y="-115" on="0"/>
        <pt x="623" y="-88" on="0"/>
        <pt x="693" y="-13" on="0"/>
        <pt x="699" y="-6" on="1"/>
        <pt x="639" y="-18" on="0"/>
        <pt x="454" y="-18" on="0"/>
        <pt x="265" y="71" on="0"/>
        <pt x="217" y="158" on="1"/>
        <pt x="140" y="297" on="0"/>
        <pt x="199" y="602" on="1"/>
        <pt x="281" y="1026" on="1"/>
        <pt x="283" y="1036" on="0"/>
        <pt x="292" y="1085" on="0"/>
        <pt x="296" y="1104" on="0"/>
        <pt x="302" y="1142" on="0"/>
        <pt x="304" y="1160" on="0"/>
        <pt x="305" y="1174" on="1"/>
        <pt x="307" y="1199" on="0"/>
        <pt x="303" y="1214" on="1"/>
        <pt x="299" y="1241" on="0"/>
        <pt x="191" y="1250" on="1"/>
        <pt x="187" y="1260" on="0"/>
        <pt x="197" y="1315" on="0"/>
        <pt x="205" y="1324" on="1"/>
        <pt x="328" y="1310" on="0"/>
        <pt x="604" y="1310" on="0"/>
        <pt x="733" y="1324" on="1"/>
        <pt x="738" y="1315" on="0"/>
        <pt x="728" y="1260" on="0"/>
        <pt x="719" y="1250" on="1"/>
        <pt x="607" y="1241" on="0"/>
        <pt x="593" y="1214" on="1"/>
        <pt x="567" y="1167" on="0"/>
        <pt x="541" y="1026" on="1"/>
        <pt x="471" y="660" on="1"/>
        <pt x="437" y="474" on="0"/>
        <pt x="443" y="356" on="0"/>
        <pt x="451" y="318" on="1"/>
        <pt x="490" y="126" on="0"/>
        <pt x="697" y="126" on="1"/>
        <pt x="816" y="126" on="0"/>
        <pt x="924" y="240" on="1"/>
        <pt x="1042" y="363" on="0"/>
        <pt x="1093" y="618" on="1"/>
        <pt x="1159" y="958" on="1"/>
        <pt x="1193" y="1141" on="0"/>
        <pt x="1181" y="1202" on="1"/>
        <pt x="1173" y="1240" on="0"/>
        <pt x="1051" y="1250" on="1"/>
        <pt x="1047" y="1260" on="0"/>
        <pt x="1057" y="1315" on="0"/>
        <pt x="1065" y="1324" on="1"/>
        <pt x="1216" y="1310" on="0"/>
      </contour>
    </TTGlyph>
    <TTGlyph name="Uring" xMin="191" yMin="-18" xMax="1515" yMax="1850">
      <component glyphName="uni030A.cap" x="379" y="136" flags="0x1004"/>
      <component glyphName="U" x="0" y="0" flags="0x1004"/>
    </TTGlyph>
    <TTGlyph name="Utilde" xMin="191" yMin="-18" xMax="1515" yMax="1640">
      <component glyphName="tildecomb.cap" x="219" y="0" flags="0x1004"/>
      <component glyphName="U" x="0" y="0" flags="0x1004"/>
    </TTGlyph>
    <TTGlyph name="V" xMin="116" yMin="-22" xMax="1434" yMax="1324">
      <contour>
        <pt x="1224" y="1310" on="1"/>
        <pt x="1434" y="1324" on="1"/>
        <pt x="1439" y="1315" on="0"/>
        <pt x="1429" y="1260" on="0"/>
        <pt x="1420" y="1250" on="1"/>
        <pt x="1418" y="1250" on="0"/>
        <pt x="1395" y="1248" on="0"/>
        <pt x="1379" y="1247" on="0"/>
        <pt x="1352" y="1243" on="0"/>
        <pt x="1331" y="1238" on="0"/>
        <pt x="1320" y="1234" on="1"/>
        <pt x="1295" y="1227" on="0"/>
        <pt x="1244" y="1170" on="0"/>
        <pt x="1136" y="981" on="0"/>
        <pt x="598" y="60" on="1"/>
        <pt x="582" y="34" on="0"/>
        <pt x="509" y="-22" on="0"/>
        <pt x="485" y="-22" on="0"/>
        <pt x="478" y="-16" on="0"/>
        <pt x="473" y="3" on="0"/>
        <pt x="472" y="6" on="1"/>
        <pt x="264" y="1020" on="1"/>
        <pt x="260" y="1041" on="0"/>
        <pt x="245" y="1112" on="0"/>
        <pt x="234" y="1166" on="0"/>
        <pt x="230" y="1184" on="1"/>
        <pt x="217" y="1241" on="0"/>
        <pt x="116" y="1250" on="1"/>
        <pt x="112" y="1260" on="0"/>
        <pt x="124" y="1315" on="0"/>
        <pt x="132" y="1324" on="1"/>
        <pt x="254" y="1310" on="0"/>
        <pt x="530" y="1310" on="0"/>
        <pt x="660" y="1324" on="1"/>
        <pt x="665" y="1315" on="0"/>
        <pt x="653" y="1260" on="0"/>
        <pt x="643" y="1250" on="0"/>
        <pt x="625" y="1249" on="0"/>
        <pt x="614" y="1248" on="0"/>
        <pt x="593" y="1245" on="0"/>
        <pt x="578" y="1241" on="0"/>
        <pt x="558" y="1236" on="0"/>
        <pt x="544" y="1228" on="0"/>
        <pt x="537" y="1223" on="1"/>
        <pt x="525" y="1214" on="0"/>
        <pt x="512" y="1156" on="0"/>
        <pt x="536" y="1046" on="1"/>
        <pt x="682" y="372" on="1"/>
        <pt x="1072" y="1064" on="0"/>
        <pt x="1091" y="1104" on="1"/>
        <pt x="1125" y="1177" on="0"/>
        <pt x="1130" y="1202" on="1"/>
        <pt x="1136" y="1238" on="0"/>
        <pt x="990" y="1250" on="1"/>
        <pt x="986" y="1260" on="0"/>
        <pt x="998" y="1315" on="0"/>
        <pt x="1006" y="1324" on="1"/>
        <pt x="1156" y="1310" on="0"/>
      </contour>
    </TTGlyph>
    <TTGlyph name="W" xMin="121" yMin="-22" xMax="1927" yMax="1324">
      <contour>
        <pt x="1715" y="1310" on="1"/>
        <pt x="1927" y="1324" on="1"/>
        <pt x="1932" y="1315" on="0"/>
        <pt x="1920" y="1260" on="0"/>
        <pt x="1911" y="1250" on="1"/>
        <pt x="1909" y="1250" on="0"/>
        <pt x="1886" y="1248" on="0"/>
        <pt x="1870" y="1247" on="0"/>
        <pt x="1843" y="1243" on="0"/>
        <pt x="1822" y="1238" on="0"/>
        <pt x="1810" y="1234" on="1"/>
        <pt x="1786" y="1227" on="0"/>
        <pt x="1775" y="1214" on="1"/>
        <pt x="1711" y="1143" on="0"/>
        <pt x="1665" y="1048" on="1"/>
        <pt x="1509" y="734" on="0"/>
        <pt x="1173" y="80" on="1"/>
        <pt x="1153" y="42" on="0"/>
        <pt x="1095" y="-22" on="0"/>
        <pt x="1061" y="-22" on="0"/>
        <pt x="1049" y="6" on="1"/>
        <pt x="903" y="836" on="1"/>
        <pt x="669" y="375" on="0"/>
        <pt x="521" y="88" on="1"/>
        <pt x="504" y="56" on="0"/>
        <pt x="449" y="-22" on="0"/>
        <pt x="417" y="-22" on="0"/>
        <pt x="405" y="6" on="1"/>
        <pt x="267" y="1020" on="1"/>
        <pt x="264" y="1051" on="0"/>
        <pt x="245" y="1180" on="1"/>
        <pt x="237" y="1226" on="0"/>
        <pt x="150" y="1246" on="1"/>
        <pt x="134" y="1249" on="0"/>
        <pt x="121" y="1250" on="1"/>
        <pt x="115" y="1260" on="0"/>
        <pt x="127" y="1314" on="0"/>
        <pt x="135" y="1324" on="1"/>
        <pt x="258" y="1310" on="0"/>
        <pt x="534" y="1310" on="0"/>
        <pt x="663" y="1324" on="1"/>
        <pt x="668" y="1315" on="0"/>
        <pt x="658" y="1260" on="0"/>
        <pt x="649" y="1250" on="1"/>
        <pt x="529" y="1240" on="0"/>
        <pt x="529" y="1172" on="1"/>
        <pt x="529" y="1133" on="0"/>
        <pt x="541" y="1046" on="1"/>
        <pt x="617" y="502" on="1"/>
        <pt x="939" y="1120" on="0"/>
        <pt x="982" y="1200" on="1"/>
        <pt x="1049" y="1324" on="0"/>
        <pt x="1081" y="1324" on="1"/>
        <pt x="1091" y="1324" on="0"/>
        <pt x="1097" y="1292" on="1"/>
        <pt x="1247" y="428" on="1"/>
        <pt x="1517" y="978" on="0"/>
        <pt x="1555" y="1055" on="0"/>
        <pt x="1581" y="1110" on="0"/>
        <pt x="1590" y="1127" on="1"/>
        <pt x="1610" y="1169" on="0"/>
        <pt x="1617" y="1202" on="1"/>
        <pt x="1623" y="1238" on="0"/>
        <pt x="1481" y="1250" on="1"/>
        <pt x="1477" y="1260" on="0"/>
        <pt x="1489" y="1315" on="0"/>
        <pt x="1497" y="1324" on="1"/>
        <pt x="1648" y="1310" on="0"/>
      </contour>
    </TTGlyph>
    <TTGlyph name="Wacute" xMin="121" yMin="-22" xMax="1927" yMax="1762">
      <component glyphName="W" x="0" y="0" flags="0x1004"/>
      <component glyphName="acutecomb.cap" x="686" y="64" flags="0x1004"/>
    </TTGlyph>
    <TTGlyph name="Wcircumflex" xMin="121" yMin="-22" xMax="1927" yMax="1734">
      <component glyphName="uni0302.cap" x="491" y="46" flags="0x1004"/>
      <component glyphName="W" x="0" y="0" flags="0x1004"/>
    </TTGlyph>
    <TTGlyph name="Wdieresis" xMin="121" yMin="-22" xMax="1927" yMax="1738">
      <component glyphName="uni0308.cap" x="458" y="28" flags="0x1004"/>
      <component glyphName="W" x="0" y="0" flags="0x1004"/>
    </TTGlyph>
    <TTGlyph name="Wgrave" xMin="121" yMin="-22" xMax="1927" yMax="1762">
      <component glyphName="W" x="0" y="0" flags="0x1004"/>
      <component glyphName="gravecomb.cap" x="428" y="64" flags="0x1004"/>
    </TTGlyph>
    <TTGlyph name="X" xMin="-114" yMin="-8" xMax="1446" yMax="1324">
      <contour>
        <pt x="922" y="4" on="1"/>
        <pt x="626" y="-8" on="1"/>
        <pt x="620" y="-1" on="0"/>
        <pt x="636" y="66" on="0"/>
        <pt x="644" y="66" on="1"/>
        <pt x="668" y="66" on="0"/>
        <pt x="756" y="99" on="0"/>
        <pt x="760" y="122" on="1"/>
        <pt x="763" y="130" on="0"/>
        <pt x="758" y="144" on="1"/>
        <pt x="588" y="546" on="1"/>
        <pt x="250" y="170" on="0"/>
        <pt x="236" y="132" on="1"/>
        <pt x="229" y="100" on="0"/>
        <pt x="325" y="66" on="0"/>
        <pt x="378" y="66" on="1"/>
        <pt x="383" y="56" on="0"/>
        <pt x="377" y="8" on="0"/>
        <pt x="370" y="-8" on="1"/>
        <pt x="190" y="4" on="0"/>
        <pt x="83" y="4" on="0"/>
        <pt x="2" y="0" on="0"/>
        <pt x="-90" y="-7" on="0"/>
        <pt x="-114" y="-8" on="1"/>
        <pt x="-119" y="1" on="0"/>
        <pt x="-109" y="56" on="0"/>
        <pt x="-100" y="66" on="1"/>
        <pt x="-15" y="66" on="0"/>
        <pt x="94" y="128" on="0"/>
        <pt x="120" y="158" on="1"/>
        <pt x="546" y="644" on="1"/>
        <pt x="370" y="1074" on="1"/>
        <pt x="318" y="1202" on="0"/>
        <pt x="283" y="1233" on="0"/>
        <pt x="200" y="1250" on="0"/>
        <pt x="176" y="1250" on="1"/>
        <pt x="166" y="1255" on="0"/>
        <pt x="184" y="1319" on="0"/>
        <pt x="190" y="1324" on="1"/>
        <pt x="460" y="1312" on="0"/>
        <pt x="520" y="1312" on="0"/>
        <pt x="748" y="1324" on="1"/>
        <pt x="750" y="1313" on="0"/>
        <pt x="737" y="1250" on="0"/>
        <pt x="730" y="1250" on="1"/>
        <pt x="702" y="1250" on="0"/>
        <pt x="629" y="1228" on="0"/>
        <pt x="624" y="1208" on="1"/>
        <pt x="620" y="1184" on="0"/>
        <pt x="630" y="1164" on="1"/>
        <pt x="772" y="828" on="1"/>
        <pt x="805" y="864" on="0"/>
        <pt x="883" y="946" on="1"/>
        <pt x="1088" y="1160" on="0"/>
        <pt x="1088" y="1188" on="1"/>
        <pt x="1092" y="1213" on="0"/>
        <pt x="1014" y="1250" on="0"/>
        <pt x="964" y="1250" on="1"/>
        <pt x="960" y="1252" on="0"/>
        <pt x="960" y="1266" on="1"/>
        <pt x="960" y="1311" on="0"/>
        <pt x="976" y="1324" on="1"/>
        <pt x="1088" y="1310" on="0"/>
        <pt x="1348" y="1310" on="0"/>
        <pt x="1446" y="1324" on="1"/>
        <pt x="1449" y="1314" on="0"/>
        <pt x="1437" y="1250" on="0"/>
        <pt x="1430" y="1250" on="1"/>
        <pt x="1377" y="1250" on="0"/>
        <pt x="1247" y="1190" on="0"/>
        <pt x="1202" y="1144" on="1"/>
        <pt x="804" y="738" on="1"/>
        <pt x="1019" y="223" on="0"/>
        <pt x="1064" y="152" on="1"/>
        <pt x="1090" y="107" on="0"/>
        <pt x="1198" y="66" on="0"/>
        <pt x="1232" y="66" on="1"/>
        <pt x="1235" y="52" on="0"/>
        <pt x="1227" y="4" on="0"/>
        <pt x="1218" y="-8" on="1"/>
        <pt x="996" y="4" on="0"/>
      </contour>
    </TTGlyph>
    <TTGlyph name="Y" xMin="140" yMin="-8" xMax="1330" yMax="1324">
      <contour>
        <pt x="1118" y="1310" on="1"/>
        <pt x="1330" y="1324" on="1"/>
        <pt x="1335" y="1315" on="0"/>
        <pt x="1325" y="1260" on="0"/>
        <pt x="1316" y="1250" on="1"/>
        <pt x="1315" y="1250" on="0"/>
        <pt x="1294" y="1248" on="0"/>
        <pt x="1282" y="1247" on="0"/>
        <pt x="1255" y="1244" on="0"/>
        <pt x="1237" y="1239" on="0"/>
        <pt x="1212" y="1232" on="0"/>
        <pt x="1202" y="1227" on="1"/>
        <pt x="1182" y="1216" on="0"/>
        <pt x="1115" y="1136" on="0"/>
        <pt x="762" y="674" on="0"/>
        <pt x="697" y="575" on="0"/>
        <pt x="694" y="558" on="1"/>
        <pt x="642" y="290" on="1"/>
        <pt x="612" y="144" on="0"/>
        <pt x="620" y="102" on="1"/>
        <pt x="624" y="75" on="0"/>
        <pt x="732" y="66" on="1"/>
        <pt x="736" y="56" on="0"/>
        <pt x="726" y="1" on="0"/>
        <pt x="718" y="-8" on="1"/>
        <pt x="596" y="6" on="0"/>
        <pt x="320" y="6" on="0"/>
        <pt x="190" y="-8" on="1"/>
        <pt x="185" y="1" on="0"/>
        <pt x="195" y="56" on="0"/>
        <pt x="204" y="66" on="1"/>
        <pt x="316" y="75" on="0"/>
        <pt x="340" y="121" on="0"/>
        <pt x="350" y="154" on="1"/>
        <pt x="361" y="191" on="0"/>
        <pt x="382" y="290" on="1"/>
        <pt x="436" y="568" on="1"/>
        <pt x="441" y="604" on="0"/>
        <pt x="320" y="982" on="1"/>
        <pt x="290" y="1074" on="1"/>
        <pt x="262" y="1162" on="0"/>
        <pt x="242" y="1216" on="0"/>
        <pt x="170" y="1247" on="0"/>
        <pt x="140" y="1250" on="1"/>
        <pt x="136" y="1260" on="0"/>
        <pt x="146" y="1315" on="0"/>
        <pt x="154" y="1324" on="1"/>
        <pt x="276" y="1310" on="0"/>
        <pt x="552" y="1310" on="0"/>
        <pt x="682" y="1324" on="1"/>
        <pt x="687" y="1315" on="0"/>
        <pt x="677" y="1260" on="0"/>
        <pt x="667" y="1250" on="0"/>
        <pt x="649" y="1249" on="0"/>
        <pt x="638" y="1248" on="0"/>
        <pt x="617" y="1245" on="0"/>
        <pt x="602" y="1241" on="0"/>
        <pt x="582" y="1236" on="0"/>
        <pt x="568" y="1228" on="0"/>
        <pt x="561" y="1223" on="1"/>
        <pt x="549" y="1214" on="0"/>
        <pt x="543" y="1194" on="0"/>
        <pt x="552" y="1164" on="1"/>
        <pt x="688" y="722" on="1"/>
        <pt x="698" y="712" on="0"/>
        <pt x="946" y="1067" on="1"/>
        <pt x="974" y="1108" on="0"/>
        <pt x="1023" y="1180" on="0"/>
        <pt x="1026" y="1202" on="1"/>
        <pt x="1032" y="1239" on="0"/>
        <pt x="898" y="1250" on="1"/>
        <pt x="894" y="1260" on="0"/>
        <pt x="904" y="1315" on="0"/>
        <pt x="912" y="1324" on="1"/>
        <pt x="1062" y="1310" on="0"/>
      </contour>
    </TTGlyph>
    <TTGlyph name="Yacute" xMin="140" yMin="-8" xMax="1330" yMax="1666">
      <component glyphName="acutecomb.cap" x="424" y="-32" flags="0x1004"/>
      <component glyphName="Y" x="0" y="0" flags="0x1004"/>
    </TTGlyph>
    <TTGlyph name="Ycircumflex" xMin="140" yMin="-8" xMax="1330" yMax="1734">
      <component glyphName="uni0302.cap" x="184" y="46" flags="0x1004"/>
      <component glyphName="Y" x="0" y="0" flags="0x1004"/>
    </TTGlyph>
    <TTGlyph name="Ydieresis" xMin="140" yMin="-8" xMax="1330" yMax="1732">
      <component glyphName="uni0308.cap" x="206" y="22" flags="0x1004"/>
      <component glyphName="Y" x="0" y="0" flags="0x1004"/>
    </TTGlyph>
    <TTGlyph name="Ygrave" xMin="140" yMin="-8" xMax="1330" yMax="1762">
      <component glyphName="Y" x="0" y="0" flags="0x1004"/>
      <component glyphName="gravecomb.cap" x="160" y="64" flags="0x1004"/>
    </TTGlyph>
    <TTGlyph name="Z" xMin="-42" yMin="0" xMax="1268" yMax="1332">
      <contour>
        <pt x="582" y="1220" on="1"/>
        <pt x="511" y="1220" on="0"/>
        <pt x="444" y="1187" on="0"/>
        <pt x="407" y="1168" on="0"/>
        <pt x="368" y="1125" on="0"/>
        <pt x="345" y="1102" on="0"/>
        <pt x="311" y="1044" on="0"/>
        <pt x="305" y="1033" on="1"/>
        <pt x="275" y="978" on="0"/>
        <pt x="260" y="948" on="1"/>
        <pt x="252" y="936" on="0"/>
        <pt x="189" y="936" on="0"/>
        <pt x="182" y="946" on="1"/>
        <pt x="289" y="1229" on="0"/>
        <pt x="322" y="1324" on="1"/>
        <pt x="340" y="1319" on="0"/>
        <pt x="530" y="1310" on="0"/>
        <pt x="564" y="1310" on="1"/>
        <pt x="824" y="1312" on="1"/>
        <pt x="1032" y="1315" on="0"/>
        <pt x="1260" y="1332" on="1"/>
        <pt x="1266" y="1331" on="0"/>
        <pt x="1269" y="1281" on="0"/>
        <pt x="1266" y="1266" on="1"/>
        <pt x="1260" y="1252" on="0"/>
        <pt x="550" y="384" on="1"/>
        <pt x="314" y="94" on="1"/>
        <pt x="716" y="94" on="1"/>
        <pt x="827" y="94" on="0"/>
        <pt x="973" y="222" on="0"/>
        <pt x="1038" y="340" on="1"/>
        <pt x="1044" y="352" on="0"/>
        <pt x="1062" y="352" on="1"/>
        <pt x="1111" y="352" on="0"/>
        <pt x="1120" y="340" on="1"/>
        <pt x="1103" y="305" on="0"/>
        <pt x="973" y="51" on="0"/>
        <pt x="954" y="2" on="1"/>
        <pt x="-2" y="0" on="1"/>
        <pt x="-27" y="0" on="0"/>
        <pt x="-41" y="30" on="1"/>
        <pt x="-46" y="40" on="0"/>
        <pt x="-42" y="44" on="1"/>
        <pt x="924" y="1220" on="1"/>
      </contour>
    </TTGlyph>
    <TTGlyph name="Zacute" xMin="-42" yMin="0" xMax="1268" yMax="1692">
      <component glyphName="acutecomb.cap" x="382" y="-6" flags="0x1004"/>
      <component glyphName="Z" x="0" y="0" flags="0x1004"/>
    </TTGlyph>
    <TTGlyph name="Zcaron" xMin="-42" yMin="0" xMax="1268" yMax="1734">
      <component glyphName="uni030C.cap" x="50" y="-6" flags="0x1004"/>
      <component glyphName="Z" x="0" y="0" flags="0x1004"/>
    </TTGlyph>
    <TTGlyph name="Zdotaccent" xMin="-42" yMin="0" xMax="1268" yMax="1732">
      <component glyphName="uni0307.cap" x="232" y="0" flags="0x1004"/>
      <component glyphName="Z" x="0" y="0" flags="0x1004"/>
    </TTGlyph>
    <TTGlyph name="a" xMin="22" yMin="-16" xMax="916" yMax="898">
      <contour>
        <pt x="726" y="264" on="1"/>
        <pt x="718" y="232" on="0"/>
        <pt x="718" y="156" on="0"/>
        <pt x="774" y="156" on="0"/>
        <pt x="879" y="260" on="0"/>
        <pt x="888" y="278" on="1"/>
        <pt x="897" y="278" on="0"/>
        <pt x="916" y="236" on="0"/>
        <pt x="916" y="224" on="1"/>
        <pt x="897" y="189" on="0"/>
        <pt x="791" y="79" on="0"/>
        <pt x="648" y="-16" on="0"/>
        <pt x="543" y="-16" on="0"/>
        <pt x="474" y="52" on="0"/>
        <pt x="474" y="116" on="1"/>
        <pt x="474" y="140" on="0"/>
        <pt x="486" y="192" on="1"/>
        <pt x="447" y="124" on="0"/>
        <pt x="275" y="-14" on="0"/>
        <pt x="113" y="-14" on="0"/>
        <pt x="22" y="124" on="0"/>
        <pt x="22" y="359" on="0"/>
        <pt x="143" y="610" on="0"/>
        <pt x="325" y="788" on="0"/>
        <pt x="541" y="898" on="0"/>
        <pt x="614" y="898" on="1"/>
        <pt x="745" y="898" on="0"/>
        <pt x="850" y="862" on="1"/>
      </contour>
      <contour>
        <pt x="594" y="764" on="1"/>
        <pt x="573" y="788" on="0"/>
        <pt x="458" y="788" on="0"/>
        <pt x="341" y="645" on="0"/>
        <pt x="274" y="421" on="0"/>
        <pt x="274" y="162" on="0"/>
        <pt x="346" y="162" on="1"/>
        <pt x="396" y="162" on="0"/>
        <pt x="523" y="411" on="0"/>
        <pt x="554" y="562" on="1"/>
      </contour>
    </TTGlyph>
    <TTGlyph name="aAlf.dagger" xMin="-287" yMin="860" xMax="5" yMax="1453">
      <component glyphName="uni0670" x="-198" y="-934" flags="0x1004"/>
    </TTGlyph>
    <TTGlyph name="aAlf.fina" xMin="-81" yMin="-30" xMax="527" yMax="1485">
      <contour>
        <pt x="-20" y="1485" on="1"/>
        <pt x="11" y="1553" on="0"/>
        <pt x="31" y="1471" on="1"/>
        <pt x="121" y="1091" on="0"/>
        <pt x="214" y="457" on="0"/>
        <pt x="227" y="388" on="1"/>
        <pt x="257" y="228" on="0"/>
        <pt x="442" y="216" on="1"/>
        <pt x="505" y="212" on="0"/>
        <pt x="522" y="154" on="1"/>
        <pt x="529" y="131" on="0"/>
        <pt x="524" y="25" on="0"/>
        <pt x="504" y="-29" on="0"/>
        <pt x="474" y="-30" on="1"/>
        <pt x="184" y="-30" on="0"/>
        <pt x="132" y="247" on="1"/>
        <pt x="108" y="374" on="0"/>
        <pt x="63" y="679" on="1"/>
        <pt x="21" y="955" on="0"/>
        <pt x="-80" y="1271" on="1"/>
        <pt x="-96" y="1322" on="0"/>
        <pt x="-80" y="1356" on="1"/>
      </contour>
    </TTGlyph>
    <TTGlyph name="aAlf.fina.alt" xMin="-42" yMin="-44" xMax="1689" yMax="1668">
      <contour>
        <pt x="139" y="1668" on="1"/>
        <pt x="202" y="1672" on="0"/>
        <pt x="202" y="1605" on="1"/>
        <pt x="202" y="1468" on="1"/>
        <pt x="201" y="1423" on="0"/>
        <pt x="95" y="1411" on="0"/>
        <pt x="44" y="1389" on="0"/>
        <pt x="58" y="1280" on="1"/>
        <pt x="130" y="719" on="0"/>
        <pt x="214" y="565" on="1"/>
        <pt x="373" y="271" on="0"/>
        <pt x="848" y="218" on="1"/>
        <pt x="1124" y="188" on="0"/>
        <pt x="1585" y="215" on="1"/>
        <pt x="1662" y="220" on="0"/>
        <pt x="1682" y="160" on="1"/>
        <pt x="1689" y="142" on="0"/>
        <pt x="1688" y="122" on="1"/>
        <pt x="1683" y="8" on="0"/>
        <pt x="1649" y="-17" on="1"/>
        <pt x="1637" y="-26" on="0"/>
        <pt x="1622" y="-30" on="1"/>
        <pt x="1531" y="-45" on="0"/>
        <pt x="1171" y="-44" on="1"/>
        <pt x="490" y="-42" on="0"/>
        <pt x="259" y="207" on="1"/>
        <pt x="139" y="336" on="0"/>
        <pt x="75" y="605" on="1"/>
        <pt x="42" y="743" on="0"/>
        <pt x="30" y="820" on="1"/>
        <pt x="-44" y="1318" on="0"/>
        <pt x="-41" y="1468" on="1"/>
        <pt x="-40" y="1554" on="0"/>
        <pt x="46" y="1662" on="0"/>
      </contour>
    </TTGlyph>
    <TTGlyph name="aAlf.fina_KafAlf" xMin="-153" yMin="-52" xMax="490" yMax="1552">
      <contour>
        <pt x="-15" y="1513" on="1"/>
        <pt x="67" y="1306" on="0"/>
        <pt x="186" y="389" on="0"/>
        <pt x="275" y="237" on="0"/>
        <pt x="458" y="203" on="0"/>
        <pt x="489" y="68" on="1"/>
        <pt x="511" y="-28" on="0"/>
        <pt x="438" y="-48" on="1"/>
        <pt x="416" y="-54" on="0"/>
        <pt x="390" y="-52" on="1"/>
        <pt x="285" y="-42" on="0"/>
        <pt x="202" y="35" on="1"/>
        <pt x="68" y="158" on="0"/>
        <pt x="21" y="582" on="1"/>
        <pt x="-3" y="809" on="0"/>
        <pt x="-105" y="1252" on="0"/>
        <pt x="-154" y="1389" on="0"/>
        <pt x="-151" y="1423" on="0"/>
        <pt x="-146" y="1432" on="1"/>
        <pt x="-99" y="1526" on="1"/>
        <pt x="-87" y="1546" on="0"/>
        <pt x="-73" y="1551" on="1"/>
        <pt x="-36" y="1563" on="0"/>
      </contour>
    </TTGlyph>
    <TTGlyph name="aAlf.fina_KafMemAlf" xMin="-115" yMin="-175" xMax="462" yMax="1568">
      <contour>
        <pt x="169" y="778" on="1"/>
        <pt x="231" y="260" on="0"/>
        <pt x="405" y="87" on="1"/>
        <pt x="462" y="29" on="0"/>
        <pt x="460" y="-180" on="0"/>
        <pt x="390" y="-175" on="1"/>
        <pt x="344" y="-169" on="0"/>
        <pt x="291" y="-103" on="1"/>
        <pt x="174" y="45" on="0"/>
        <pt x="48" y="509" on="0"/>
        <pt x="-20" y="1075" on="0"/>
        <pt x="-111" y="1375" on="1"/>
        <pt x="-125" y="1420" on="0"/>
        <pt x="-115" y="1440" on="1"/>
        <pt x="-62" y="1538" on="1"/>
        <pt x="-47" y="1565" on="0"/>
        <pt x="-27" y="1568" on="1"/>
        <pt x="14" y="1572" on="0"/>
        <pt x="27" y="1513" on="1"/>
        <pt x="104" y="1214" on="0"/>
        <pt x="142" y="965" on="1"/>
      </contour>
    </TTGlyph>
    <TTGlyph name="aAlf.fina_LamAlfFina" xMin="-45" yMin="273" xMax="896" yMax="1241">
      <contour>
        <pt x="896" y="410" on="1"/>
        <pt x="925" y="283" on="0"/>
        <pt x="894" y="273" on="1"/>
        <pt x="867" y="264" on="0"/>
        <pt x="840" y="327" on="1"/>
        <pt x="713" y="620" on="0"/>
        <pt x="381" y="804" on="1"/>
        <pt x="363" y="755" on="1"/>
        <pt x="339" y="688" on="0"/>
        <pt x="244" y="747" on="1"/>
        <pt x="50" y="871" on="1"/>
        <pt x="-6" y="906" on="0"/>
        <pt x="-14" y="957" on="1"/>
        <pt x="-44" y="1176" on="1"/>
        <pt x="-51" y="1221" on="0"/>
        <pt x="10" y="1260" on="0"/>
        <pt x="58" y="1238" on="1"/>
        <pt x="783" y="884" on="0"/>
      </contour>
    </TTGlyph>
    <TTGlyph name="aAlf.fina_LamAlfIsol" xMin="-54" yMin="-90" xMax="1059" yMax="1430">
      <contour>
        <pt x="551" y="133" on="1"/>
        <pt x="834" y="108" on="0"/>
        <pt x="942" y="127" on="1"/>
        <pt x="828" y="457" on="0"/>
        <pt x="271" y="1036" on="1"/>
        <pt x="247" y="986" on="1"/>
        <pt x="220" y="929" on="0"/>
        <pt x="151" y="995" on="1"/>
        <pt x="-9" y="1147" on="1"/>
        <pt x="-55" y="1191" on="0"/>
        <pt x="-54" y="1251" on="1"/>
        <pt x="-49" y="1430" on="1"/>
        <pt x="-44" y="1564" on="0"/>
        <pt x="135" y="1394" on="1"/>
        <pt x="404" y="1138" on="0"/>
        <pt x="655" y="817" on="1"/>
        <pt x="1004" y="370" on="0"/>
        <pt x="1058" y="88" on="1"/>
        <pt x="1082" y="-52" on="0"/>
        <pt x="994" y="-76" on="1"/>
        <pt x="803" y="-126" on="0"/>
        <pt x="568" y="-90" on="1"/>
        <pt x="523" y="-82" on="0"/>
        <pt x="511" y="-56" on="1"/>
        <pt x="465" y="48" on="0"/>
        <pt x="496" y="103" on="1"/>
        <pt x="516" y="136" on="0"/>
      </contour>
    </TTGlyph>
    <TTGlyph name="aAlf.fina_MemAlfFina" xMin="-108" yMin="-256" xMax="502" yMax="1480">
      <contour>
        <pt x="282" y="-202" on="1"/>
        <pt x="275" y="-193" on="0"/>
        <pt x="242" y="-149" on="0"/>
        <pt x="197" y="0" on="0"/>
        <pt x="-9" y="1066" on="0"/>
        <pt x="-103" y="1296" on="1"/>
        <pt x="-117" y="1332" on="0"/>
        <pt x="-108" y="1355" on="1"/>
        <pt x="-64" y="1456" on="1"/>
        <pt x="-54" y="1474" on="0"/>
        <pt x="-41" y="1480" on="1"/>
        <pt x="-7" y="1493" on="0"/>
        <pt x="15" y="1448" on="1"/>
        <pt x="78" y="1313" on="0"/>
        <pt x="254" y="506" on="0"/>
        <pt x="290" y="313" on="1"/>
        <pt x="348" y="1" on="0"/>
        <pt x="438" y="-77" on="1"/>
        <pt x="561" y="-181" on="0"/>
        <pt x="501" y="-256" on="1"/>
        <pt x="411" y="-362" on="0"/>
      </contour>
    </TTGlyph>
    <TTGlyph name="aAlf.fina_Narrow" xMin="-81" yMin="-30" xMax="427" yMax="1485">
      <contour>
        <pt x="-20" y="1485" on="1"/>
        <pt x="11" y="1553" on="0"/>
        <pt x="31" y="1471" on="1"/>
        <pt x="121" y="1091" on="0"/>
        <pt x="214" y="457" on="0"/>
        <pt x="227" y="388" on="1"/>
        <pt x="259" y="221" on="0"/>
        <pt x="342" y="216" on="1"/>
        <pt x="403" y="212" on="0"/>
        <pt x="422" y="154" on="1"/>
        <pt x="429" y="131" on="0"/>
        <pt x="424" y="25" on="0"/>
        <pt x="404" y="-29" on="0"/>
        <pt x="374" y="-30" on="1"/>
        <pt x="185" y="-30" on="0"/>
        <pt x="132" y="247" on="1"/>
        <pt x="104" y="403" on="0"/>
        <pt x="21" y="955" on="0"/>
        <pt x="-80" y="1271" on="1"/>
        <pt x="-96" y="1322" on="0"/>
        <pt x="-80" y="1356" on="1"/>
      </contour>
    </TTGlyph>
    <TTGlyph name="aAlf.isol" xMin="-38" yMin="-1" xMax="273" yMax="1418">
      <contour>
        <pt x="28" y="1418" on="1"/>
        <pt x="59" y="1509" on="0"/>
        <pt x="87" y="1377" on="1"/>
        <pt x="197" y="877" on="1"/>
        <pt x="341" y="202" on="0"/>
        <pt x="272" y="30" on="1"/>
        <pt x="257" y="-8" on="0"/>
        <pt x="217" y="6" on="0"/>
        <pt x="208" y="98" on="1"/>
        <pt x="192" y="256" on="0"/>
        <pt x="49" y="810" on="1"/>
        <pt x="-37" y="1151" on="1"/>
        <pt x="-49" y="1195" on="0"/>
        <pt x="-35" y="1235" on="1"/>
      </contour>
    </TTGlyph>
    <TTGlyph name="aAyn.fina" xMin="179" yMin="-1158" xMax="1628" yMax="552">
      <contour>
        <pt x="804" y="552" on="1"/>
        <pt x="920" y="486" on="0"/>
        <pt x="925" y="352" on="0"/>
        <pt x="849" y="268" on="0"/>
        <pt x="808" y="254" on="1"/>
        <pt x="898" y="217" on="0"/>
        <pt x="984" y="215" on="1"/>
        <pt x="1069" y="213" on="0"/>
        <pt x="1084" y="157" on="1"/>
        <pt x="1096" y="111" on="0"/>
        <pt x="1097" y="108" on="1"/>
        <pt x="1104" y="-31" on="0"/>
        <pt x="1014" y="-30" on="1"/>
        <pt x="833" y="-29" on="0"/>
        <pt x="620" y="181" on="1"/>
        <pt x="237" y="-45" on="0"/>
        <pt x="265" y="-388" on="1"/>
        <pt x="289" y="-702" on="0"/>
        <pt x="598" y="-839" on="1"/>
        <pt x="856" y="-952" on="0"/>
        <pt x="1531" y="-913" on="1"/>
        <pt x="1621" y="-908" on="0"/>
        <pt x="1627" y="-931" on="1"/>
        <pt x="1638" y="-971" on="0"/>
        <pt x="1358" y="-1097" on="1"/>
        <pt x="1237" y="-1151" on="0"/>
        <pt x="1136" y="-1158" on="1"/>
        <pt x="904" y="-1175" on="0"/>
        <pt x="694" y="-1124" on="1"/>
        <pt x="168" y="-998" on="0"/>
        <pt x="180" y="-387" on="1"/>
        <pt x="187" y="13" on="0"/>
        <pt x="463" y="279" on="1"/>
        <pt x="420" y="304" on="0"/>
        <pt x="293" y="313" on="0"/>
        <pt x="261" y="363" on="0"/>
        <pt x="268" y="386" on="1"/>
        <pt x="298" y="492" on="0"/>
        <pt x="379" y="548" on="1"/>
        <pt x="575" y="683" on="0"/>
      </contour>
    </TTGlyph>
    <TTGlyph name="aAyn.init" xMin="-101" yMin="-30" xMax="805" yMax="871">
      <contour>
        <pt x="805" y="508" on="1"/>
        <pt x="783" y="343" on="1"/>
        <pt x="779" y="316" on="0"/>
        <pt x="696" y="279" on="0"/>
        <pt x="453" y="177" on="1"/>
        <pt x="3" y="-30" on="1"/>
        <pt x="-65" y="-30" on="0"/>
        <pt x="-135" y="171" on="0"/>
        <pt x="-38" y="213" on="1"/>
        <pt x="38" y="246" on="0"/>
        <pt x="77" y="264" on="1"/>
        <pt x="-45" y="357" on="0"/>
        <pt x="-30" y="487" on="1"/>
        <pt x="1" y="763" on="0"/>
        <pt x="218" y="871" on="1"/>
        <pt x="273" y="898" on="0"/>
        <pt x="442" y="822" on="0"/>
        <pt x="533" y="738" on="1"/>
        <pt x="582" y="693" on="0"/>
        <pt x="563" y="640" on="0"/>
        <pt x="377" y="691" on="0"/>
        <pt x="120" y="631" on="0"/>
        <pt x="88" y="540" on="1"/>
        <pt x="79" y="515" on="0"/>
        <pt x="155" y="455" on="1"/>
        <pt x="345" y="307" on="0"/>
        <pt x="647" y="513" on="1"/>
        <pt x="689" y="541" on="0"/>
        <pt x="717" y="560" on="1"/>
        <pt x="821" y="631" on="0"/>
      </contour>
    </TTGlyph>
    <TTGlyph name="aAyn.init_AboveHaaIsol" xMin="-147" yMin="441" xMax="882" yMax="1281">
      <component glyphName="aAyn.init_AynHaaInit" x="0" y="0" flags="0x1004"/>
    </TTGlyph>
    <TTGlyph name="aAyn.init_AynHaaInit" xMin="-147" yMin="441" xMax="882" yMax="1281">
      <contour>
        <pt x="824" y="957" on="1"/>
        <pt x="850" y="970" on="0"/>
        <pt x="912" y="917" on="0"/>
        <pt x="877" y="841" on="1"/>
        <pt x="876" y="839" on="0"/>
        <pt x="844" y="777" on="1"/>
        <pt x="828" y="748" on="0"/>
        <pt x="797" y="739" on="1"/>
        <pt x="269" y="589" on="0"/>
        <pt x="177" y="554" on="1"/>
        <pt x="-61" y="442" on="1"/>
        <pt x="-127" y="433" on="0"/>
        <pt x="-146" y="478" on="1"/>
        <pt x="-156" y="501" on="0"/>
        <pt x="-136" y="526" on="1"/>
        <pt x="-71" y="615" on="0"/>
        <pt x="159" y="720" on="1"/>
        <pt x="105" y="764" on="0"/>
        <pt x="75" y="806" on="1"/>
        <pt x="28" y="872" on="0"/>
        <pt x="83" y="1087" on="0"/>
        <pt x="297" y="1289" on="0"/>
        <pt x="404" y="1281" on="1"/>
        <pt x="557" y="1268" on="0"/>
        <pt x="668" y="1132" on="1"/>
        <pt x="694" y="1098" on="0"/>
        <pt x="661" y="1044" on="0"/>
        <pt x="625" y="1056" on="1"/>
        <pt x="503" y="1095" on="0"/>
        <pt x="425" y="1093" on="1"/>
        <pt x="266" y="1088" on="0"/>
        <pt x="204" y="993" on="1"/>
        <pt x="301" y="876" on="0"/>
        <pt x="415" y="866" on="1"/>
        <pt x="602" y="850" on="0"/>
      </contour>
    </TTGlyph>
    <TTGlyph name="aAyn.init_AynMemInit" xMin="-229" yMin="365" xMax="804" yMax="1164">
      <contour>
        <pt x="-86" y="366" on="1"/>
        <pt x="-181" y="327" on="0"/>
        <pt x="-260" y="424" on="0"/>
        <pt x="-196" y="515" on="0"/>
        <pt x="-20" y="582" on="1"/>
        <pt x="36" y="603" on="0"/>
        <pt x="73" y="618" on="1"/>
        <pt x="3" y="670" on="0"/>
        <pt x="-71" y="802" on="0"/>
        <pt x="-5" y="1035" on="0"/>
        <pt x="117" y="1139" on="1"/>
        <pt x="286" y="1283" on="0"/>
        <pt x="470" y="1163" on="1"/>
        <pt x="528" y="1125" on="0"/>
        <pt x="583" y="1063" on="1"/>
        <pt x="618" y="1025" on="0"/>
        <pt x="588" y="993" on="1"/>
        <pt x="564" y="971" on="0"/>
        <pt x="534" y="981" on="1"/>
        <pt x="315" y="1049" on="0"/>
        <pt x="96" y="907" on="1"/>
        <pt x="208" y="786" on="0"/>
        <pt x="362" y="761" on="1"/>
        <pt x="453" y="746" on="0"/>
        <pt x="702" y="878" on="1"/>
        <pt x="745" y="901" on="0"/>
        <pt x="775" y="875" on="1"/>
        <pt x="823" y="832" on="0"/>
        <pt x="803" y="792" on="1"/>
        <pt x="752" y="693" on="1"/>
        <pt x="736" y="663" on="0"/>
        <pt x="714" y="653" on="1"/>
        <pt x="631" y="618" on="0"/>
        <pt x="364" y="526" on="1"/>
      </contour>
    </TTGlyph>
    <TTGlyph name="aAyn.init_AynYaaIsol" xMin="-117" yMin="192" xMax="1026" yMax="1143">
      <contour>
        <pt x="990" y="642" on="1"/>
        <pt x="977" y="602" on="0"/>
        <pt x="958" y="592" on="1"/>
        <pt x="818" y="530" on="0"/>
        <pt x="225" y="295" on="0"/>
        <pt x="16" y="194" on="0"/>
        <pt x="-77" y="191" on="0"/>
        <pt x="-99" y="213" on="1"/>
        <pt x="-113" y="228" on="0"/>
        <pt x="-117" y="250" on="1"/>
        <pt x="-126" y="331" on="0"/>
        <pt x="-62" y="372" on="1"/>
        <pt x="52" y="443" on="0"/>
        <pt x="261" y="531" on="1"/>
        <pt x="126" y="661" on="0"/>
        <pt x="134" y="746" on="1"/>
        <pt x="147" y="865" on="0"/>
        <pt x="383" y="1127" on="0"/>
        <pt x="483" y="1143" on="1"/>
        <pt x="545" y="1151" on="0"/>
        <pt x="765" y="1049" on="0"/>
        <pt x="825" y="992" on="1"/>
        <pt x="854" y="964" on="0"/>
        <pt x="827" y="906" on="0"/>
        <pt x="787" y="916" on="1"/>
        <pt x="487" y="995" on="0"/>
        <pt x="317" y="813" on="1"/>
        <pt x="395" y="713" on="0"/>
        <pt x="579" y="680" on="1"/>
        <pt x="657" y="666" on="0"/>
        <pt x="881" y="791" on="1"/>
        <pt x="946" y="827" on="0"/>
        <pt x="985" y="829" on="0"/>
        <pt x="998" y="824" on="1"/>
        <pt x="1038" y="809" on="0"/>
        <pt x="1025" y="759" on="1"/>
      </contour>
    </TTGlyph>
    <TTGlyph name="aAyn.init_Finjani" xMin="-86" yMin="-30" xMax="667" yMax="809">
      <contour>
        <pt x="666" y="322" on="1"/>
        <pt x="637" y="198" on="1"/>
        <pt x="630" y="170" on="0"/>
        <pt x="607" y="153" on="1"/>
        <pt x="489" y="62" on="0"/>
        <pt x="113" y="-46" on="0"/>
        <pt x="0" y="-30" on="1"/>
        <pt x="-87" y="-17" on="0"/>
        <pt x="-85" y="124" on="1"/>
        <pt x="-83" y="208" on="0"/>
        <pt x="-38" y="215" on="1"/>
        <pt x="-31" y="216" on="0"/>
        <pt x="-21" y="215" on="1"/>
        <pt x="-63" y="279" on="0"/>
        <pt x="-79" y="352" on="1"/>
        <pt x="-119" y="535" on="0"/>
        <pt x="104" y="793" on="0"/>
        <pt x="341" y="824" on="0"/>
        <pt x="546" y="650" on="1"/>
        <pt x="576" y="625" on="0"/>
        <pt x="547" y="562" on="0"/>
        <pt x="499" y="579" on="1"/>
        <pt x="338" y="637" on="0"/>
        <pt x="135" y="563" on="1"/>
        <pt x="57" y="535" on="0"/>
        <pt x="43" y="474" on="0"/>
        <pt x="206" y="273" on="0"/>
        <pt x="252" y="263" on="1"/>
        <pt x="361" y="241" on="0"/>
        <pt x="483" y="316" on="1"/>
        <pt x="598" y="388" on="1"/>
        <pt x="697" y="449" on="0"/>
      </contour>
    </TTGlyph>
    <TTGlyph name="aAyn.init_YaaBarree" xMin="-142" yMin="150" xMax="957" yMax="1213">
      <contour>
        <pt x="415" y="1213" on="1"/>
        <pt x="478" y="1220" on="0"/>
        <pt x="697" y="1119" on="0"/>
        <pt x="757" y="1062" on="1"/>
        <pt x="785" y="1034" on="0"/>
        <pt x="759" y="977" on="0"/>
        <pt x="720" y="986" on="1"/>
        <pt x="416" y="1063" on="0"/>
        <pt x="248" y="883" on="1"/>
        <pt x="329" y="780" on="0"/>
        <pt x="510" y="750" on="1"/>
        <pt x="589" y="736" on="0"/>
        <pt x="812" y="861" on="1"/>
        <pt x="877" y="897" on="0"/>
        <pt x="916" y="899" on="0"/>
        <pt x="929" y="894" on="1"/>
        <pt x="970" y="879" on="0"/>
        <pt x="957" y="829" on="1"/>
        <pt x="921" y="712" on="1"/>
        <pt x="908" y="672" on="0"/>
        <pt x="873" y="654" on="0"/>
        <pt x="781" y="618" on="1"/>
        <pt x="157" y="369" on="0"/>
        <pt x="5" y="216" on="1"/>
        <pt x="-43" y="167" on="0"/>
        <pt x="-89" y="135" on="0"/>
        <pt x="-157" y="175" on="0"/>
        <pt x="-142" y="224" on="1"/>
        <pt x="-68" y="425" on="0"/>
        <pt x="237" y="595" on="1"/>
        <pt x="174" y="632" on="0"/>
        <pt x="62" y="747" on="0"/>
        <pt x="66" y="815" on="1"/>
        <pt x="79" y="935" on="0"/>
        <pt x="316" y="1199" on="0"/>
      </contour>
    </TTGlyph>
    <TTGlyph name="aAyn.isol" xMin="92" yMin="-988" xMax="1591" yMax="947">
      <contour>
        <pt x="569" y="-685" on="1"/>
        <pt x="926" y="-806" on="0"/>
        <pt x="1496" y="-708" on="1"/>
        <pt x="1586" y="-691" on="0"/>
        <pt x="1591" y="-715" on="1"/>
        <pt x="1597" y="-748" on="0"/>
        <pt x="1546" y="-780" on="1"/>
        <pt x="1298" y="-937" on="1"/>
        <pt x="1232" y="-979" on="0"/>
        <pt x="1105" y="-988" on="1"/>
        <pt x="842" y="-1007" on="0"/>
        <pt x="664" y="-964" on="1"/>
        <pt x="149" y="-838" on="0"/>
        <pt x="159" y="-236" on="1"/>
        <pt x="164" y="72" on="0"/>
        <pt x="324" y="316" on="1"/>
        <pt x="93" y="414" on="0"/>
        <pt x="93" y="509" on="1"/>
        <pt x="90" y="795" on="0"/>
        <pt x="296" y="947" on="1"/>
        <pt x="372" y="1003" on="0"/>
        <pt x="486" y="937" on="1"/>
        <pt x="569" y="890" on="0"/>
        <pt x="611" y="837" on="1"/>
        <pt x="630" y="813" on="0"/>
        <pt x="621" y="779" on="0"/>
        <pt x="569" y="790" on="1"/>
        <pt x="340" y="837" on="0"/>
        <pt x="181" y="623" on="1"/>
        <pt x="343" y="504" on="0"/>
        <pt x="522" y="515" on="1"/>
        <pt x="548" y="517" on="0"/>
        <pt x="600" y="553" on="1"/>
        <pt x="760" y="668" on="0"/>
        <pt x="821" y="704" on="1"/>
        <pt x="912" y="759" on="0"/>
        <pt x="902" y="684" on="1"/>
        <pt x="856" y="528" on="1"/>
        <pt x="847" y="497" on="0"/>
        <pt x="823" y="486" on="1"/>
        <pt x="684" y="417" on="0"/>
        <pt x="492" y="267" on="1"/>
        <pt x="230" y="61" on="0"/>
        <pt x="239" y="-262" on="1"/>
        <pt x="248" y="-576" on="0"/>
      </contour>
    </TTGlyph>
    <TTGlyph name="aAyn.medi" xMin="-101" yMin="-30" xMax="829" yMax="554">
      <contour>
        <pt x="724" y="215" on="1"/>
        <pt x="801" y="214" on="0"/>
        <pt x="821" y="151" on="1"/>
        <pt x="828" y="130" on="0"/>
        <pt x="829" y="108" on="1"/>
        <pt x="826" y="-30" on="0"/>
        <pt x="756" y="-30" on="1"/>
        <pt x="545" y="-29" on="0"/>
        <pt x="346" y="178" on="1"/>
        <pt x="136" y="-30" on="0"/>
        <pt x="3" y="-30" on="1"/>
        <pt x="-70" y="-30" on="0"/>
        <pt x="-130" y="175" on="0"/>
        <pt x="-70" y="205" on="1"/>
        <pt x="-51" y="214" on="0"/>
        <pt x="-27" y="215" on="1"/>
        <pt x="104" y="219" on="0"/>
        <pt x="188" y="272" on="1"/>
        <pt x="145" y="303" on="0"/>
        <pt x="13" y="321" on="1"/>
        <pt x="-31" y="327" on="0"/>
        <pt x="-30" y="379" on="1"/>
        <pt x="-25" y="463" on="0"/>
        <pt x="66" y="542" on="1"/>
        <pt x="240" y="690" on="0"/>
        <pt x="495" y="554" on="1"/>
        <pt x="624" y="483" on="0"/>
        <pt x="614" y="404" on="1"/>
        <pt x="607" y="328" on="0"/>
        <pt x="492" y="256" on="1"/>
        <pt x="562" y="217" on="0"/>
      </contour>
    </TTGlyph>
    <TTGlyph name="aAyn.medi_AynYaaFina" xMin="-96" yMin="-73" xMax="905" yMax="556">
      <contour>
        <pt x="118" y="359" on="1"/>
        <pt x="124" y="487" on="0"/>
        <pt x="205" y="542" on="1"/>
        <pt x="403" y="676" on="0"/>
        <pt x="599" y="555" on="1"/>
        <pt x="701" y="492" on="0"/>
        <pt x="738" y="418" on="1"/>
        <pt x="753" y="385" on="0"/>
        <pt x="727" y="291" on="0"/>
        <pt x="681" y="246" on="1"/>
        <pt x="748" y="216" on="0"/>
        <pt x="879" y="214" on="0"/>
        <pt x="899" y="154" on="1"/>
        <pt x="905" y="135" on="0"/>
        <pt x="904" y="75" on="1"/>
        <pt x="904" y="-29" on="0"/>
        <pt x="845" y="-30" on="1"/>
        <pt x="718" y="-29" on="0"/>
        <pt x="479" y="124" on="1"/>
        <pt x="477" y="124" on="0"/>
        <pt x="474" y="123" on="1"/>
        <pt x="174" y="22" on="0"/>
        <pt x="36" y="-72" on="1"/>
        <pt x="-13" y="-104" on="0"/>
        <pt x="-99" y="-15" on="0"/>
        <pt x="-93" y="73" on="0"/>
        <pt x="-71" y="98" on="1"/>
        <pt x="-11" y="159" on="0"/>
        <pt x="256" y="262" on="1"/>
        <pt x="207" y="287" on="0"/>
        <pt x="135" y="302" on="0"/>
        <pt x="122" y="335" on="1"/>
        <pt x="118" y="347" on="0"/>
      </contour>
    </TTGlyph>
    <TTGlyph name="aBaa.fina" xMin="101" yMin="-192" xMax="1873" yMax="532">
      <contour>
        <pt x="166" y="516" on="1"/>
        <pt x="191" y="556" on="0"/>
        <pt x="219" y="532" on="1"/>
        <pt x="242" y="511" on="0"/>
        <pt x="223" y="478" on="1"/>
        <pt x="169" y="385" on="0"/>
        <pt x="192" y="323" on="1"/>
        <pt x="290" y="60" on="0"/>
        <pt x="830" y="76" on="1"/>
        <pt x="1213" y="87" on="0"/>
        <pt x="1509" y="214" on="1"/>
        <pt x="1560" y="236" on="0"/>
        <pt x="1564" y="300" on="1"/>
        <pt x="1566" y="339" on="0"/>
        <pt x="1600" y="340" on="1"/>
        <pt x="1633" y="340" on="0"/>
        <pt x="1641" y="287" on="1"/>
        <pt x="1651" y="222" on="0"/>
        <pt x="1786" y="215" on="1"/>
        <pt x="1844" y="212" on="0"/>
        <pt x="1863" y="159" on="1"/>
        <pt x="1871" y="139" on="0"/>
        <pt x="1872" y="78" on="1"/>
        <pt x="1874" y="-30" on="0"/>
        <pt x="1814" y="-30" on="1"/>
        <pt x="1722" y="-30" on="0"/>
        <pt x="1626" y="81" on="1"/>
        <pt x="1283" y="-192" on="0"/>
        <pt x="780" y="-192" on="1"/>
        <pt x="259" y="-193" on="0"/>
        <pt x="133" y="72" on="1"/>
        <pt x="68" y="209" on="0"/>
        <pt x="101" y="340" on="1"/>
        <pt x="133" y="458" on="0"/>
      </contour>
    </TTGlyph>
    <TTGlyph name="aBaa.fina_BaaBaaIsol" xMin="82" yMin="-147" xMax="1622" yMax="530">
      <contour>
        <pt x="1577" y="292" on="1"/>
        <pt x="1669" y="238" on="0"/>
        <pt x="1621" y="104" on="1"/>
        <pt x="1594" y="35" on="0"/>
        <pt x="1526" y="65" on="1"/>
        <pt x="1223" y="-146" on="0"/>
        <pt x="691" y="-147" on="1"/>
        <pt x="206" y="-146" on="0"/>
        <pt x="105" y="134" on="1"/>
        <pt x="62" y="249" on="0"/>
        <pt x="103" y="463" on="0"/>
        <pt x="153" y="525" on="1"/>
        <pt x="175" y="553" on="0"/>
        <pt x="235" y="507" on="0"/>
        <pt x="206" y="463" on="1"/>
        <pt x="159" y="392" on="0"/>
        <pt x="174" y="318" on="1"/>
        <pt x="214" y="110" on="0"/>
        <pt x="768" y="109" on="1"/>
        <pt x="1023" y="108" on="0"/>
        <pt x="1273" y="174" on="1"/>
        <pt x="1412" y="211" on="0"/>
        <pt x="1469" y="266" on="0"/>
        <pt x="1487" y="349" on="1"/>
        <pt x="1498" y="400" on="0"/>
        <pt x="1595" y="369" on="0"/>
      </contour>
    </TTGlyph>
    <TTGlyph name="aBaa.init" xMin="-95" yMin="-30" xMax="240" yMax="590">
      <contour>
        <pt x="51" y="436" on="1"/>
        <pt x="94" y="563" on="1"/>
        <pt x="117" y="631" on="0"/>
        <pt x="145" y="590" on="1"/>
        <pt x="266" y="417" on="0"/>
        <pt x="214" y="-30" on="0"/>
        <pt x="4" y="-30" on="1"/>
        <pt x="-38" y="-30" on="0"/>
        <pt x="-90" y="107" on="0"/>
        <pt x="-99" y="192" on="0"/>
        <pt x="-58" y="209" on="1"/>
        <pt x="-43" y="215" on="0"/>
        <pt x="-26" y="215" on="1"/>
        <pt x="93" y="212" on="0"/>
        <pt x="141" y="262" on="1"/>
        <pt x="124" y="313" on="0"/>
        <pt x="38" y="395" on="0"/>
      </contour>
    </TTGlyph>
    <TTGlyph name="aBaa.init_AboveHaaIsol" xMin="-130" yMin="412" xMax="755" yMax="1187">
      <contour>
        <pt x="-112" y="462" on="1"/>
        <pt x="-71" y="521" on="0"/>
        <pt x="28" y="580" on="1"/>
        <pt x="246" y="713" on="0"/>
        <pt x="377" y="864" on="0"/>
        <pt x="427" y="1058" on="0"/>
        <pt x="482" y="1186" on="0"/>
        <pt x="605" y="1186" on="0"/>
        <pt x="658" y="1117" on="1"/>
        <pt x="730" y="1022" on="0"/>
        <pt x="754" y="732" on="1"/>
        <pt x="757" y="695" on="0"/>
        <pt x="730" y="681" on="1"/>
        <pt x="720" y="676" on="0"/>
        <pt x="708" y="677" on="1"/>
        <pt x="662" y="678" on="0"/>
        <pt x="647" y="731" on="1"/>
        <pt x="609" y="894" on="0"/>
        <pt x="562" y="926" on="1"/>
        <pt x="547" y="935" on="0"/>
        <pt x="523" y="893" on="0"/>
        <pt x="494" y="819" on="1"/>
        <pt x="419" y="614" on="0"/>
        <pt x="165" y="461" on="1"/>
        <pt x="157" y="456" on="0"/>
        <pt x="89" y="412" on="1"/>
        <pt x="-2" y="355" on="0"/>
        <pt x="-101" y="418" on="1"/>
        <pt x="-129" y="437" on="1"/>
      </contour>
    </TTGlyph>
    <TTGlyph name="aBaa.init_BaaBaaHaaInit" xMin="-146" yMin="537" xMax="124" yMax="947">
      <contour>
        <pt x="-49" y="537" on="1"/>
        <pt x="-80" y="534" on="0"/>
        <pt x="-132" y="559" on="0"/>
        <pt x="-160" y="661" on="0"/>
        <pt x="-119" y="771" on="0"/>
        <pt x="-62" y="776" on="1"/>
        <pt x="11" y="781" on="0"/>
        <pt x="14" y="898" on="1"/>
        <pt x="15" y="933" on="0"/>
        <pt x="65" y="961" on="0"/>
        <pt x="128" y="914" on="0"/>
        <pt x="124" y="805" on="1"/>
        <pt x="111" y="556" on="0"/>
      </contour>
    </TTGlyph>
    <TTGlyph name="aBaa.init_BaaBaaIsol" xMin="-131" yMin="-21" xMax="370" yMax="447">
      <contour>
        <pt x="-76" y="82" on="1"/>
        <pt x="-158" y="135" on="0"/>
        <pt x="-130" y="237" on="1"/>
        <pt x="-82" y="347" on="0"/>
        <pt x="-17" y="303" on="1"/>
        <pt x="115" y="211" on="0"/>
        <pt x="249" y="198" on="1"/>
        <pt x="246" y="214" on="0"/>
        <pt x="190" y="273" on="0"/>
        <pt x="196" y="301" on="1"/>
        <pt x="226" y="442" on="1"/>
        <pt x="249" y="552" on="0"/>
        <pt x="308" y="447" on="1"/>
        <pt x="366" y="333" on="0"/>
        <pt x="370" y="196" on="1"/>
        <pt x="376" y="-1" on="0"/>
        <pt x="260" y="-21" on="1"/>
        <pt x="114" y="-44" on="0"/>
      </contour>
    </TTGlyph>
    <TTGlyph name="aBaa.init_BaaBaaMemInit" xMin="-137" yMin="477" xMax="134" yMax="873">
      <contour>
        <pt x="-28" y="477" on="1"/>
        <pt x="-108" y="457" on="0"/>
        <pt x="-133" y="507" on="1"/>
        <pt x="-149" y="538" on="0"/>
        <pt x="-125" y="713" on="0"/>
        <pt x="-61" y="714" on="1"/>
        <pt x="-33" y="715" on="0"/>
        <pt x="16" y="780" on="0"/>
        <pt x="25" y="823" on="1"/>
        <pt x="40" y="891" on="0"/>
        <pt x="136" y="855" on="0"/>
        <pt x="134" y="804" on="1"/>
        <pt x="105" y="510" on="0"/>
      </contour>
    </TTGlyph>
    <TTGlyph name="aBaa.init_BaaBaaYaaIsol" xMin="-131" yMin="248" xMax="158" yMax="677">
      <contour>
        <pt x="71" y="632" on="1"/>
        <pt x="77" y="684" on="0"/>
        <pt x="159" y="670" on="0"/>
        <pt x="157" y="607" on="1"/>
        <pt x="147" y="252" on="0"/>
        <pt x="-34" y="248" on="1"/>
        <pt x="-121" y="246" on="0"/>
        <pt x="-140" y="487" on="0"/>
        <pt x="-52" y="494" on="1"/>
        <pt x="56" y="501" on="0"/>
      </contour>
    </TTGlyph>
    <TTGlyph name="aBaa.init_BaaDalIsol" xMin="-146" yMin="-22" xMax="219" yMax="585">
      <contour>
        <pt x="123" y="254" on="1"/>
        <pt x="90" y="312" on="0"/>
        <pt x="-3" y="385" on="0"/>
        <pt x="4" y="430" on="1"/>
        <pt x="28" y="585" on="1"/>
        <pt x="48" y="714" on="0"/>
        <pt x="218" y="433" on="0"/>
        <pt x="218" y="193" on="1"/>
        <pt x="218" y="-3" on="0"/>
        <pt x="65" y="-22" on="1"/>
        <pt x="-16" y="-32" on="0"/>
        <pt x="-171" y="88" on="0"/>
        <pt x="-121" y="285" on="0"/>
        <pt x="79" y="222" on="0"/>
      </contour>
    </TTGlyph>
    <TTGlyph name="aBaa.init_BaaHaaInit" xMin="-67" yMin="447" xMax="813" yMax="1160">
      <contour>
        <pt x="812" y="738" on="1"/>
        <pt x="820" y="687" on="0"/>
        <pt x="751" y="679" on="0"/>
        <pt x="736" y="729" on="1"/>
        <pt x="704" y="846" on="0"/>
        <pt x="666" y="882" on="1"/>
        <pt x="625" y="921" on="0"/>
        <pt x="597" y="877" on="1"/>
        <pt x="388" y="540" on="0"/>
        <pt x="208" y="462" on="1"/>
        <pt x="119" y="422" on="0"/>
        <pt x="46" y="447" on="1"/>
        <pt x="-37" y="475" on="0"/>
        <pt x="-59" y="549" on="1"/>
        <pt x="-66" y="574" on="1"/>
        <pt x="-43" y="582" on="1"/>
        <pt x="153" y="655" on="0"/>
        <pt x="329" y="770" on="1"/>
        <pt x="460" y="858" on="0"/>
        <pt x="547" y="1157" on="0"/>
        <pt x="620" y="1160" on="1"/>
        <pt x="703" y="1162" on="0"/>
        <pt x="754" y="1002" on="1"/>
        <pt x="793" y="876" on="0"/>
      </contour>
    </TTGlyph>
    <TTGlyph name="aBaa.init_BaaHaaMemInit" xMin="-658" yMin="745" xMax="257" yMax="1296">
      <contour>
        <pt x="100" y="1296" on="1"/>
        <pt x="200" y="1299" on="0"/>
        <pt x="240" y="1194" on="1"/>
        <pt x="251" y="1162" on="0"/>
        <pt x="256" y="1123" on="1"/>
        <pt x="272" y="995" on="0"/>
        <pt x="249" y="834" on="1"/>
        <pt x="245" y="808" on="0"/>
        <pt x="194" y="784" on="0"/>
        <pt x="140" y="830" on="0"/>
        <pt x="142" y="867" on="1"/>
        <pt x="149" y="1037" on="0"/>
        <pt x="58" y="1030" on="1"/>
        <pt x="42" y="1029" on="0"/>
        <pt x="1" y="993" on="1"/>
        <pt x="-189" y="828" on="0"/>
        <pt x="-324" y="785" on="1"/>
        <pt x="-545" y="714" on="0"/>
        <pt x="-686" y="776" on="0"/>
        <pt x="-658" y="858" on="1"/>
        <pt x="-648" y="881" on="0"/>
        <pt x="-598" y="893" on="1"/>
        <pt x="-320" y="959" on="0"/>
        <pt x="-183" y="1050" on="1"/>
        <pt x="-119" y="1093" on="0"/>
        <pt x="-77" y="1149" on="1"/>
        <pt x="32" y="1294" on="0"/>
      </contour>
    </TTGlyph>
    <TTGlyph name="aBaa.init_BaaHehInit" xMin="-45" yMin="-100" xMax="657" yMax="392">
      <contour>
        <pt x="501" y="115" on="1"/>
        <pt x="456" y="191" on="0"/>
        <pt x="370" y="183" on="1"/>
        <pt x="252" y="171" on="0"/>
        <pt x="78" y="68" on="0"/>
        <pt x="29" y="-63" on="1"/>
        <pt x="6" y="-123" on="0"/>
        <pt x="-33" y="-100" on="1"/>
        <pt x="-69" y="-75" on="0"/>
        <pt x="-44" y="-8" on="1"/>
        <pt x="45" y="238" on="0"/>
        <pt x="392" y="452" on="0"/>
        <pt x="551" y="392" on="1"/>
        <pt x="643" y="357" on="0"/>
        <pt x="671" y="183" on="0"/>
        <pt x="605" y="111" on="1"/>
        <pt x="559" y="61" on="0"/>
        <pt x="516" y="98" on="1"/>
        <pt x="507" y="106" on="0"/>
      </contour>
    </TTGlyph>
    <TTGlyph name="aBaa.init_BaaMemHaaInit" xMin="-281" yMin="679" xMax="214" yMax="1380">
      <contour>
        <pt x="-24" y="1380" on="1"/>
        <pt x="92" y="1397" on="0"/>
        <pt x="200" y="1297" on="1"/>
        <pt x="222" y="1276" on="0"/>
        <pt x="213" y="1236" on="1"/>
        <pt x="213" y="1236" on="0"/>
        <pt x="181" y="1083" on="1"/>
        <pt x="170" y="1028" on="0"/>
        <pt x="127" y="1065" on="1"/>
        <pt x="-42" y="1215" on="0"/>
        <pt x="-179" y="1064" on="1"/>
        <pt x="-123" y="912" on="0"/>
        <pt x="39" y="832" on="1"/>
        <pt x="64" y="819" on="0"/>
        <pt x="69" y="814" on="1"/>
        <pt x="108" y="771" on="0"/>
        <pt x="26" y="716" on="1"/>
        <pt x="-32" y="678" on="0"/>
        <pt x="-201" y="680" on="0"/>
        <pt x="-272" y="848" on="0"/>
        <pt x="-280" y="946" on="1"/>
        <pt x="-297" y="1157" on="0"/>
        <pt x="-168" y="1299" on="1"/>
        <pt x="-107" y="1368" on="0"/>
      </contour>
    </TTGlyph>
    <TTGlyph name="aBaa.init_BaaMemInit" xMin="-251" yMin="386" xMax="317" yMax="1003">
      <contour>
        <pt x="0" y="736" on="1"/>
        <pt x="-114" y="667" on="0"/>
        <pt x="-129" y="550" on="0"/>
        <pt x="-79" y="417" on="0"/>
        <pt x="-148" y="386" on="1"/>
        <pt x="-230" y="352" on="0"/>
        <pt x="-251" y="478" on="1"/>
        <pt x="-263" y="552" on="0"/>
        <pt x="-244" y="637" on="1"/>
        <pt x="-167" y="967" on="0"/>
        <pt x="59" y="1003" on="1"/>
        <pt x="177" y="1020" on="0"/>
        <pt x="280" y="927" on="1"/>
        <pt x="322" y="887" on="0"/>
        <pt x="317" y="849" on="1"/>
        <pt x="293" y="697" on="0"/>
        <pt x="246" y="678" on="1"/>
        <pt x="228" y="671" on="0"/>
        <pt x="201" y="692" on="1"/>
        <pt x="83" y="785" on="0"/>
      </contour>
    </TTGlyph>
    <TTGlyph name="aBaa.init_BaaMemIsol" xMin="-182" yMin="351" xMax="638" yMax="747">
      <contour>
        <pt x="637" y="577" on="1"/>
        <pt x="630" y="532" on="0"/>
        <pt x="552" y="412" on="0"/>
        <pt x="531" y="405" on="1"/>
        <pt x="476" y="388" on="0"/>
        <pt x="449" y="451" on="1"/>
        <pt x="431" y="496" on="0"/>
        <pt x="373" y="502" on="1"/>
        <pt x="247" y="513" on="0"/>
        <pt x="-13" y="351" on="1"/>
        <pt x="-115" y="288" on="0"/>
        <pt x="-174" y="369" on="1"/>
        <pt x="-201" y="409" on="0"/>
        <pt x="-182" y="433" on="1"/>
        <pt x="-149" y="471" on="0"/>
        <pt x="-31" y="552" on="1"/>
        <pt x="253" y="749" on="0"/>
        <pt x="428" y="747" on="1"/>
        <pt x="511" y="746" on="0"/>
        <pt x="649" y="650" on="0"/>
      </contour>
    </TTGlyph>
    <TTGlyph name="aBaa.init_BaaNonIsol" xMin="-178" yMin="274" xMax="180" yMax="707">
      <component glyphName="aBaa.init_BaaRaaIsol" x="-39" y="149" flags="0x1004"/>
    </TTGlyph>
    <TTGlyph name="aBaa.init_BaaRaaIsol" xMin="-139" yMin="125" xMax="219" yMax="558">
      <contour>
        <pt x="120" y="404" on="1"/>
        <pt x="164" y="448" on="0"/>
        <pt x="144" y="556" on="0"/>
        <pt x="207" y="559" on="0"/>
        <pt x="218" y="517" on="1"/>
        <pt x="255" y="359" on="0"/>
        <pt x="182" y="143" on="0"/>
        <pt x="-25" y="108" on="0"/>
        <pt x="-95" y="141" on="1"/>
        <pt x="-144" y="166" on="0"/>
        <pt x="-138" y="238" on="1"/>
        <pt x="-126" y="395" on="1"/>
        <pt x="-124" y="428" on="0"/>
        <pt x="-109" y="441" on="1"/>
        <pt x="-79" y="464" on="0"/>
        <pt x="-14" y="389" on="0"/>
        <pt x="97" y="381" on="0"/>
      </contour>
    </TTGlyph>
    <TTGlyph name="aBaa.init_BaaSenAltInit" xMin="-88" yMin="-37" xMax="323" yMax="892">
      <component glyphName="aBaa.init_BaaSenInit" x="17" y="-138" flags="0x1004"/>
    </TTGlyph>
    <TTGlyph name="aBaa.init_BaaSenInit" xMin="-105" yMin="101" xMax="306" yMax="1030">
      <contour>
        <pt x="81" y="1030" on="1"/>
        <pt x="302" y="624" on="0"/>
        <pt x="305" y="274" on="1"/>
        <pt x="306" y="222" on="0"/>
        <pt x="266" y="102" on="0"/>
        <pt x="214" y="101" on="1"/>
        <pt x="114" y="104" on="0"/>
        <pt x="-50" y="294" on="1"/>
        <pt x="-104" y="357" on="0"/>
        <pt x="-104" y="481" on="1"/>
        <pt x="-104" y="531" on="0"/>
        <pt x="-71" y="531" on="1"/>
        <pt x="-49" y="531" on="0"/>
        <pt x="-33" y="501" on="1"/>
        <pt x="37" y="377" on="0"/>
        <pt x="214" y="317" on="1"/>
        <pt x="189" y="472" on="0"/>
        <pt x="-4" y="776" on="1"/>
        <pt x="-20" y="802" on="0"/>
        <pt x="-17" y="837" on="1"/>
        <pt x="-17" y="837" on="0"/>
        <pt x="-1" y="1027" on="1"/>
        <pt x="10" y="1159" on="0"/>
      </contour>
    </TTGlyph>
    <TTGlyph name="aBaa.init_BaaYaaIsol" xMin="-154" yMin="103" xMax="277" yMax="1004">
      <contour>
        <pt x="-12" y="968" on="1"/>
        <pt x="3" y="1032" on="0"/>
        <pt x="56" y="1003" on="1"/>
        <pt x="109" y="973" on="0"/>
        <pt x="174" y="862" on="1"/>
        <pt x="321" y="613" on="0"/>
        <pt x="277" y="405" on="1"/>
        <pt x="258" y="317" on="0"/>
        <pt x="210" y="255" on="1"/>
        <pt x="100" y="111" on="0"/>
        <pt x="-109" y="103" on="1"/>
        <pt x="-123" y="103" on="0"/>
        <pt x="-133" y="107" on="1"/>
        <pt x="-170" y="123" on="0"/>
        <pt x="-154" y="166" on="1"/>
        <pt x="-110" y="286" on="1"/>
        <pt x="-95" y="303" on="0"/>
        <pt x="-73" y="306" on="1"/>
        <pt x="88" y="328" on="0"/>
        <pt x="176" y="433" on="1"/>
        <pt x="167" y="525" on="0"/>
        <pt x="49" y="686" on="0"/>
        <pt x="-17" y="733" on="1"/>
        <pt x="-55" y="763" on="0"/>
        <pt x="-45" y="811" on="1"/>
      </contour>
    </TTGlyph>
    <TTGlyph name="aBaa.init_High" xMin="-59" yMin="-30" xMax="177" yMax="551">
      <contour>
        <pt x="7" y="522" on="1"/>
        <pt x="11" y="541" on="0"/>
        <pt x="20" y="550" on="1"/>
        <pt x="46" y="577" on="0"/>
        <pt x="84" y="541" on="1"/>
        <pt x="126" y="495" on="0"/>
        <pt x="181" y="286" on="0"/>
        <pt x="173" y="184" on="0"/>
        <pt x="170" y="164" on="1"/>
        <pt x="140" y="-6" on="0"/>
        <pt x="8" y="-30" on="1"/>
        <pt x="-23" y="-34" on="0"/>
        <pt x="-34" y="-17" on="1"/>
        <pt x="-54" y="14" on="0"/>
        <pt x="-59" y="38" on="1"/>
        <pt x="-94" y="223" on="0"/>
        <pt x="-22" y="215" on="1"/>
        <pt x="8" y="210" on="0"/>
        <pt x="46" y="215" on="1"/>
        <pt x="26" y="273" on="0"/>
        <pt x="-22" y="343" on="0"/>
        <pt x="-18" y="371" on="1"/>
      </contour>
    </TTGlyph>
    <TTGlyph name="aBaa.init_Tatweel" xMin="-106" yMin="-30" xMax="454" yMax="575">
      <contour>
        <pt x="238" y="417" on="1"/>
        <pt x="281" y="544" on="1"/>
        <pt x="289" y="566" on="0"/>
        <pt x="301" y="574" on="1"/>
        <pt x="336" y="598" on="0"/>
        <pt x="372" y="548" on="1"/>
        <pt x="437" y="456" on="0"/>
        <pt x="454" y="269" on="1"/>
        <pt x="462" y="173" on="0"/>
        <pt x="417" y="101" on="1"/>
        <pt x="324" y="-47" on="0"/>
        <pt x="2" y="-30" on="1"/>
        <pt x="-51" y="-27" on="0"/>
        <pt x="-107" y="141" on="0"/>
        <pt x="-105" y="163" on="1"/>
        <pt x="-101" y="229" on="0"/>
        <pt x="-30" y="216" on="1"/>
        <pt x="118" y="188" on="0"/>
        <pt x="308" y="258" on="1"/>
        <pt x="284" y="307" on="0"/>
        <pt x="225" y="374" on="0"/>
      </contour>
    </TTGlyph>
    <TTGlyph name="aBaa.init_YaaBarree" xMin="-436" yMin="556" xMax="-27" yMax="1183">
      <contour>
        <pt x="-436" y="1137" on="1"/>
        <pt x="-440" y="1169" on="0"/>
        <pt x="-375" y="1195" on="0"/>
        <pt x="-300" y="1128" on="1"/>
        <pt x="-289" y="1118" on="0"/>
        <pt x="-190" y="1022" on="1"/>
        <pt x="-12" y="848" on="0"/>
        <pt x="-27" y="661" on="1"/>
        <pt x="-32" y="601" on="0"/>
        <pt x="-36" y="590" on="1"/>
        <pt x="-49" y="551" on="0"/>
        <pt x="-83" y="557" on="1"/>
        <pt x="-128" y="566" on="0"/>
        <pt x="-139" y="640" on="1"/>
        <pt x="-153" y="750" on="0"/>
        <pt x="-363" y="924" on="1"/>
        <pt x="-391" y="948" on="0"/>
        <pt x="-410" y="976" on="0"/>
        <pt x="-416" y="1000" on="1"/>
      </contour>
    </TTGlyph>
    <TTGlyph name="aBaa.isol" xMin="97" yMin="-42" xMax="1712" yMax="764">
      <contour>
        <pt x="169" y="151" on="1"/>
        <pt x="53" y="276" on="0"/>
        <pt x="97" y="470" on="1"/>
        <pt x="116" y="548" on="0"/>
        <pt x="184" y="637" on="1"/>
        <pt x="209" y="669" on="0"/>
        <pt x="232" y="648" on="1"/>
        <pt x="255" y="628" on="0"/>
        <pt x="231" y="599" on="1"/>
        <pt x="168" y="521" on="0"/>
        <pt x="187" y="453" on="1"/>
        <pt x="255" y="217" on="0"/>
        <pt x="831" y="217" on="1"/>
        <pt x="1319" y="216" on="0"/>
        <pt x="1617" y="396" on="1"/>
        <pt x="1591" y="471" on="0"/>
        <pt x="1509" y="535" on="1"/>
        <pt x="1488" y="552" on="0"/>
        <pt x="1494" y="583" on="1"/>
        <pt x="1533" y="764" on="1"/>
        <pt x="1545" y="820" on="0"/>
        <pt x="1598" y="752" on="1"/>
        <pt x="1721" y="591" on="0"/>
        <pt x="1711" y="355" on="1"/>
        <pt x="1706" y="239" on="0"/>
        <pt x="1643" y="196" on="1"/>
        <pt x="1334" y="-16" on="0"/>
        <pt x="855" y="-42" on="1"/>
        <pt x="373" y="-68" on="0"/>
      </contour>
    </TTGlyph>
    <TTGlyph name="aBaa.medi" xMin="-87" yMin="-30" xMax="554" yMax="366">
      <contour>
        <pt x="336" y="296" on="1"/>
        <pt x="406" y="219" on="0"/>
        <pt x="474" y="214" on="1"/>
        <pt x="530" y="209" on="0"/>
        <pt x="545" y="172" on="1"/>
        <pt x="554" y="146" on="0"/>
        <pt x="554" y="26" on="0"/>
        <pt x="534" y="-29" on="0"/>
        <pt x="504" y="-30" on="1"/>
        <pt x="385" y="-30" on="0"/>
        <pt x="266" y="100" on="1"/>
        <pt x="156" y="-30" on="0"/>
        <pt x="4" y="-30" on="1"/>
        <pt x="-40" y="-29" on="0"/>
        <pt x="-58" y="25" on="1"/>
        <pt x="-86" y="108" on="1"/>
        <pt x="-97" y="142" on="0"/>
        <pt x="-62" y="212" on="0"/>
        <pt x="-26" y="215" on="1"/>
        <pt x="214" y="233" on="0"/>
        <pt x="258" y="335" on="1"/>
        <pt x="271" y="366" on="0"/>
        <pt x="293" y="366" on="1"/>
        <pt x="323" y="366" on="0"/>
        <pt x="334" y="299" on="0"/>
      </contour>
    </TTGlyph>
    <TTGlyph name="aBaa.medi_BaaBaaHaaInit" xMin="-142" yMin="433" xMax="922" yMax="935">
      <contour>
        <pt x="189" y="708" on="1"/>
        <pt x="356" y="784" on="0"/>
        <pt x="499" y="934" on="1"/>
        <pt x="607" y="1048" on="0"/>
        <pt x="701" y="923" on="1"/>
        <pt x="714" y="905" on="0"/>
        <pt x="726" y="884" on="1"/>
        <pt x="774" y="796" on="0"/>
        <pt x="821" y="785" on="1"/>
        <pt x="851" y="778" on="0"/>
        <pt x="862" y="778" on="1"/>
        <pt x="943" y="776" on="0"/>
        <pt x="921" y="653" on="1"/>
        <pt x="918" y="635" on="0"/>
        <pt x="911" y="605" on="1"/>
        <pt x="895" y="541" on="0"/>
        <pt x="856" y="538" on="1"/>
        <pt x="703" y="530" on="0"/>
        <pt x="591" y="734" on="1"/>
        <pt x="587" y="741" on="0"/>
        <pt x="584" y="745" on="1"/>
        <pt x="554" y="777" on="0"/>
        <pt x="451" y="684" on="1"/>
        <pt x="300" y="549" on="0"/>
        <pt x="21" y="437" on="1"/>
        <pt x="-90" y="393" on="0"/>
        <pt x="-141" y="434" on="1"/>
        <pt x="-191" y="475" on="0"/>
        <pt x="-84" y="610" on="0"/>
        <pt x="-54" y="624" on="0"/>
        <pt x="132" y="682" on="0"/>
      </contour>
    </TTGlyph>
    <TTGlyph name="aBaa.medi_BaaBaaInit" xMin="-96" yMin="-30" xMax="395" yMax="339">
      <contour>
        <pt x="395" y="142" on="1"/>
        <pt x="350" y="36" on="0"/>
        <pt x="281" y="79" on="1"/>
        <pt x="253" y="96" on="0"/>
        <pt x="226" y="113" on="1"/>
        <pt x="110" y="-28" on="0"/>
        <pt x="5" y="-30" on="1"/>
        <pt x="-64" y="-31" on="0"/>
        <pt x="-96" y="86" on="1"/>
        <pt x="-126" y="203" on="0"/>
        <pt x="-31" y="216" on="1"/>
        <pt x="146" y="236" on="0"/>
        <pt x="207" y="325" on="1"/>
        <pt x="238" y="369" on="0"/>
        <pt x="277" y="339" on="1"/>
        <pt x="312" y="313" on="0"/>
        <pt x="334" y="298" on="1"/>
        <pt x="429" y="225" on="0"/>
      </contour>
    </TTGlyph>
    <TTGlyph name="aBaa.medi_BaaBaaMemInit" xMin="-241" yMin="472" xMax="370" yMax="886">
      <contour>
        <pt x="312" y="714" on="1"/>
        <pt x="380" y="713" on="0"/>
        <pt x="359" y="499" on="0"/>
        <pt x="325" y="481" on="1"/>
        <pt x="312" y="475" on="0"/>
        <pt x="296" y="473" on="1"/>
        <pt x="187" y="478" on="0"/>
        <pt x="30" y="651" on="1"/>
        <pt x="21" y="661" on="0"/>
        <pt x="-9" y="655" on="1"/>
        <pt x="-90" y="634" on="0"/>
        <pt x="-189" y="500" on="0"/>
        <pt x="-247" y="544" on="0"/>
        <pt x="-241" y="579" on="1"/>
        <pt x="-224" y="679" on="0"/>
        <pt x="-169" y="754" on="1"/>
        <pt x="-68" y="886" on="0"/>
        <pt x="35" y="886" on="1"/>
        <pt x="102" y="885" on="0"/>
        <pt x="154" y="814" on="1"/>
        <pt x="231" y="714" on="0"/>
      </contour>
    </TTGlyph>
    <TTGlyph name="aBaa.medi_BaaBaaYaaIsol" xMin="-96" yMin="26" xMax="775" yMax="707">
      <contour>
        <pt x="699" y="248" on="1"/>
        <pt x="581" y="247" on="0"/>
        <pt x="356" y="483" on="0"/>
        <pt x="307" y="479" on="1"/>
        <pt x="165" y="468" on="0"/>
        <pt x="63" y="330" on="1"/>
        <pt x="36" y="292" on="0"/>
        <pt x="53" y="247" on="1"/>
        <pt x="94" y="134" on="0"/>
        <pt x="51" y="50" on="1"/>
        <pt x="19" y="-6" on="0"/>
        <pt x="-36" y="26" on="1"/>
        <pt x="-109" y="72" on="0"/>
        <pt x="-81" y="254" on="0"/>
        <pt x="-42" y="336" on="1"/>
        <pt x="52" y="533" on="0"/>
        <pt x="207" y="659" on="1"/>
        <pt x="264" y="706" on="0"/>
        <pt x="418" y="707" on="0"/>
        <pt x="522" y="585" on="1"/>
        <pt x="602" y="491" on="0"/>
        <pt x="686" y="495" on="1"/>
        <pt x="763" y="498" on="0"/>
        <pt x="786" y="253" on="0"/>
      </contour>
    </TTGlyph>
    <TTGlyph name="aBaa.medi_BaaHehMedi" xMin="-48" yMin="-106" xMax="686" yMax="357">
      <contour>
        <pt x="57" y="7" on="1"/>
        <pt x="41" y="-17" on="0"/>
        <pt x="25" y="-73" on="0"/>
        <pt x="22" y="-80" on="1"/>
        <pt x="9" y="-112" on="0"/>
        <pt x="-21" y="-106" on="1"/>
        <pt x="-91" y="-96" on="0"/>
        <pt x="-48" y="-9" on="1"/>
        <pt x="29" y="188" on="0"/>
        <pt x="255" y="379" on="0"/>
        <pt x="400" y="357" on="1"/>
        <pt x="455" y="346" on="0"/>
        <pt x="568" y="221" on="0"/>
        <pt x="665" y="207" on="0"/>
        <pt x="689" y="88" on="0"/>
        <pt x="682" y="-12" on="0"/>
        <pt x="654" y="-31" on="0"/>
        <pt x="639" y="-30" on="1"/>
        <pt x="536" y="-23" on="0"/>
        <pt x="426" y="71" on="1"/>
        <pt x="370" y="119" on="0"/>
        <pt x="346" y="124" on="1"/>
        <pt x="148" y="143" on="0"/>
      </contour>
    </TTGlyph>
    <TTGlyph name="aBaa.medi_BaaMemAlfFina" xMin="-113" yMin="-30" xMax="552" yMax="393">
      <contour>
        <pt x="-112" y="173" on="1"/>
        <pt x="-48" y="392" on="0"/>
        <pt x="220" y="393" on="1"/>
        <pt x="279" y="392" on="0"/>
        <pt x="397" y="221" on="0"/>
        <pt x="459" y="216" on="1"/>
        <pt x="538" y="208" on="0"/>
        <pt x="565" y="-29" on="0"/>
        <pt x="487" y="-30" on="1"/>
        <pt x="340" y="-29" on="0"/>
        <pt x="213" y="140" on="1"/>
        <pt x="186" y="174" on="0"/>
        <pt x="52" y="124" on="1"/>
        <pt x="-8" y="100" on="0"/>
        <pt x="-32" y="62" on="1"/>
        <pt x="-54" y="16" on="0"/>
        <pt x="-140" y="73" on="0"/>
      </contour>
    </TTGlyph>
    <TTGlyph name="aBaa.medi_BaaMemFina" xMin="-87" yMin="-30" xMax="778" yMax="416">
      <contour>
        <pt x="390" y="416" on="1"/>
        <pt x="475" y="415" on="0"/>
        <pt x="596" y="273" on="1"/>
        <pt x="643" y="220" on="0"/>
        <pt x="671" y="215" on="1"/>
        <pt x="768" y="197" on="0"/>
        <pt x="778" y="123" on="1"/>
        <pt x="786" y="69" on="0"/>
        <pt x="743" y="-29" on="0"/>
        <pt x="696" y="-30" on="1"/>
        <pt x="577" y="-29" on="0"/>
        <pt x="469" y="116" on="1"/>
        <pt x="403" y="205" on="0"/>
        <pt x="124" y="171" on="0"/>
        <pt x="30" y="90" on="1"/>
        <pt x="-17" y="49" on="0"/>
        <pt x="-52" y="83" on="1"/>
        <pt x="-107" y="134" on="0"/>
        <pt x="-66" y="199" on="0"/>
        <pt x="6" y="251" on="1"/>
        <pt x="245" y="418" on="0"/>
      </contour>
    </TTGlyph>
    <TTGlyph name="aBaa.medi_BaaNonFina" xMin="-118" yMin="-30" xMax="509" yMax="649">
      <contour>
        <pt x="446" y="-30" on="1"/>
        <pt x="339" y="-14" on="0"/>
        <pt x="238" y="135" on="0"/>
        <pt x="178" y="343" on="1"/>
        <pt x="121" y="260" on="0"/>
        <pt x="24" y="246" on="1"/>
        <pt x="-51" y="237" on="0"/>
        <pt x="-92" y="310" on="1"/>
        <pt x="-121" y="364" on="0"/>
        <pt x="-114" y="463" on="0"/>
        <pt x="-71" y="474" on="1"/>
        <pt x="-54" y="478" on="0"/>
        <pt x="-36" y="474" on="1"/>
        <pt x="101" y="450" on="0"/>
        <pt x="152" y="605" on="1"/>
        <pt x="167" y="652" on="0"/>
        <pt x="252" y="644" on="0"/>
        <pt x="264" y="590" on="1"/>
        <pt x="322" y="329" on="0"/>
        <pt x="387" y="221" on="0"/>
        <pt x="426" y="215" on="1"/>
        <pt x="510" y="201" on="0"/>
        <pt x="508" y="82" on="1"/>
        <pt x="507" y="-7" on="0"/>
        <pt x="478" y="-24" on="1"/>
        <pt x="464" y="-32" on="0"/>
      </contour>
    </TTGlyph>
    <TTGlyph name="aBaa.medi_BaaRaaFina" xMin="-117" yMin="-30" xMax="595" yMax="663">
      <contour>
        <pt x="298" y="657" on="0"/>
        <pt x="322" y="570" on="0"/>
        <pt x="383" y="310" on="0"/>
        <pt x="454" y="225" on="0"/>
        <pt x="573" y="202" on="0"/>
        <pt x="592" y="150" on="1"/>
        <pt x="601" y="126" on="0"/>
        <pt x="594" y="72" on="1"/>
        <pt x="583" y="-30" on="0"/>
        <pt x="534" y="-30" on="1"/>
        <pt x="306" y="-30" on="0"/>
        <pt x="258" y="360" on="1"/>
        <pt x="197" y="200" on="0"/>
        <pt x="25" y="202" on="1"/>
        <pt x="-84" y="203" on="0"/>
        <pt x="-117" y="306" on="1"/>
        <pt x="-142" y="391" on="0"/>
        <pt x="-114" y="426" on="1"/>
        <pt x="-73" y="481" on="0"/>
        <pt x="-25" y="450" on="1"/>
        <pt x="-11" y="441" on="0"/>
        <pt x="-4" y="439" on="1"/>
        <pt x="113" y="430" on="0"/>
        <pt x="198" y="504" on="0"/>
        <pt x="223" y="623" on="1"/>
        <pt x="231" y="668" on="0"/>
      </contour>
    </TTGlyph>
    <TTGlyph name="aBaa.medi_BaaYaaFina" xMin="-62" yMin="-149" xMax="693" yMax="419">
      <contour>
        <pt x="467" y="311" on="1"/>
        <pt x="527" y="228" on="0"/>
        <pt x="598" y="216" on="1"/>
        <pt x="703" y="198" on="0"/>
        <pt x="682" y="24" on="0"/>
        <pt x="682" y="22" on="1"/>
        <pt x="669" y="-32" on="0"/>
        <pt x="633" y="-30" on="1"/>
        <pt x="486" y="-21" on="0"/>
        <pt x="382" y="106" on="1"/>
        <pt x="322" y="180" on="0"/>
        <pt x="235" y="185" on="0"/>
        <pt x="64" y="80" on="0"/>
        <pt x="57" y="53" on="1"/>
        <pt x="34" y="-75" on="0"/>
        <pt x="0" y="-131" on="1"/>
        <pt x="-16" y="-146" on="0"/>
        <pt x="-30" y="-149" on="1"/>
        <pt x="-52" y="-153" on="0"/>
        <pt x="-61" y="-111" on="1"/>
        <pt x="-79" y="-28" on="0"/>
        <pt x="-14" y="106" on="1"/>
        <pt x="49" y="238" on="0"/>
        <pt x="247" y="417" on="0"/>
        <pt x="388" y="420" on="0"/>
      </contour>
    </TTGlyph>
    <TTGlyph name="aBaa.medi_High" xMin="-93" yMin="-30" xMax="558" yMax="783">
      <contour>
        <pt x="75" y="625" on="1"/>
        <pt x="67" y="654" on="0"/>
        <pt x="105" y="751" on="0"/>
        <pt x="115" y="766" on="1"/>
        <pt x="127" y="779" on="0"/>
        <pt x="140" y="783" on="1"/>
        <pt x="181" y="791" on="0"/>
        <pt x="200" y="732" on="1"/>
        <pt x="215" y="689" on="0"/>
        <pt x="330" y="346" on="0"/>
        <pt x="405" y="223" on="0"/>
        <pt x="476" y="215" on="1"/>
        <pt x="517" y="210" on="0"/>
        <pt x="562" y="141" on="0"/>
        <pt x="554" y="17" on="0"/>
        <pt x="529" y="-31" on="0"/>
        <pt x="503" y="-30" on="1"/>
        <pt x="333" y="-26" on="0"/>
        <pt x="228" y="184" on="1"/>
        <pt x="158" y="-14" on="0"/>
        <pt x="7" y="-30" on="1"/>
        <pt x="-36" y="-33" on="0"/>
        <pt x="-58" y="16" on="1"/>
        <pt x="-84" y="78" on="0"/>
        <pt x="-101" y="186" on="0"/>
        <pt x="-60" y="207" on="1"/>
        <pt x="-45" y="214" on="0"/>
        <pt x="-28" y="215" on="1"/>
        <pt x="121" y="222" on="0"/>
        <pt x="170" y="319" on="1"/>
        <pt x="166" y="335" on="0"/>
        <pt x="129" y="435" on="0"/>
      </contour>
    </TTGlyph>
    <TTGlyph name="aBaa.medi_KafBaaInit" xMin="-90" yMin="-30" xMax="520" yMax="321">
      <contour>
        <pt x="199" y="163" on="1"/>
        <pt x="112" y="-15" on="0"/>
        <pt x="9" y="-30" on="1"/>
        <pt x="-37" y="-38" on="0"/>
        <pt x="-91" y="85" on="0"/>
        <pt x="-88" y="211" on="0"/>
        <pt x="-27" y="215" on="1"/>
        <pt x="131" y="221" on="0"/>
        <pt x="193" y="317" on="1"/>
        <pt x="212" y="346" on="0"/>
        <pt x="240" y="321" on="1"/>
        <pt x="309" y="261" on="0"/>
        <pt x="430" y="229" on="1"/>
        <pt x="493" y="207" on="0"/>
        <pt x="541" y="67" on="0"/>
        <pt x="498" y="26" on="0"/>
        <pt x="465" y="30" on="1"/>
        <pt x="349" y="46" on="0"/>
      </contour>
    </TTGlyph>
    <TTGlyph name="aBaa.medi_KafBaaMedi" xMin="-58" yMin="-30" xMax="426" yMax="296">
      <contour>
        <pt x="189" y="288" on="1"/>
        <pt x="275" y="236" on="0"/>
        <pt x="346" y="222" on="1"/>
        <pt x="464" y="197" on="0"/>
        <pt x="425" y="55" on="1"/>
        <pt x="407" y="-5" on="0"/>
        <pt x="360" y="7" on="1"/>
        <pt x="248" y="41" on="0"/>
        <pt x="174" y="105" on="1"/>
        <pt x="101" y="-19" on="0"/>
        <pt x="7" y="-30" on="1"/>
        <pt x="-35" y="-35" on="0"/>
        <pt x="-58" y="27" on="1"/>
        <pt x="-124" y="210" on="0"/>
        <pt x="-27" y="215" on="1"/>
        <pt x="73" y="218" on="0"/>
        <pt x="114" y="278" on="1"/>
        <pt x="125" y="293" on="0"/>
        <pt x="172" y="298" on="0"/>
      </contour>
    </TTGlyph>
    <TTGlyph name="aBaa.medi_LamBaaMemInit" xMin="-224" yMin="464" xMax="274" yMax="847">
      <contour>
        <pt x="-144" y="539" on="1"/>
        <pt x="-157" y="468" on="0"/>
        <pt x="-243" y="504" on="0"/>
        <pt x="-205" y="683" on="0"/>
        <pt x="-53" y="843" on="0"/>
        <pt x="48" y="847" on="1"/>
        <pt x="107" y="847" on="0"/>
        <pt x="141" y="801" on="1"/>
        <pt x="205" y="711" on="0"/>
        <pt x="228" y="694" on="1"/>
        <pt x="264" y="683" on="0"/>
        <pt x="284" y="566" on="0"/>
        <pt x="273" y="521" on="1"/>
        <pt x="258" y="457" on="0"/>
        <pt x="209" y="464" on="1"/>
        <pt x="145" y="475" on="0"/>
        <pt x="90" y="565" on="1"/>
        <pt x="52" y="625" on="0"/>
        <pt x="24" y="627" on="1"/>
        <pt x="-75" y="631" on="0"/>
        <pt x="-141" y="548" on="1"/>
        <pt x="-143" y="545" on="0"/>
      </contour>
    </TTGlyph>
    <TTGlyph name="aBaa.medi_SenBaaMemInit" xMin="-246" yMin="373" xMax="491" yMax="868">
      <contour>
        <pt x="-114" y="499" on="1"/>
        <pt x="-104" y="403" on="0"/>
        <pt x="-152" y="379" on="1"/>
        <pt x="-166" y="374" on="0"/>
        <pt x="-178" y="374" on="1"/>
        <pt x="-236" y="376" on="0"/>
        <pt x="-254" y="587" on="0"/>
        <pt x="-223" y="658" on="1"/>
        <pt x="-125" y="881" on="0"/>
        <pt x="33" y="868" on="1"/>
        <pt x="92" y="861" on="0"/>
        <pt x="126" y="811" on="1"/>
        <pt x="256" y="617" on="0"/>
        <pt x="400" y="633" on="1"/>
        <pt x="451" y="639" on="0"/>
        <pt x="478" y="591" on="1"/>
        <pt x="487" y="575" on="0"/>
        <pt x="491" y="557" on="1"/>
        <pt x="505" y="472" on="0"/>
        <pt x="460" y="415" on="1"/>
        <pt x="432" y="383" on="0"/>
        <pt x="395" y="384" on="1"/>
        <pt x="272" y="390" on="0"/>
        <pt x="174" y="460" on="1"/>
        <pt x="111" y="506" on="0"/>
        <pt x="13" y="611" on="1"/>
        <pt x="-6" y="632" on="0"/>
        <pt x="-118" y="537" on="0"/>
      </contour>
    </TTGlyph>
    <TTGlyph name="aDal.fina" xMin="119" yMin="-30" xMax="1028" yMax="1056">
      <contour>
        <pt x="992" y="200" on="0"/>
        <pt x="1037" y="82" on="0"/>
        <pt x="1028" y="34" on="1"/>
        <pt x="1016" y="-31" on="0"/>
        <pt x="968" y="-30" on="1"/>
        <pt x="809" y="-28" on="0"/>
        <pt x="724" y="243" on="1"/>
        <pt x="678" y="88" on="0"/>
        <pt x="593" y="48" on="1"/>
        <pt x="511" y="9" on="0"/>
        <pt x="326" y="10" on="1"/>
        <pt x="44" y="10" on="0"/>
        <pt x="120" y="319" on="1"/>
        <pt x="129" y="352" on="0"/>
        <pt x="173" y="352" on="0"/>
        <pt x="191" y="314" on="1"/>
        <pt x="210" y="275" on="0"/>
        <pt x="243" y="270" on="1"/>
        <pt x="438" y="238" on="0"/>
        <pt x="583" y="297" on="1"/>
        <pt x="661" y="329" on="0"/>
        <pt x="667" y="388" on="1"/>
        <pt x="665" y="409" on="0"/>
        <pt x="563" y="791" on="0"/>
        <pt x="546" y="873" on="0"/>
        <pt x="563" y="924" on="1"/>
        <pt x="597" y="1028" on="1"/>
        <pt x="606" y="1056" on="0"/>
        <pt x="650" y="1056" on="0"/>
        <pt x="657" y="1025" on="1"/>
        <pt x="780" y="523" on="0"/>
        <pt x="894" y="225" on="0"/>
        <pt x="939" y="214" on="1"/>
      </contour>
    </TTGlyph>
    <TTGlyph name="aDal.fina_BaaDalIsol" xMin="96" yMin="-21" xMax="1096" yMax="1040">
      <contour>
        <pt x="619" y="965" on="1"/>
        <pt x="733" y="663" on="0"/>
        <pt x="793" y="531" on="1"/>
        <pt x="911" y="272" on="0"/>
        <pt x="951" y="259" on="1"/>
        <pt x="1014" y="225" on="0"/>
        <pt x="1078" y="141" on="1"/>
        <pt x="1165" y="26" on="0"/>
        <pt x="1095" y="-11" on="1"/>
        <pt x="1082" y="-18" on="0"/>
        <pt x="1068" y="-21" on="1"/>
        <pt x="860" y="-52" on="0"/>
        <pt x="716" y="311" on="1"/>
        <pt x="712" y="182" on="0"/>
        <pt x="673" y="129" on="1"/>
        <pt x="614" y="47" on="0"/>
        <pt x="254" y="-59" on="0"/>
        <pt x="103" y="27" on="0"/>
        <pt x="90" y="185" on="0"/>
        <pt x="103" y="281" on="1"/>
        <pt x="109" y="323" on="0"/>
        <pt x="153" y="326" on="0"/>
        <pt x="178" y="264" on="0"/>
        <pt x="256" y="215" on="0"/>
        <pt x="627" y="315" on="0"/>
        <pt x="648" y="384" on="1"/>
        <pt x="656" y="411" on="0"/>
        <pt x="567" y="630" on="1"/>
        <pt x="478" y="848" on="0"/>
        <pt x="492" y="895" on="1"/>
        <pt x="535" y="1040" on="1"/>
        <pt x="558" y="1122" on="0"/>
      </contour>
    </TTGlyph>
    <TTGlyph name="aDal.fina_KafDal" xMin="258" yMin="-85" xMax="1068" yMax="843">
      <contour>
        <pt x="949" y="-85" on="1"/>
        <pt x="858" y="-22" on="0"/>
        <pt x="786" y="201" on="1"/>
        <pt x="768" y="121" on="0"/>
        <pt x="739" y="72" on="1"/>
        <pt x="677" y="-28" on="0"/>
        <pt x="419" y="-67" on="0"/>
        <pt x="359" y="-46" on="1"/>
        <pt x="267" y="-15" on="0"/>
        <pt x="259" y="182" on="1"/>
        <pt x="257" y="227" on="0"/>
        <pt x="298" y="241" on="0"/>
        <pt x="343" y="174" on="0"/>
        <pt x="718" y="224" on="0"/>
        <pt x="727" y="313" on="1"/>
        <pt x="726" y="350" on="0"/>
        <pt x="635" y="681" on="1"/>
        <pt x="625" y="721" on="0"/>
        <pt x="638" y="755" on="1"/>
        <pt x="672" y="843" on="1"/>
        <pt x="708" y="935" on="0"/>
        <pt x="743" y="805" on="1"/>
        <pt x="879" y="256" on="0"/>
        <pt x="1007" y="176" on="1"/>
        <pt x="1059" y="144" on="0"/>
        <pt x="1076" y="-15" on="0"/>
        <pt x="1009" y="-126" on="0"/>
      </contour>
    </TTGlyph>
    <TTGlyph name="aDal.fina_LamDal" xMin="117" yMin="-226" xMax="1096" yMax="812">
      <contour>
        <pt x="1041" y="-226" on="1"/>
        <pt x="955" y="-225" on="0"/>
        <pt x="803" y="-111" on="0"/>
        <pt x="706" y="101" on="1"/>
        <pt x="667" y="-23" on="0"/>
        <pt x="631" y="-53" on="1"/>
        <pt x="520" y="-147" on="0"/>
        <pt x="245" y="-138" on="1"/>
        <pt x="150" y="-135" on="0"/>
        <pt x="118" y="-23" on="1"/>
        <pt x="94" y="65" on="0"/>
        <pt x="123" y="187" on="1"/>
        <pt x="128" y="209" on="0"/>
        <pt x="171" y="218" on="0"/>
        <pt x="188" y="191" on="1"/>
        <pt x="238" y="104" on="0"/>
        <pt x="402" y="124" on="1"/>
        <pt x="630" y="157" on="0"/>
        <pt x="632" y="271" on="1"/>
        <pt x="500" y="667" on="1"/>
        <pt x="484" y="719" on="0"/>
        <pt x="497" y="750" on="1"/>
        <pt x="523" y="812" on="1"/>
        <pt x="569" y="915" on="0"/>
        <pt x="607" y="788" on="1"/>
        <pt x="736" y="373" on="0"/>
        <pt x="835" y="197" on="1"/>
        <pt x="903" y="76" on="0"/>
        <pt x="1006" y="64" on="1"/>
        <pt x="1063" y="56" on="0"/>
        <pt x="1104" y="-84" on="0"/>
        <pt x="1087" y="-225" on="0"/>
      </contour>
    </TTGlyph>
    <TTGlyph name="aDal.isol" xMin="151" yMin="-42" xMax="751" yMax="819">
      <contour>
        <pt x="296" y="584" on="1"/>
        <pt x="252" y="602" on="0"/>
        <pt x="287" y="744" on="0"/>
        <pt x="327" y="841" on="0"/>
        <pt x="368" y="819" on="1"/>
        <pt x="641" y="669" on="0"/>
        <pt x="728" y="395" on="1"/>
        <pt x="775" y="249" on="0"/>
        <pt x="750" y="137" on="1"/>
        <pt x="735" y="70" on="0"/>
        <pt x="699" y="54" on="1"/>
        <pt x="496" y="-32" on="0"/>
        <pt x="342" y="-42" on="1"/>
        <pt x="119" y="-57" on="0"/>
        <pt x="151" y="203" on="1"/>
        <pt x="157" y="253" on="0"/>
        <pt x="184" y="253" on="1"/>
        <pt x="204" y="254" on="0"/>
        <pt x="240" y="203" on="0"/>
        <pt x="576" y="247" on="0"/>
        <pt x="666" y="293" on="1"/>
        <pt x="617" y="449" on="0"/>
      </contour>
    </TTGlyph>
    <TTGlyph name="aFaa.fina" xMin="112" yMin="-220" xMax="2126" yMax="731">
      <contour>
        <pt x="1517" y="615" on="1"/>
        <pt x="1635" y="832" on="0"/>
        <pt x="1881" y="629" on="0"/>
        <pt x="1865" y="367" on="1"/>
        <pt x="1861" y="301" on="0"/>
        <pt x="1834" y="222" on="1"/>
        <pt x="1904" y="208" on="0"/>
        <pt x="2034" y="215" on="1"/>
        <pt x="2091" y="218" on="0"/>
        <pt x="2114" y="161" on="1"/>
        <pt x="2123" y="139" on="0"/>
        <pt x="2125" y="122" on="1"/>
        <pt x="2140" y="-24" on="0"/>
        <pt x="2064" y="-30" on="1"/>
        <pt x="1880" y="-44" on="0"/>
        <pt x="1702" y="32" on="1"/>
        <pt x="1295" y="-220" on="0"/>
        <pt x="779" y="-220" on="1"/>
        <pt x="133" y="-219" on="0"/>
        <pt x="113" y="140" on="1"/>
        <pt x="105" y="280" on="0"/>
        <pt x="179" y="439" on="1"/>
        <pt x="210" y="505" on="0"/>
        <pt x="246" y="478" on="1"/>
        <pt x="267" y="463" on="0"/>
        <pt x="250" y="419" on="1"/>
        <pt x="198" y="292" on="0"/>
        <pt x="228" y="248" on="1"/>
        <pt x="360" y="48" on="0"/>
        <pt x="1185" y="63" on="0"/>
        <pt x="1487" y="172" on="1"/>
        <pt x="1430" y="230" on="0"/>
        <pt x="1440" y="477" on="0"/>
      </contour>
      <contour>
        <pt x="1659" y="479" on="1"/>
        <pt x="1573" y="486" on="0"/>
        <pt x="1539" y="354" on="1"/>
        <pt x="1580" y="273" on="0"/>
        <pt x="1728" y="272" on="0"/>
        <pt x="1767" y="329" on="1"/>
        <pt x="1742" y="472" on="0"/>
      </contour>
    </TTGlyph>
    <TTGlyph name="aFaa.init" xMin="-85" yMin="-30" xMax="424" yMax="908">
      <contour>
        <pt x="77" y="656" on="1"/>
        <pt x="30" y="656" on="0"/>
        <pt x="36" y="565" on="1"/>
        <pt x="67" y="555" on="0"/>
        <pt x="163" y="565" on="0"/>
        <pt x="171" y="584" on="1"/>
        <pt x="116" y="656" on="0"/>
      </contour>
      <contour>
        <pt x="98" y="908" on="1"/>
        <pt x="160" y="908" on="0"/>
        <pt x="206" y="867" on="1"/>
        <pt x="389" y="702" on="0"/>
        <pt x="424" y="418" on="1"/>
        <pt x="444" y="254" on="0"/>
        <pt x="394" y="176" on="1"/>
        <pt x="255" y="-35" on="0"/>
        <pt x="5" y="-30" on="1"/>
        <pt x="-45" y="-29" on="0"/>
        <pt x="-69" y="32" on="1"/>
        <pt x="-92" y="94" on="0"/>
        <pt x="-85" y="152" on="1"/>
        <pt x="-77" y="212" on="0"/>
        <pt x="-28" y="215" on="1"/>
        <pt x="227" y="233" on="0"/>
        <pt x="332" y="343" on="1"/>
        <pt x="316" y="412" on="0"/>
        <pt x="306" y="422" on="1"/>
        <pt x="291" y="437" on="0"/>
        <pt x="280" y="412" on="1"/>
        <pt x="250" y="343" on="0"/>
        <pt x="190" y="329" on="1"/>
        <pt x="-6" y="281" on="0"/>
        <pt x="-37" y="435" on="1"/>
        <pt x="-74" y="613" on="0"/>
        <pt x="24" y="908" on="0"/>
      </contour>
    </TTGlyph>
</ttFont>
